<?xml version="1.0" encoding="UTF-8" standalone="no"?>
<!-- Created with Inkscape (http://www.inkscape.org/) -->

<svg
   viewBox="0 0 39.585941 7.4344358"
   version="1.1"
   id="svg5"
   xmlns:xlink="http://www.w3.org/1999/xlink"
   xmlns="http://www.w3.org/2000/svg"
   xmlns:svg="http://www.w3.org/2000/svg">
  <defs
     id="defs2" />
  <g
     id="layer1"
     transform="translate(-49.65625,-37.591913)">
    <g
       aria-label="chaOs ArchiVes"
       id="text2630-7"
       style="font-size:4.23333px;line-height:1.25;font-family:'Cinzel Decorative';-inkscape-font-specification:'Cinzel Decorative';letter-spacing:0.129646px;fill:#ffffff;stroke-width:0.264583">
      <path
         xlink:href="#path2142"
         id="path2322"
         d="m 85.646484,38.121094 c -0.08629,0 -0.195821,0.0195 -0.330078,0.05664 -0.135223,0.0374 -0.254306,0.08914 -0.353515,0.15625 -0.25771,0.173737 -0.466761,0.461614 -0.634766,0.857422 l -1.023437,2.44336 -0.857422,-2.152344 c -0.01328,-0.03198 -0.01758,-0.05632 -0.01758,-0.07227 -10e-7,-0.01894 0.0029,-0.03429 0.0078,-0.04883 0.02511,-0.07031 0.06358,-0.09766 0.138672,-0.09766 h 0.03906 a 0.03032923,0.03032923 0 0 0 0.03125,-0.03125 v -0.04297 a 0.03032923,0.03032923 0 0 0 -0.03125,-0.03125 h -0.953125 a 0.03032923,0.03032923 0 0 0 -0.03125,0.03125 v 0.04297 a 0.03032923,0.03032923 0 0 0 0.03125,0.03125 h 0.0332 c 0.06391,0 0.12779,0.02009 0.191407,0.0625 a 0.03032923,0.03032923 0 0 0 0.002,0 c 0.06473,0.03884 0.114771,0.09771 0.152344,0.183594 l 1.189453,2.714843 a 0.03032923,0.03032923 0 0 0 0.02734,0.01953 h 0.03906 a 0.03032923,0.03032923 0 0 0 0.03125,-0.03125 c 0,-0.02261 0.01157,-0.07328 0.03711,-0.144532 0.02554,-0.07125 0.06324,-0.165474 0.115235,-0.279297 l 1.175781,-2.572265 v -0.002 c 0.04994,-0.108109 0.09665,-0.197986 0.132812,-0.267578 v -0.002 c 0.03875,-0.06907 0.09245,-0.152463 0.16211,-0.25 0.0693,-0.09979 0.140471,-0.179411 0.210937,-0.236328 0.07315,-0.0596 0.165814,-0.111969 0.279297,-0.15625 0.112234,-0.04651 0.23384,-0.07061 0.363282,-0.07617 a 0.03032923,0.03032923 0 0 0 0.0293,-0.03125 v -0.04297 a 0.03032923,0.03032923 0 0 0 -0.03125,-0.03125 z m -17.341796,0.779297 c -0.173995,0 -0.354596,0.0417 -0.541016,0.11914 a 0.03032923,0.03032923 0 0 0 -0.01758,0.03711 l 0.01367,0.04102 a 0.03032923,0.03032923 0 0 0 0.03906,0.01953 c 0.112867,-0.04129 0.21882,-0.06055 0.316406,-0.06055 0.211493,0 0.384786,0.09815 0.53125,0.300781 l -1.041015,2.496094 c -0.04014,0.07705 -0.09056,0.132859 -0.150391,0.171875 -0.06136,0.03735 -0.120191,0.05469 -0.18164,0.05469 h -0.03906 a 0.03032923,0.03032923 0 0 0 -0.03125,0.03125 v 0.04102 a 0.03032923,0.03032923 0 0 0 0.03125,0.03125 h 0.851563 a 0.03032923,0.03032923 0 0 0 0.03125,-0.03125 v -0.04102 a 0.03032923,0.03032923 0 0 0 -0.03125,-0.03125 h -0.03516 c -0.05623,0 -0.09047,-0.01371 -0.115234,-0.04297 -0.02457,-0.03512 -0.03516,-0.0673 -0.03516,-0.0918 0,-0.02947 0.0048,-0.05913 0.01758,-0.08984 l 0.287109,-0.734375 h 1.115234 l 0.158204,0.46289 c 0.170249,0.505073 0.377494,0.882429 0.625,1.132813 0.115044,0.120794 0.239805,0.21463 0.373046,0.28125 0.133457,0.06963 0.267253,0.105469 0.402344,0.105469 0.133437,0 0.270039,-0.02426 0.408203,-0.07031 a 0.03032923,0.03032923 0 0 0 0.01953,-0.03125 l -0.0039,-0.04297 a 0.03032923,0.03032923 0 0 0 -0.03516,-0.02734 c -0.05412,0.01086 -0.117795,0.01563 -0.189453,0.01563 -0.06509,0 -0.153724,-0.01787 -0.261719,-0.05664 -0.105298,-0.0378 -0.205514,-0.102799 -0.304687,-0.199219 -0.09861,-0.09313 -0.212572,-0.23818 -0.335938,-0.43164 -0.119597,-0.189132 -0.23742,-0.445445 -0.355469,-0.771485 L 69.304688,40.023438 C 69.200002,39.726357 69.113269,39.519517 69.042969,39.402344 68.940254,39.236861 68.848027,39.123372 68.759766,39.0625 68.606413,38.955441 68.453223,38.900391 68.304688,38.900391 Z m 18.550781,0.185547 c -0.08088,0.03463 -0.258092,0.04864 -0.212891,0.04883 -0.100171,0.01666 -0.193769,0.02344 -0.279297,0.02344 h -1.240234 a 0.03032923,0.03032923 0 0 0 -0.0293,0.0332 l 0.0039,0.04297 a 0.03032923,0.03032923 0 0 0 0.0293,0.0293 h 0.05078 c 0.06669,0 0.123459,0.02113 0.171875,0.06445 0.04809,0.04049 0.06836,0.0847 0.06836,0.144531 v 2.371094 c -0.003,0.06562 -0.026,0.121703 -0.07422,0.169922 -0.04546,0.04546 -0.09963,0.06641 -0.166016,0.06641 h -0.05469 a 0.03032923,0.03032923 0 0 0 -0.03125,0.03125 v 0.04102 a 0.03032923,0.03032923 0 0 0 0.03125,0.03125 h 1.757812 a 0.03032923,0.03032923 0 0 0 0.0293,-0.02148 l 0.244141,-0.685547 a 0.03032923,0.03032923 0 0 0 -0.0293,-0.04102 h -0.04102 a 0.03032923,0.03032923 0 0 0 -0.02734,0.01953 c -0.0721,0.180255 -0.162549,0.315429 -0.267579,0.404297 -0.102752,0.08694 -0.254549,0.130859 -0.458984,0.130859 h -0.574219 v -1.203125 h 0.685547 c 0.0494,0.0025 0.08944,0.0206 0.121094,0.05469 0.03453,0.03453 0.04883,0.07148 0.04883,0.121094 v 0.06445 a 0.03032923,0.03032923 0 0 0 0.03125,0.03125 h 0.04297 a 0.03032923,0.03032923 0 0 0 0.03125,-0.03125 v -0.669922 a 0.03032923,0.03032923 0 0 0 -0.03125,-0.03125 h -0.04297 a 0.03032923,0.03032923 0 0 0 -0.03125,0.03125 v 0.06055 c 0,0.05276 -0.01485,0.09298 -0.04883,0.126953 -0.0339,0.03392 -0.07389,0.04989 -0.123047,0.05273 h -0.683594 v -1.246094 h 0.830079 c 0.05779,0.0025 0.106246,0.02365 0.146484,0.06641 0.04294,0.04294 0.0625,0.09186 0.0625,0.152343 v 0.07617 a 0.03032923,0.03032923 0 0 0 0.03125,0.03125 h 0.04102 a 0.03032923,0.03032923 0 0 0 0.03125,-0.03125 v -0.533203 a 0.03032923,0.03032923 0 0 0 -0.04297,-0.02734 z m -35.63086,0.01367 c -0.469029,0 -0.850611,0.145534 -1.138671,0.433594 -0.2852,0.28808 -0.429688,0.66969 -0.429688,1.138672 0,0.466198 0.144516,0.846712 0.429688,1.134766 0.287747,0.28777 0.660765,0.4375 1.113281,0.4375 0.147295,0 0.258578,-0.05938 0.355469,-0.128907 0.09689,-0.06952 0.182145,-0.148722 0.279296,-0.203125 v -0.002 c 0.01877,-0.01075 0.04619,-0.01559 0.07813,-0.02148 0.03194,-0.0059 0.06904,-0.01225 0.09961,-0.03711 0.01722,-0.01403 0.01896,-0.02966 0.02148,-0.03906 0.0025,-0.0094 0.0047,-0.0121 0,-0.0078 0.04688,-0.03912 0.115888,-0.05575 0.1875,-0.07813 0.07161,-0.02237 0.147074,-0.05312 0.193359,-0.128906 a 0.03032923,0.03032923 0 0 0 0.0039,-0.01367 l 0.05078,-0.664062 a 0.03032923,0.03032923 0 0 0 -0.0293,-0.0332 h -0.0332 a 0.03032923,0.03032923 0 0 0 -0.0293,0.02734 c -0.04489,0.393478 -0.180804,0.661031 -0.382812,0.84375 -0.04987,0.04162 -0.122763,0.06117 -0.191407,0.09961 v 0.002 c -0.182252,0.104434 -0.364615,0.195312 -0.603515,0.195313 -0.351302,-0.0083 -0.628771,-0.13591 -0.84375,-0.386719 -0.212136,-0.253461 -0.31836,-0.585772 -0.31836,-1.003907 0,-0.418082 0.107526,-0.751423 0.322266,-1.001953 0.217514,-0.250553 0.502521,-0.373047 0.865234,-0.373047 0.254462,0 0.47252,0.06447 0.65625,0.19336 0.183117,0.125721 0.30466,0.304226 0.365235,0.541016 a 0.03032923,0.03032923 0 0 0 0.0293,0.02344 h 0.03711 a 0.03032923,0.03032923 0 0 0 0.0293,-0.03516 l -0.08398,-0.597657 a 0.03032923,0.03032923 0 0 0 -0.01172,-0.02148 c -0.295781,-0.195269 -0.638217,-0.292969 -1.021485,-0.292969 z m 6.613282,0 c -0.08657,-0.01457 0.0033,0.418658 -0.06836,0.175782 -0.02554,0.07125 -0.06324,0.165474 -0.115234,0.279297 l -0.957031,2.277343 c -0.04042,0.083 -0.09223,0.14417 -0.154297,0.185547 -0.06384,0.04256 -0.125543,0.0625 -0.189453,0.0625 h -0.03906 a 0.03032923,0.03032923 0 0 0 -0.03125,0.03125 v 0.04102 a 0.03032923,0.03032923 0 0 0 0.03125,0.03125 h 0.851563 a 0.03032923,0.03032923 0 0 0 0.03125,-0.03125 v -0.04102 a 0.03032923,0.03032923 0 0 0 -0.03125,-0.03125 h -0.03906 c -0.05313,0 -0.08634,-0.01344 -0.111328,-0.04297 -0.02452,-0.03514 -0.03516,-0.06701 -0.03516,-0.08789 0,-0.03012 0.0052,-0.06047 0.01563,-0.0918 l 0.27539,-0.701172 h 1.09961 l 0.263672,0.697266 c 0.01047,0.03129 0.01563,0.06166 0.01563,0.0918 0,0.02442 -0.01075,0.05577 -0.03906,0.0918 a 0.03032923,0.03032923 0 0 0 0,0.002 c -0.02199,0.02859 -0.05429,0.04102 -0.107422,0.04102 h -0.03906 a 0.03032923,0.03032923 0 0 0 -0.03125,0.03125 v 0.04102 a 0.03032923,0.03032923 0 0 0 0.03125,0.03125 h 0.953125 a 0.03032923,0.03032923 0 0 0 0.03125,-0.03125 v -0.04102 a 0.03032923,0.03032923 0 0 0 -0.03125,-0.03125 h -0.0332 c -0.06698,0 -0.131821,-0.02018 -0.195313,-0.0625 -0.06235,-0.04157 -0.112686,-0.102055 -0.150391,-0.185547 l -1.134765,-2.71289 a 0.03032923,0.03032923 0 0 0 -0.02734,-0.01953 z m 3.724609,0 c -0.217881,0 -0.405718,0.03733 -0.560547,0.113282 -0.07257,0.03484 -0.136574,0.07681 -0.197265,0.123047 a 0.03032923,0.03032923 0 0 0 -0.002,0 c -0.05844,0.04675 -0.107835,0.09781 -0.146484,0.154296 -0.0376,0.05495 -0.07072,0.113154 -0.09961,0.173828 -0.02939,0.05875 -0.04874,0.11771 -0.06055,0.179688 a 0.03032923,0.03032923 0 0 0 0,0.002 c -0.0086,0.05946 -0.01466,0.107337 -0.01758,0.142578 -0.0029,0.03476 -0.0059,0.06669 -0.0059,0.0957 0,0.03041 0.0078,0.0635 0.01953,0.101563 a 0.03032923,0.03032923 0 0 0 0.03516,0.01953 l 0.04102,-0.0078 a 0.03032923,0.03032923 0 0 0 0.02344,-0.03516 c -0.0051,-0.02767 -0.0059,-0.06723 -0.0059,-0.117187 -10e-7,-0.04657 0.0094,-0.103472 0.03125,-0.171875 0.07648,-0.232188 0.23182,-0.398406 0.470703,-0.5 0.131162,-0.05739 0.278371,-0.08398 0.441406,-0.08398 0.365473,10e-7 0.642152,0.125507 0.839844,0.38086 0.201571,0.256796 0.300781,0.571707 0.300781,0.947266 0,0.43434 -0.12495,0.779925 -0.378906,1.044921 -0.251265,0.26231 -0.574888,0.392579 -0.97461,0.392579 -0.399722,-10e-7 -0.722387,-0.130115 -0.976562,-0.392579 -0.253435,-0.261698 -0.38086,-0.6243 -0.38086,-1.095703 0,-0.253663 0.0393,-0.493428 0.117188,-0.71875 0.07999,-0.223407 0.20886,-0.392104 0.386719,-0.509765 a 0.03032923,0.03032923 0 0 0 0.0078,-0.04297 l -0.02539,-0.03711 a 0.03032923,0.03032923 0 0 0 -0.03906,-0.0098 c -0.266842,0.134856 -0.473061,0.321296 -0.617188,0.560547 -0.144045,0.239124 -0.21875,0.513529 -0.21875,0.820312 0,0.475555 0.169536,0.867161 0.5,1.166016 0.33296,0.298515 0.750059,0.449219 1.25,0.449219 0.499945,0 0.916703,-0.152456 1.244141,-0.451172 a 0.03032923,0.03032923 0 0 0 0.002,0 c 0.327312,-0.30147 0.492188,-0.681569 0.492188,-1.134766 0,-0.452095 -0.1407,-0.826451 -0.419922,-1.117187 -0.276464,-0.293743 -0.63764,-0.441407 -1.076172,-0.441407 z m 2.910156,0 c -0.234871,0 -0.425114,0.07449 -0.566406,0.22461 -0.13761,0.146391 -0.208984,0.328061 -0.208984,0.535156 0,0.208057 0.08065,0.387251 0.238281,0.533203 l 0.8125,0.753906 c 0.10413,0.09612 0.15625,0.220174 0.15625,0.376954 0,0.15356 -0.05376,0.276671 -0.164063,0.378906 -0.107113,0.10176 -0.244454,0.152344 -0.416015,0.152344 -0.165457,0 -0.293709,-0.05327 -0.392578,-0.160157 -0.09816,-0.109765 -0.146485,-0.245119 -0.146485,-0.410156 0,-0.03032 -7.45e-4,-0.06187 0.002,-0.0918 a 0.03032923,0.03032923 0 0 0 -0.0293,-0.0332 h -0.03711 a 0.03032923,0.03032923 0 0 0 -0.0293,0.02148 c -0.04316,0.129495 -0.06641,0.254243 -0.06641,0.371094 0,0.113813 0.006,0.189508 0.01563,0.234375 a 0.03032923,0.03032923 0 0 0 0.0078,0.01563 c 0.08096,0.08396 0.191989,0.142014 0.333984,0.179688 0.14319,0.04009 0.278648,0.0625 0.40625,0.0625 0.24603,0 0.447789,-0.0767 0.597656,-0.226563 0.149416,-0.152348 0.22461,-0.347951 0.22461,-0.580078 0,-0.23203 -0.07312,-0.418909 -0.220704,-0.554688 L 64.15625,40.113281 c -0.107796,-0.09971 -0.160156,-0.21564 -0.160156,-0.351562 0,-0.137111 0.04409,-0.247213 0.134765,-0.337891 0.0936,-0.09092 0.204688,-0.134766 0.341797,-0.134766 0.138299,0 0.247688,0.03753 0.332032,0.111329 0.08693,0.07376 0.128906,0.167564 0.128906,0.292968 a 0.03032923,0.03032923 0 0 0 0.03125,0.03125 h 0.03711 a 0.03032923,0.03032923 0 0 0 0.03125,-0.03125 v -0.519531 a 0.03032923,0.03032923 0 0 0 -0.03125,-0.03125 h -0.164062 c -0.134484,-0.02769 -0.256905,-0.04297 -0.365235,-0.04297 z m 10.539063,0 c -0.469031,0 -0.850612,0.145534 -1.138672,0.433594 -0.285199,0.28808 -0.429688,0.66969 -0.429688,1.138672 0,0.466198 0.144516,0.846712 0.429688,1.134766 0.287819,0.287841 0.661004,0.43466 1.113281,0.4375 0.147295,0 0.258578,-0.05938 0.355469,-0.128907 0.09689,-0.06952 0.182146,-0.148722 0.279297,-0.203125 v -0.002 c 0.01877,-0.01075 0.04619,-0.01559 0.07813,-0.02148 0.03194,-0.0059 0.06904,-0.01225 0.09961,-0.03711 0.01722,-0.01403 0.01896,-0.02966 0.02148,-0.03906 0.0025,-0.0094 0.0047,-0.0121 0,-0.0078 0.04688,-0.03912 0.115889,-0.05575 0.1875,-0.07813 0.07161,-0.02237 0.147075,-0.05312 0.19336,-0.128906 a 0.03032923,0.03032923 0 0 0 0.0039,-0.01367 l 0.05078,-0.664062 a 0.03032923,0.03032923 0 0 0 -0.0293,-0.0332 h -0.0332 a 0.03032923,0.03032923 0 0 0 -0.0293,0.02734 c -0.04489,0.393478 -0.180803,0.661031 -0.382812,0.84375 -0.04987,0.04162 -0.122763,0.06117 -0.191406,0.09961 v 0.002 c -0.182253,0.104434 -0.364616,0.195313 -0.603516,0.195313 -0.351302,-0.0083 -0.628771,-0.13591 -0.84375,-0.386719 -0.212136,-0.253461 -0.318359,-0.585772 -0.318359,-1.003907 0,-0.418082 0.107526,-0.751423 0.322265,-1.001953 0.217513,-0.250553 0.50252,-0.373047 0.865235,-0.373047 0.25446,0 0.472518,0.06447 0.65625,0.19336 0.183117,0.125721 0.304659,0.304226 0.365234,0.541016 a 0.03032923,0.03032923 0 0 0 0.0293,0.02344 h 0.03711 a 0.03032923,0.03032923 0 0 0 0.0293,-0.03516 l -0.08398,-0.597657 a 0.03032923,0.03032923 0 0 0 -0.01172,-0.02148 c -0.295782,-0.195269 -0.638218,-0.292969 -1.021484,-0.292969 z m 13.492187,0 c -0.234871,0 -0.425114,0.07449 -0.566406,0.22461 -0.137611,0.146391 -0.208984,0.328061 -0.208984,0.535156 0,0.208057 0.08065,0.387251 0.238281,0.533203 l 0.8125,0.753906 c 0.103998,0.096 0.154297,0.219933 0.154297,0.376954 0,0.153806 -0.05193,0.276786 -0.16211,0.378906 -0.107114,0.10176 -0.244455,0.152344 -0.416015,0.152344 -0.165458,0 -0.293709,-0.05327 -0.392578,-0.160157 -0.09816,-0.109765 -0.146485,-0.245119 -0.146485,-0.410156 0,-0.03032 -7.44e-4,-0.06187 0.002,-0.0918 a 0.03032923,0.03032923 0 0 0 -0.0293,-0.0332 H 87.75 a 0.03032923,0.03032923 0 0 0 -0.0293,0.02148 c -0.04325,0.129761 -0.06445,0.254593 -0.06445,0.371094 0,0.113464 0.0038,0.188574 0.01367,0.234375 a 0.03032923,0.03032923 0 0 0 0.0078,0.01563 c 0.08114,0.08414 0.19401,0.142032 0.335938,0.179688 0.143189,0.04009 0.278648,0.0625 0.40625,0.0625 0.24603,0 0.447789,-0.0767 0.597656,-0.226563 0.149416,-0.152348 0.22461,-0.347951 0.22461,-0.580078 -2e-6,-0.23203 -0.07312,-0.418909 -0.220704,-0.554688 L 88.1875,40.113281 c -0.107796,-0.09971 -0.160156,-0.21564 -0.160156,-0.351562 0,-0.137111 0.04409,-0.247213 0.134765,-0.337891 0.0936,-0.09092 0.204688,-0.134766 0.341797,-0.134766 0.138298,0 0.247689,0.03753 0.332032,0.111329 0.08693,0.07376 0.128906,0.167564 0.128906,0.292968 a 0.03032923,0.03032923 0 0 0 0.03125,0.03125 h 0.03711 a 0.03032923,0.03032923 0 0 0 0.03125,-0.03125 v -0.519531 a 0.03032923,0.03032923 0 0 0 -0.03125,-0.03125 h -0.164062 c -0.134484,-0.02769 -0.256904,-0.04297 -0.365235,-0.04297 z m -35.46875,0.05859 c -0.04921,0.01384 -0.03005,0.06947 -0.03125,0.07422 0.03256,0.05359 0.03578,0.02861 0.08594,0.03125 0.06639,0 0.120555,0.02095 0.166015,0.06641 0.04856,0.04598 0.07168,0.09956 0.07422,0.166016 v 2.351562 c -0.003,0.06556 -0.02646,0.12077 -0.07422,0.166016 -0.04546,0.04546 -0.09963,0.06641 -0.166015,0.06641 h -0.05469 a 0.03032923,0.03032923 0 0 0 -0.03125,0.03125 v 0.04102 a 0.03032923,0.03032923 0 0 0 0.03125,0.03125 h 0.927735 a 0.03032923,0.03032923 0 0 0 0.03125,-0.03125 v -0.04102 a 0.03032923,0.03032923 0 0 0 -0.03125,-0.03125 h -0.05469 c -0.06639,0 -0.121444,-0.02048 -0.169922,-0.06641 -0.0481,-0.04557 -0.07031,-0.09992 -0.07031,-0.166016 v -1.064453 h 1.667969 v 1.0625 c -0.0025,0.06341 -0.02537,0.11912 -0.07422,0.167969 -0.04574,0.04574 -0.09767,0.06641 -0.164063,0.06641 h -0.05469 a 0.03032923,0.03032923 0 0 0 -0.03125,0.03125 v 0.04102 a 0.03032923,0.03032923 0 0 0 0.03125,0.03125 H 55.96875 A 0.03032923,0.03032923 0 0 0 56,42.152344 v -0.04102 a 0.03032923,0.03032923 0 0 0 -0.03125,-0.03125 h -0.05469 c -0.06639,0 -0.121443,-0.02048 -0.169921,-0.06641 -0.04563,-0.04561 -0.06777,-0.101198 -0.07031,-0.167969 V 39.5 v -0.002 c 0.0029,-0.06578 0.0249,-0.118646 0.07031,-0.164063 0.04856,-0.04856 0.103831,-0.07031 0.169921,-0.07031 h 0.05469 A 0.03032923,0.03032923 0 0 0 56,39.232422 v -0.04297 a 0.03032923,0.03032923 0 0 0 -0.03125,-0.03125 h -0.925781 a 0.03032923,0.03032923 0 0 0 -0.03125,0.03125 v 0.04297 a 0.03032923,0.03032923 0 0 0 0.03125,0.03125 h 0.05469 c 0.0435,0 0.08306,0.009 0.121094,0.0293 0.07827,0.04631 0.114645,0.108961 0.117188,0.201172 v 1.099609 h -1.667969 v -1.099609 c 0.0029,-0.06578 0.0249,-0.118646 0.07031,-0.164063 0.04848,-0.04593 0.103533,-0.06641 0.169922,-0.06641 h 0.05469 a 0.03032923,0.03032923 0 0 0 0.03125,-0.03125 v -0.04297 a 0.03032923,0.03032923 0 0 0 -0.03125,-0.03125 z m 17.634766,0 c -0.04921,0.01384 -0.03005,0.06947 -0.03125,0.07422 0.03256,0.05359 0.03578,0.02861 0.08594,0.03125 0.06609,0 0.120444,0.02221 0.166016,0.07031 0.04856,0.04598 0.07168,0.09956 0.07422,0.166016 v 2.347656 c -0.003,0.06556 -0.02646,0.12077 -0.07422,0.166016 -0.04546,0.04546 -0.09963,0.06641 -0.166016,0.06641 h -0.05469 a 0.03032923,0.03032923 0 0 0 -0.03125,0.03125 v 0.04102 a 0.03032923,0.03032923 0 0 0 0.03125,0.03125 h 0.927734 a 0.03032923,0.03032923 0 0 0 0.0293,-0.0332 l -0.0039,-0.04102 a 0.03032923,0.03032923 0 0 0 -0.0293,-0.0293 h -0.05078 c -0.06947,0 -0.125498,-0.02062 -0.173828,-0.06641 -0.04593,-0.04848 -0.06641,-0.103532 -0.06641,-0.169922 v -2.492188 h 0.240235 c 0.100991,0 0.184353,0.0031 0.251953,0.0059 0.151086,0.0081 0.267417,0.06443 0.355469,0.173828 0.08826,0.109691 0.13507,0.25322 0.140625,0.4375 v 0.09766 c 0,0.04441 -0.0072,0.09422 -0.02344,0.148438 -0.04352,0.136236 -0.11659,0.237236 -0.220703,0.30664 -0.10457,0.06971 -0.241244,0.107179 -0.412109,0.111328 a 0.03032923,0.03032923 0 0 0 -0.002,0 c -0.05317,0.0028 -0.09673,0.0039 -0.132812,0.0039 -0.03608,0 -0.06354,5.82e-4 -0.08398,-0.002 a 0.03032923,0.03032923 0 0 0 -0.03516,0.0293 v 0.04102 a 0.03032923,0.03032923 0 0 0 0.03125,0.03125 c 0.07944,0 0.161045,0.04232 0.248047,0.134766 0.03038,0.03318 0.06076,0.06629 0.08789,0.101562 a 0.03032923,0.03032923 0 0 0 0,0.002 c 0.02425,0.0291 0.126742,0.173622 0.298828,0.421875 0.172235,0.248471 0.275221,0.393129 0.314453,0.441407 a 0.03032923,0.03032923 0 0 0 0.002,0.002 c 0.03971,0.04255 0.08329,0.0881 0.134766,0.136718 a 0.03032923,0.03032923 0 0 0 0.002,0.002 c 0.05752,0.04844 0.140211,0.09289 0.246094,0.138672 0.108318,0.04391 0.224894,0.06641 0.349609,0.06641 h 0.232422 a 0.03032923,0.03032923 0 0 0 0.03125,-0.03125 v -0.04102 a 0.03032923,0.03032923 0 0 0 -0.03125,-0.03125 c -0.08857,0 -0.169955,-0.01895 -0.248047,-0.05664 -0.03478,-0.01604 -0.07054,-0.03564 -0.105469,-0.0625 -0.03533,-0.02718 -0.06723,-0.05636 -0.09766,-0.08398 -0.03062,-0.03062 -0.08457,-0.08501 -0.15625,-0.162109 l -0.002,-0.002 c -0.07054,-0.07907 -0.227359,-0.29538 -0.46875,-0.640625 -0.0465,-0.06394 -0.101806,-0.124207 -0.162109,-0.181641 -0.0282,-0.02961 -0.05303,-0.05395 -0.07813,-0.07422 0.169972,-0.02214 0.319812,-0.10412 0.441406,-0.248047 0.14549,-0.171682 0.21875,-0.375391 0.21875,-0.607421 0,-0.23514 -0.07784,-0.429412 -0.230469,-0.576172 -0.153028,-0.150083 -0.364394,-0.226563 -0.626953,-0.226563 z m 6.152344,0 c -0.04921,0.01384 -0.03005,0.06947 -0.03125,0.07422 0.03256,0.05359 0.03578,0.02861 0.08594,0.03125 0.06639,0 0.120556,0.02095 0.166016,0.06641 0.04856,0.04598 0.07168,0.09956 0.07422,0.166016 v 2.351562 c -0.003,0.06556 -0.02646,0.12077 -0.07422,0.166016 -0.04546,0.04546 -0.09963,0.06641 -0.166016,0.06641 h -0.05469 a 0.03032923,0.03032923 0 0 0 -0.03125,0.03125 v 0.04102 a 0.03032923,0.03032923 0 0 0 0.03125,0.03125 H 77.75 a 0.03032923,0.03032923 0 0 0 0.03125,-0.03125 v -0.04102 A 0.03032923,0.03032923 0 0 0 77.75,42.080078 h -0.05469 c -0.06639,0 -0.121443,-0.02048 -0.169921,-0.06641 -0.0481,-0.04557 -0.07031,-0.09992 -0.07031,-0.166016 v -1.064453 h 1.667969 v 1.0625 c -0.0025,0.06341 -0.02537,0.11912 -0.07422,0.167969 -0.04573,0.04574 -0.09767,0.06641 -0.164062,0.06641 h -0.05664 a 0.03032923,0.03032923 0 0 0 -0.03125,0.03125 v 0.04102 a 0.03032923,0.03032923 0 0 0 0.03125,0.03125 h 0.927734 a 0.03032923,0.03032923 0 0 0 0.03125,-0.03125 v -0.04102 a 0.03032923,0.03032923 0 0 0 -0.03125,-0.03125 h -0.05469 c -0.06639,0 -0.121444,-0.02048 -0.169922,-0.06641 -0.04563,-0.04561 -0.06777,-0.101199 -0.07031,-0.167969 V 39.5 v -0.002 c 0.0029,-0.06578 0.0249,-0.118646 0.07031,-0.164063 0.04856,-0.04856 0.103832,-0.07031 0.169922,-0.07031 h 0.05469 a 0.03032923,0.03032923 0 0 0 0.03125,-0.03125 v -0.04297 a 0.03032923,0.03032923 0 0 0 -0.03125,-0.03125 h -0.927734 a 0.03032923,0.03032923 0 0 0 -0.03125,0.03125 v 0.04297 a 0.03032923,0.03032923 0 0 0 0.03125,0.03125 h 0.05664 c 0.0435,0 0.08306,0.009 0.121093,0.0293 0.07827,0.04631 0.114647,0.108962 0.117188,0.201172 v 1.099609 h -1.667969 v -1.099609 c 0.0029,-0.06578 0.0249,-0.118646 0.07031,-0.164063 0.04848,-0.04593 0.103532,-0.06641 0.169921,-0.06641 H 77.75 a 0.03032923,0.03032923 0 0 0 0.03125,-0.03125 v -0.04297 A 0.03032923,0.03032923 0 0 0 77.75,39.158203 Z m 3.572265,0 c -0.04921,0.01384 -0.03005,0.06947 -0.03125,0.07422 0.03256,0.05359 0.03578,0.02861 0.08594,0.03125 0.06639,0 0.118327,0.02067 0.164062,0.06641 0.04882,0.04623 0.07366,0.100098 0.07617,0.166016 v 2.347656 c -0.003,0.06509 -0.0277,0.121455 -0.07617,0.169922 -0.04574,0.04574 -0.09767,0.06641 -0.164062,0.06641 h -0.05469 a 0.03032923,0.03032923 0 0 0 -0.03125,0.03125 v 0.04102 a 0.03032923,0.03032923 0 0 0 0.03125,0.03125 h 0.925781 a 0.03032923,0.03032923 0 0 0 0.03125,-0.03125 v -0.04102 a 0.03032923,0.03032923 0 0 0 -0.03125,-0.03125 h -0.05469 c -0.06639,0 -0.119224,-0.02023 -0.167969,-0.06641 -0.04882,-0.04882 -0.07227,-0.10437 -0.07227,-0.169922 v -2.349609 c 0.003,-0.06527 0.02657,-0.11837 0.07227,-0.164063 0.04875,-0.04618 0.101579,-0.06641 0.167969,-0.06641 h 0.05469 a 0.03032923,0.03032923 0 0 0 0.03125,-0.03125 v -0.04297 a 0.03032923,0.03032923 0 0 0 -0.03125,-0.03125 z m -11.605469,0.457031 c 0.04609,0.09966 0.09385,0.212086 0.148438,0.371094 l 0.320312,0.945313 h -0.984374 z m -10.957031,0.107422 0.464844,1.244141 h -0.951172 z" />
      <path
         id="path2142"
         d="m 87.699967,41.979685 c -0.0085,-0.03951 -0.0127,-0.115713 -0.0127,-0.2286 0,-0.112889 0.02117,-0.232833 0.0635,-0.359833 h 0.0381 c -0.0028,0.03105 -0.0042,0.06209 -0.0042,0.09313 0,0.172155 0.05221,0.316088 0.156633,0.431799 0.104422,0.112889 0.242711,0.169333 0.414867,0.169333 0.177799,0 0.323144,-0.05362 0.436033,-0.160866 0.115711,-0.107245 0.173566,-0.2413 0.173566,-0.402166 0,-0.163689 -0.05503,-0.296334 -0.1651,-0.397933 L 87.987834,40.37102 c -0.1524,-0.141111 -0.2286,-0.311856 -0.2286,-0.512233 0,-0.200378 0.06632,-0.371122 0.198967,-0.512233 0.135466,-0.143933 0.317499,-0.2159 0.546099,-0.2159 0.107245,0 0.2286,0.01411 0.364066,0.04233 h 0.1651 v 0.5207 h -0.0381 c 0,-0.132644 -0.04657,-0.238477 -0.1397,-0.3175 -0.09031,-0.07902 -0.207433,-0.118533 -0.351366,-0.118533 -0.143933,0 -0.265289,0.04798 -0.364066,0.143933 -0.09596,0.09596 -0.143933,0.2159 -0.143933,0.359833 0,0.143933 0.05644,0.268111 0.169333,0.372533 l 0.833966,0.770466 c 0.141111,0.129823 0.211666,0.307623 0.211666,0.5334 0,0.225777 -0.07197,0.412044 -0.2159,0.558799 -0.143933,0.143933 -0.335844,0.2159 -0.575733,0.2159 -0.124177,0 -0.256822,-0.01976 -0.397933,-0.05927 -0.138289,-0.03669 -0.245533,-0.09454 -0.321733,-0.173567 z m -2.521477,0.131233 c 0.07338,0 0.135467,-0.0254 0.186267,-0.0762 0.05362,-0.05362 0.08184,-0.11712 0.08467,-0.190499 v -2.370665 c 0,-0.06773 -0.02681,-0.124178 -0.08043,-0.169333 -0.05362,-0.04798 -0.11712,-0.07197 -0.1905,-0.07197 h -0.0508 l -0.0042,-0.04233 h 1.240366 c 0.08749,0 0.182033,-0.0085 0.283633,-0.0254 0.104422,-0.01693 0.1778,-0.03387 0.220133,-0.0508 v 0.533399 h -0.04233 v -0.0762 c 0,-0.06773 -0.02399,-0.125588 -0.07197,-0.173566 -0.04515,-0.04798 -0.100187,-0.07338 -0.1651,-0.0762 H 85.72459 v 1.308099 h 0.715433 c 0.05645,-0.0028 0.104424,-0.02397 0.143933,-0.0635 0.03951,-0.03951 0.05927,-0.0889 0.05927,-0.148167 v -0.05927 h 0.04233 v 0.668866 h -0.04233 v -0.0635 c 0,-0.05645 -0.01976,-0.104424 -0.05927,-0.143933 -0.03669,-0.03951 -0.08325,-0.06068 -0.1397,-0.0635 H 85.72459 v 1.265765 h 0.605366 c 0.208844,0 0.368299,-0.04657 0.478366,-0.139699 0.110067,-0.09313 0.201789,-0.231422 0.275167,-0.414867 h 0.04233 l -0.245533,0.6858 h -1.756832 v -0.04233 z m -0.197373,-3.75073 c 0.09596,-0.06491 0.210256,-0.115713 0.3429,-0.1524 0.132645,-0.03669 0.239889,-0.05503 0.321733,-0.05503 h 0.156633 v 0.04233 c -0.132644,0.0057 -0.256822,0.03248 -0.372533,0.08043 -0.115711,0.04515 -0.211666,0.09878 -0.287866,0.160866 -0.07338,0.05927 -0.145345,0.1397 -0.2159,0.2413 -0.07055,0.09878 -0.125589,0.183444 -0.1651,0.254 -0.03669,0.07056 -0.08043,0.160866 -0.131233,0.270933 l -1.176866,2.573864 c -0.104422,0.2286 -0.156633,0.373944 -0.156633,0.436033 h -0.0381 L 82.068587,39.49895 c -0.03951,-0.09031 -0.09455,-0.156634 -0.1651,-0.198967 -0.06773,-0.04515 -0.136878,-0.06773 -0.207433,-0.06773 h -0.03387 v -0.04233 h 0.952499 v 0.04233 h -0.0381 c -0.08467,0 -0.141111,0.03951 -0.169333,0.118533 -0.0057,0.01693 -0.0085,0.03669 -0.0085,0.05927 0,0.02258 0.0071,0.0508 0.02117,0.08467 l 0.884766,2.218264 1.049866,-2.510364 c 0.166511,-0.392289 0.375355,-0.6731 0.626532,-0.842433 z m -4.532306,3.75073 c 0.07338,0 0.135467,-0.0254 0.186267,-0.0762 0.05362,-0.05362 0.08184,-0.11712 0.08467,-0.190499 v -2.349498 c -0.0028,-0.07338 -0.03102,-0.135467 -0.08467,-0.186267 -0.0508,-0.0508 -0.112889,-0.0762 -0.186267,-0.0762 h -0.05503 v -0.04233 h 0.927099 v 0.04233 h -0.05503 c -0.07338,0 -0.136878,0.0254 -0.1905,0.0762 -0.0508,0.0508 -0.07761,0.112889 -0.08043,0.186267 v 2.349498 c 0,0.07338 0.02681,0.136877 0.08043,0.190499 0.05362,0.0508 0.11712,0.0762 0.1905,0.0762 h 0.05503 v 0.04233 h -0.927099 v -0.04233 z m -1.564744,0 c 0.07338,0 0.135467,-0.0254 0.186267,-0.0762 0.05362,-0.05362 0.08184,-0.115709 0.08467,-0.186266 v -1.096433 h -1.731432 v 1.096433 c 0,0.07338 0.02681,0.135466 0.08043,0.186266 0.05362,0.0508 0.11712,0.0762 0.190499,0.0762 h 0.05503 v 0.04233 h -0.9271 v -0.04233 h 0.05503 c 0.07338,0 0.135466,-0.0254 0.186266,-0.0762 0.05362,-0.0508 0.08184,-0.112889 0.08467,-0.186266 v -2.353731 c -0.0028,-0.07338 -0.03102,-0.135467 -0.08467,-0.186267 -0.0508,-0.0508 -0.112889,-0.0762 -0.186266,-0.0762 h -0.05503 v -0.04233 h 0.9271 v 0.04233 h -0.05503 c -0.07338,0 -0.136877,0.0254 -0.190499,0.0762 -0.0508,0.0508 -0.07761,0.112889 -0.08043,0.186267 V 40.62502 H 79.155 v -1.130299 c -0.0028,-0.1016 -0.04796,-0.1778 -0.135466,-0.2286 -0.04233,-0.02258 -0.08749,-0.03387 -0.135467,-0.03387 h -0.05503 v -0.04233 h 0.927099 v 0.04233 H 79.7011 c -0.07338,0 -0.136878,0.02681 -0.1905,0.08043 -0.0508,0.0508 -0.07761,0.112889 -0.08043,0.186267 v 2.349498 c 0.0028,0.07338 0.02961,0.135466 0.08043,0.186266 0.05362,0.0508 0.11712,0.0762 0.1905,0.0762 h 0.05503 v 0.04233 h -0.927099 v -0.04233 z m -3.897302,0.1016 c -0.445911,-0.0028 -0.809978,-0.145322 -1.0922,-0.427566 -0.279399,-0.282222 -0.419099,-0.653344 -0.419099,-1.113366 0,-0.462844 0.1397,-0.835377 0.419099,-1.117599 0.282222,-0.282222 0.654755,-0.423333 1.1176,-0.423333 0.378177,0 0.71261,0.09596 1.003299,0.287867 l 0.08467,0.596899 h -0.0381 c -0.06209,-0.242711 -0.187675,-0.428977 -0.376766,-0.558799 -0.189089,-0.132645 -0.413455,-0.198967 -0.673099,-0.198967 -0.369711,0 -0.666045,0.128411 -0.889,0.385233 -0.220133,0.256822 -0.330199,0.5969 -0.330199,1.020233 0,0.423333 0.108655,0.764821 0.325966,1.024465 0.220133,0.256822 0.509411,0.389466 0.867833,0.397933 0.316089,0 0.579966,-0.08608 0.791632,-0.258233 0.2286,-0.186267 0.366889,-0.489655 0.414867,-0.910166 h 0.03387 l -0.0508,0.664633 c -0.256822,0.420511 -0.653344,0.630766 -1.189565,0.630766 z M 71.54243,39.321154 h -0.270933 v 2.523065 c 0,0.07338 0.0254,0.136877 0.0762,0.190499 0.05362,0.0508 0.118531,0.0762 0.194733,0.0762 h 0.0508 l 0.0042,0.04233 h -0.9271 v -0.04233 h 0.05503 c 0.07338,0 0.135466,-0.0254 0.186266,-0.0762 0.05362,-0.0508 0.08184,-0.112889 0.08467,-0.186266 v -2.349498 c -0.0028,-0.07338 -0.03102,-0.135467 -0.08467,-0.186267 -0.0508,-0.05362 -0.112889,-0.08043 -0.186266,-0.08043 h -0.05503 v -0.04233 h 1.142999 c 0.256823,0 0.458612,0.07197 0.605367,0.2159 0.146755,0.141111 0.220133,0.325966 0.220133,0.554566 0,0.225777 -0.07056,0.421922 -0.211667,0.588433 -0.138289,0.163689 -0.307622,0.245533 -0.507999,0.245533 0.04233,0.01975 0.09172,0.05926 0.148166,0.118533 0.05927,0.05645 0.111478,0.115713 0.156633,0.1778 0.242711,0.347133 0.400756,0.561621 0.474133,0.643466 0.07338,0.07902 0.125589,0.134055 0.156634,0.1651 0.03105,0.02822 0.06491,0.05644 0.1016,0.08467 0.03669,0.02822 0.07337,0.0508 0.110066,0.06773 0.08185,0.03951 0.169334,0.05927 0.262467,0.05927 v 0.04233 h -0.232834 c -0.121355,0 -0.234244,-0.02117 -0.338666,-0.0635 -0.104422,-0.04515 -0.183444,-0.09031 -0.237066,-0.135467 -0.0508,-0.04798 -0.09596,-0.09313 -0.135467,-0.135466 -0.03669,-0.04515 -0.141109,-0.191909 -0.313266,-0.440267 -0.172156,-0.248355 -0.272345,-0.389466 -0.300567,-0.423333 -0.02822,-0.03669 -0.05785,-0.07196 -0.0889,-0.105833 -0.09031,-0.09596 -0.180622,-0.143933 -0.270933,-0.143933 v -0.04233 c 0.02258,0.0028 0.05221,0.0042 0.0889,0.0042 0.03669,0 0.08184,-0.0014 0.135467,-0.0042 0.349955,-0.0085 0.570088,-0.155222 0.660399,-0.440267 0.01693,-0.05645 0.0254,-0.108658 0.0254,-0.156633 v -0.09737 c -0.0057,-0.189089 -0.05506,-0.341488 -0.148166,-0.457199 -0.09313,-0.115711 -0.218722,-0.1778 -0.376767,-0.186267 -0.06773,-0.0028 -0.1524,-0.0042 -0.254,-0.0042 z m -3.766075,-0.275166 c 0.183444,-0.0762 0.359833,-0.1143 0.529166,-0.1143 0.141111,0 0.286456,0.05221 0.436033,0.156633 0.08185,0.05645 0.173567,0.166513 0.275167,0.3302 0.06773,0.112889 0.153811,0.317499 0.258233,0.613832 l 0.516466,1.464733 c 0.118533,0.327377 0.238478,0.587021 0.359833,0.778932 0.124177,0.194733 0.237066,0.340078 0.338666,0.436033 0.1016,0.09878 0.207433,0.167922 0.3175,0.207433 0.110067,0.03951 0.200378,0.05927 0.270933,0.05927 0.07338,0 0.138289,-0.0056 0.194733,-0.01693 l 0.0042,0.04233 c -0.135467,0.04515 -0.268111,0.06773 -0.397933,0.06773 -0.129822,0 -0.259644,-0.03387 -0.389467,-0.1016 -0.129822,-0.06491 -0.251177,-0.156635 -0.364066,-0.275166 -0.242711,-0.245533 -0.448733,-0.619478 -0.618066,-1.121833 l -0.1651,-0.482599 h -1.159932 l -0.2921,0.753533 c -0.01411,0.03387 -0.02117,0.06773 -0.02117,0.101599 0,0.03387 0.01411,0.07056 0.04233,0.110067 0.03105,0.03669 0.07761,0.05503 0.139699,0.05503 h 0.03387 v 0.04233 h -0.850899 v -0.04233 h 0.0381 c 0.06773,0 0.134055,-0.01976 0.198966,-0.05927 0.06491,-0.04233 0.118536,-0.104422 0.160867,-0.186267 L 68.68225,39.35078 c -0.1524,-0.217311 -0.341489,-0.325966 -0.567267,-0.325966 -0.1016,0 -0.210255,0.02117 -0.325966,0.0635 z m 0.452966,1.917698 h 1.071033 L 68.965921,39.97732 c -0.06491,-0.189089 -0.12418,-0.337255 -0.1778,-0.444499 z m -4.560348,1.015999 c -0.0085,-0.03951 -0.0127,-0.115713 -0.0127,-0.2286 0,-0.112889 0.02117,-0.232833 0.0635,-0.359833 h 0.0381 c -0.0028,0.03105 -0.0042,0.06209 -0.0042,0.09313 0,0.172155 0.05221,0.316088 0.156633,0.431799 0.104422,0.112889 0.242711,0.169333 0.414866,0.169333 0.1778,0 0.323145,-0.05362 0.436033,-0.160866 0.115712,-0.107245 0.173567,-0.2413 0.173567,-0.402166 0,-0.163689 -0.05503,-0.296334 -0.1651,-0.397933 L 63.95684,40.37102 c -0.1524,-0.141111 -0.2286,-0.311856 -0.2286,-0.512233 0,-0.200378 0.06632,-0.371122 0.198966,-0.512233 0.135467,-0.143933 0.3175,-0.2159 0.5461,-0.2159 0.107244,0 0.2286,0.01411 0.364066,0.04233 h 0.1651 v 0.5207 h -0.0381 c 0,-0.132644 -0.04657,-0.238477 -0.1397,-0.3175 -0.09031,-0.07902 -0.207432,-0.118533 -0.351366,-0.118533 -0.143933,0 -0.265289,0.04798 -0.364067,0.143933 -0.09596,0.09596 -0.143933,0.2159 -0.143933,0.359833 0,0.143933 0.05644,0.268111 0.169333,0.372533 l 0.833966,0.770466 c 0.141112,0.129823 0.211667,0.307623 0.211667,0.5334 0,0.225777 -0.07197,0.412044 -0.2159,0.558799 -0.143933,0.143933 -0.335844,0.2159 -0.575733,0.2159 -0.124177,0 -0.256821,-0.01976 -0.397933,-0.05927 -0.138288,-0.03669 -0.245533,-0.09454 -0.321733,-0.173567 z m -3.148005,-1.803398 c -0.01129,-0.03669 -0.01693,-0.06773 -0.01693,-0.09313 0,-0.02822 0.0014,-0.05926 0.0042,-0.09313 0.0028,-0.03387 0.0084,-0.08043 0.01693,-0.1397 0.01129,-0.05927 0.03104,-0.117122 0.05927,-0.173566 0.02822,-0.05927 0.06068,-0.115711 0.09737,-0.169333 0.03669,-0.05362 0.08325,-0.103009 0.1397,-0.148167 0.05927,-0.04515 0.124178,-0.08466 0.194733,-0.118533 0.149578,-0.07338 0.331612,-0.110067 0.5461,-0.110067 0.4318,0 0.783166,0.143933 1.054099,0.4318 0.273756,0.285044 0.410633,0.650521 0.410633,1.096432 0,0.445911 -0.160866,0.817033 -0.4826,1.113366 -0.321732,0.293511 -0.729543,0.440266 -1.223432,0.440266 -0.493888,0 -0.904521,-0.146755 -1.231899,-0.440266 -0.324555,-0.293511 -0.486833,-0.67451 -0.486833,-1.142999 0,-0.301977 0.07056,-0.570088 0.211667,-0.804333 0.141111,-0.234244 0.3429,-0.417688 0.605366,-0.550333 l 0.0254,0.0381 c -0.183444,0.121356 -0.316089,0.296334 -0.397933,0.524933 -0.07902,0.2286 -0.118533,0.471311 -0.118533,0.728133 0,0.476955 0.129822,0.849488 0.389466,1.117599 0.259644,0.268111 0.592666,0.402166 0.999066,0.402166 0.4064,0 0.73801,-0.134055 0.994832,-0.402166 0.259645,-0.270933 0.389467,-0.626533 0.389467,-1.066799 0,-0.381 -0.103011,-0.702733 -0.309033,-0.965199 -0.2032,-0.262467 -0.491066,-0.3937 -0.8636,-0.3937 -0.16651,0 -0.317499,0.02963 -0.452966,0.0889 -0.245533,0.104422 -0.407811,0.276577 -0.486833,0.516466 -0.02258,0.07055 -0.03387,0.131233 -0.03387,0.182033 0,0.0508 0.0028,0.09172 0.0085,0.122767 z m -1.137171,1.934631 h 0.03387 v 0.04233 h -0.952499 v -0.04233 h 0.0381 c 0.05927,0 0.103011,-0.01834 0.131233,-0.05503 0.03105,-0.03951 0.04657,-0.0762 0.04657,-0.110067 0,-0.03387 -0.0056,-0.06773 -0.01693,-0.101599 l -0.270933,-0.719666 h -1.142999 l -0.283633,0.723899 c -0.01129,0.03387 -0.01693,0.06773 -0.01693,0.1016 0,0.03105 0.01411,0.06632 0.04233,0.105833 0.03105,0.03669 0.0762,0.05503 0.135467,0.05503 h 0.0381 v 0.04233 h -0.8509 v -0.04233 h 0.0381 c 0.07056,0 0.139701,-0.02258 0.207433,-0.06773 0.06773,-0.04515 0.122767,-0.111475 0.1651,-0.198966 l 0.956733,-2.277532 c 0.104422,-0.2286 0.156633,-0.373944 0.156633,-0.436033 h 0.0381 l 1.134532,2.713565 c 0.03951,0.08749 0.09314,0.153811 0.160867,0.198966 0.06773,0.04515 0.138289,0.06773 0.211666,0.06773 z m -2.082798,-1.113365 h 1.041399 l -0.507999,-1.358899 z m -2.203976,1.113365 c 0.07338,0 0.135466,-0.0254 0.186266,-0.0762 0.05362,-0.05362 0.08184,-0.115709 0.08467,-0.186266 v -1.096433 h -1.731432 v 1.096433 c 0,0.07338 0.02681,0.135466 0.08043,0.186266 0.05362,0.0508 0.11712,0.0762 0.1905,0.0762 h 0.05503 v 0.04233 h -0.927099 v -0.04233 h 0.05503 c 0.07338,0 0.135467,-0.0254 0.186267,-0.0762 0.05362,-0.0508 0.08184,-0.112889 0.08467,-0.186266 v -2.353731 c -0.0028,-0.07338 -0.03102,-0.135467 -0.08467,-0.186267 -0.0508,-0.0508 -0.112889,-0.0762 -0.186267,-0.0762 h -0.05503 v -0.04233 h 0.927099 v 0.04233 h -0.05503 c -0.07338,0 -0.136878,0.0254 -0.1905,0.0762 -0.0508,0.0508 -0.07761,0.112889 -0.08043,0.186267 v 1.130299 h 1.731432 v -1.130299 c -0.0028,-0.1016 -0.04796,-0.1778 -0.135467,-0.2286 -0.04233,-0.02258 -0.08749,-0.03387 -0.135466,-0.03387 h -0.05503 v -0.04233 h 0.9271 v 0.04233 h -0.05503 c -0.07338,0 -0.136877,0.02681 -0.190499,0.08043 -0.0508,0.0508 -0.07761,0.112889 -0.08043,0.186267 v 2.349498 c 0.0028,0.07338 0.02961,0.135466 0.08043,0.186266 0.05362,0.0508 0.11712,0.0762 0.190499,0.0762 h 0.05503 v 0.04233 h -0.9271 v -0.04233 z m -3.897303,0.1016 c -0.445919,0 -0.809977,-0.145322 -1.092199,-0.427566 -0.279399,-0.282222 -0.419099,-0.653344 -0.419099,-1.113366 0,-0.462844 0.1397,-0.835377 0.419099,-1.117599 0.282222,-0.282222 0.654755,-0.423333 1.117599,-0.423333 0.378178,0 0.712611,0.09596 1.003299,0.287867 l 0.08467,0.596899 h -0.0381 c -0.06209,-0.242711 -0.187675,-0.428977 -0.376766,-0.558799 -0.189088,-0.132645 -0.413455,-0.198967 -0.6731,-0.198967 -0.36971,0 -0.666043,0.128411 -0.888999,0.385233 -0.220133,0.256822 -0.3302,0.5969 -0.3302,1.020233 0,0.423333 0.108656,0.764821 0.325967,1.024465 0.220133,0.256822 0.50941,0.389466 0.867832,0.397933 0.316089,0 0.579967,-0.08608 0.791633,-0.258233 0.2286,-0.186267 0.366889,-0.489655 0.414866,-0.910166 h 0.03387 l -0.0508,0.664633 c -0.256822,0.420511 -0.653344,0.630766 -1.189566,0.630766 z" />
    </g>
    <g
       aria-label="Your roleplaying portal to Chaos (EU)"
       id="text92731-5"
       style="font-weight:bold;font-size:1.49566px;line-height:1.25;font-family:'Roboto Condensed';-inkscape-font-specification:'Roboto Condensed,  Bold';letter-spacing:0.0412865px;fill:#ffffff;stroke-width:0.0934785"
       transform="translate(-0.2646545)">
      <path
         d="m 59.272883,44.736191 v -0.427759 l -0.261741,-0.783726 h 0.157045 l 0.185462,0.584803 0.18247,-0.584803 h 0.15854 l -0.260245,0.783726 v 0.427759 z"
         style="font-weight:normal;font-family:Oswald;-inkscape-font-specification:Oswald"
         id="path6566" />
      <path
         d="m 60.042554,44.748156 q -0.09572,0 -0.151062,-0.03889 -0.05534,-0.03889 -0.07927,-0.110679 -0.02244,-0.07179 -0.02244,-0.169009 V 44.17831 q 0,-0.09722 0.02244,-0.16901 0.02393,-0.07179 0.07927,-0.110679 0.05534,-0.03889 0.151062,-0.03889 0.09572,0 0.149566,0.03889 0.05534,0.03889 0.07777,0.110679 0.02393,0.07179 0.02393,0.16901 v 0.251271 q 0,0.09722 -0.02393,0.169009 -0.02244,0.07179 -0.07777,0.110679 -0.05384,0.03889 -0.149566,0.03889 z m 0,-0.118157 q 0.04636,0 0.06431,-0.02692 0.01944,-0.02692 0.02244,-0.0703 0.0045,-0.04487 0.0045,-0.09273 v -0.270714 q 0,-0.04936 -0.0045,-0.09273 -0.003,-0.04337 -0.02244,-0.0703 -0.01795,-0.02842 -0.06431,-0.02842 -0.04637,0 -0.06581,0.02842 -0.01944,0.02692 -0.02393,0.0703 -0.003,0.04337 -0.003,0.09273 v 0.270714 q 0,0.04786 0.003,0.09273 0.0045,0.04337 0.02393,0.0703 0.01944,0.02692 0.06581,0.02692 z"
         style="font-weight:normal;font-family:Oswald;-inkscape-font-specification:Oswald"
         id="path6568" />
      <path
         d="m 60.605824,44.748156 q -0.05085,0 -0.07927,-0.02692 -0.02842,-0.02692 -0.04038,-0.06731 -0.01047,-0.04038 -0.01047,-0.08226 v -0.699969 h 0.160036 v 0.652108 q 0,0.04637 0.01346,0.07329 0.01346,0.02543 0.05534,0.02543 0.02692,0 0.05534,-0.01496 0.02991,-0.01645 0.05683,-0.03889 v -0.696978 h 0.160036 v 0.864492 H 60.81671 v -0.08525 q -0.04188,0.04038 -0.09572,0.0688 -0.05235,0.02842 -0.115166,0.02842 z"
         style="font-weight:normal;font-family:Oswald;-inkscape-font-specification:Oswald"
         id="path6570" />
      <path
         d="m 61.185546,44.736191 v -0.864492 h 0.160036 v 0.122644 q 0.04786,-0.07927 0.09572,-0.106191 0.04786,-0.02692 0.09572,-0.02692 0.006,0 0.01047,0 0.006,0 0.01496,0.0015 v 0.176488 q -0.01795,-0.0075 -0.04188,-0.01196 -0.02244,-0.006 -0.04637,-0.006 -0.03739,0 -0.0688,0.01795 -0.02991,0.01645 -0.05983,0.06581 v 0.631169 z"
         style="font-weight:normal;font-family:Oswald;-inkscape-font-specification:Oswald"
         id="path6572" />
      <path
         d="m 62.090728,44.736191 v -0.864492 h 0.160036 v 0.122644 q 0.04786,-0.07927 0.09572,-0.106191 0.04786,-0.02692 0.09572,-0.02692 0.006,0 0.01047,0 0.006,0 0.01496,0.0015 v 0.176488 q -0.01795,-0.0075 -0.04188,-0.01196 -0.02244,-0.006 -0.04637,-0.006 -0.03739,0 -0.0688,0.01795 -0.02991,0.01645 -0.05983,0.06581 v 0.631169 z"
         style="font-weight:normal;font-family:Oswald;-inkscape-font-specification:Oswald"
         id="path6574" />
      <path
         d="m 62.845443,44.748156 q -0.09572,0 -0.151061,-0.03889 -0.05534,-0.03889 -0.07927,-0.110679 -0.02244,-0.07179 -0.02244,-0.169009 V 44.17831 q 0,-0.09722 0.02244,-0.16901 0.02393,-0.07179 0.07927,-0.110679 0.05534,-0.03889 0.151061,-0.03889 0.09572,0 0.149566,0.03889 0.05534,0.03889 0.07777,0.110679 0.02393,0.07179 0.02393,0.16901 v 0.251271 q 0,0.09722 -0.02393,0.169009 -0.02244,0.07179 -0.07777,0.110679 -0.05384,0.03889 -0.149566,0.03889 z m 0,-0.118157 q 0.04637,0 0.06431,-0.02692 0.01944,-0.02692 0.02244,-0.0703 0.0045,-0.04487 0.0045,-0.09273 v -0.270714 q 0,-0.04936 -0.0045,-0.09273 -0.003,-0.04337 -0.02244,-0.0703 -0.01795,-0.02842 -0.06431,-0.02842 -0.04637,0 -0.06581,0.02842 -0.01944,0.02692 -0.02393,0.0703 -0.003,0.04337 -0.003,0.09273 v 0.270714 q 0,0.04786 0.003,0.09273 0.0045,0.04337 0.02393,0.0703 0.01944,0.02692 0.06581,0.02692 z"
         style="font-weight:normal;font-family:Oswald;-inkscape-font-specification:Oswald"
         id="path6576" />
      <path
         d="m 63.299531,44.736191 v -1.211485 h 0.160036 v 1.211485 z"
         style="font-weight:normal;font-family:Oswald;-inkscape-font-specification:Oswald"
         id="path6578" />
      <path
         d="m 63.90767,44.748156 q -0.101705,0 -0.157044,-0.03889 -0.05534,-0.04038 -0.07777,-0.116662 -0.02094,-0.07777 -0.02094,-0.189948 v -0.197427 q 0,-0.115166 0.02243,-0.191445 0.02244,-0.07628 0.07777,-0.115166 0.05683,-0.03889 0.155549,-0.03889 0.109183,0 0.160036,0.04487 0.05235,0.04487 0.0688,0.130122 0.01645,0.08376 0.01645,0.201914 v 0.0703 h -0.34101 v 0.173497 q 0,0.05235 0.009,0.08525 0.01047,0.0329 0.03141,0.04936 0.02244,0.01496 0.05683,0.01496 0.0359,0 0.05384,-0.01645 0.01944,-0.01795 0.02543,-0.04936 0.0075,-0.03291 0.0075,-0.07628 v -0.05235 H 64.1515 v 0.0329 q 0,0.130122 -0.05534,0.204905 -0.05534,0.07478 -0.188453,0.07478 z m -0.09572,-0.527968 h 0.183966 v -0.07777 q 0,-0.05384 -0.006,-0.08974 -0.006,-0.03739 -0.02543,-0.05534 -0.01795,-0.01944 -0.05833,-0.01944 -0.03889,0 -0.05983,0.01795 -0.01944,0.01795 -0.02692,0.06132 -0.0075,0.04188 -0.0075,0.116662 z"
         style="font-weight:normal;font-family:Oswald;-inkscape-font-specification:Oswald"
         id="path6580" />
      <path
         d="m 64.339323,45.020366 v -1.148667 h 0.160036 v 0.0688 q 0.02842,-0.0329 0.0688,-0.05683 0.04038,-0.02393 0.09572,-0.02393 0.0673,0 0.106192,0.0359 0.04038,0.0344 0.05983,0.08824 0.01944,0.05235 0.02543,0.107687 0.006,0.05384 0.006,0.09273 v 0.209393 q 0,0.09124 -0.01795,0.173496 -0.01795,0.08077 -0.06581,0.131618 -0.04637,0.04936 -0.131618,0.04936 -0.04636,0 -0.08226,-0.02244 -0.0359,-0.02393 -0.06431,-0.05384 v 0.348489 z m 0.275201,-0.397845 q 0.04188,0 0.05983,-0.02991 0.01795,-0.03141 0.02244,-0.08376 0.0045,-0.05235 0.0045,-0.115165 v -0.209393 q 0,-0.05384 -0.006,-0.09871 -0.006,-0.04637 -0.02543,-0.07329 -0.01944,-0.02692 -0.06132,-0.02692 -0.03141,0 -0.05983,0.01346 -0.02842,0.01346 -0.04936,0.03141 v 0.553394 q 0.02243,0.01645 0.05085,0.02842 0.02842,0.01047 0.06431,0.01047 z"
         style="font-weight:normal;font-family:Oswald;-inkscape-font-specification:Oswald"
         id="path6582" />
      <path
         d="m 65.062629,44.736191 v -1.211485 h 0.160035 v 1.211485 z"
         style="font-weight:normal;font-family:Oswald;-inkscape-font-specification:Oswald"
         id="path6584" />
      <path
         d="m 65.587011,44.748156 q -0.05085,0 -0.08974,-0.02842 -0.03889,-0.02991 -0.06132,-0.07478 -0.02243,-0.04637 -0.02243,-0.09722 0,-0.08077 0.02692,-0.136105 0.02692,-0.05534 0.07329,-0.09273 0.04786,-0.03889 0.109184,-0.06731 0.06282,-0.02842 0.131618,-0.05534 v -0.06132 q 0,-0.05235 -0.006,-0.08675 -0.006,-0.0344 -0.02543,-0.05085 -0.01795,-0.01795 -0.05534,-0.01795 -0.0329,0 -0.05384,0.01496 -0.01944,0.01496 -0.02842,0.04337 -0.009,0.02692 -0.009,0.06431 v 0.04337 l -0.15854,-0.006 q 0.003,-0.143583 0.06581,-0.210888 0.06282,-0.0688 0.194436,-0.0688 0.128627,0 0.182471,0.0703 0.05384,0.0703 0.05384,0.20341 v 0.394854 q 0,0.04038 0.0015,0.07777 0.003,0.03739 0.006,0.0703 0.0045,0.03141 0.0075,0.05983 h -0.146575 q -0.0045,-0.02393 -0.01197,-0.05983 -0.006,-0.03739 -0.009,-0.0673 -0.01496,0.05085 -0.05833,0.09572 -0.04188,0.04337 -0.116661,0.04337 z m 0.06282,-0.137601 q 0.02393,0 0.04487,-0.01346 0.02094,-0.01346 0.03739,-0.02991 0.01645,-0.01795 0.02244,-0.02842 v -0.245289 q -0.03739,0.02094 -0.0703,0.04188 -0.0329,0.02094 -0.05833,0.04487 -0.02393,0.02244 -0.03889,0.05235 -0.01346,0.02842 -0.01346,0.06581 0,0.05235 0.01944,0.08226 0.01944,0.02991 0.05684,0.02991 z"
         style="font-weight:normal;font-family:Oswald;-inkscape-font-specification:Oswald"
         id="path6586" />
      <path
         d="m 66.096437,44.953061 v -0.122644 q 0.05833,0 0.09273,-0.006 0.0344,-0.0045 0.04936,-0.01944 0.01496,-0.01346 0.01496,-0.03889 0,-0.01346 -0.01047,-0.05983 -0.01047,-0.04637 -0.02243,-0.09871 L 66.04708,43.871699 h 0.161532 l 0.116661,0.646125 0.112175,-0.646125 h 0.161531 l -0.206401,0.912353 q -0.01346,0.06282 -0.04936,0.09871 -0.0359,0.03739 -0.09273,0.05384 -0.05534,0.01645 -0.134609,0.01645 z"
         style="font-weight:normal;font-family:Oswald;-inkscape-font-specification:Oswald"
         id="path6588" />
      <path
         d="m 66.74795,44.736191 v -0.864492 h 0.160036 v 0.864492 z m 0,-0.993118 v -0.167514 h 0.160036 v 0.167514 z"
         style="font-weight:normal;font-family:Oswald;-inkscape-font-specification:Oswald"
         id="path6590" />
      <path
         d="m 67.12127,44.736191 v -0.864492 h 0.160036 v 0.08525 q 0.04337,-0.04038 0.09572,-0.0688 0.05235,-0.02842 0.115166,-0.02842 0.05235,0 0.07927,0.02692 0.02842,0.02692 0.03889,0.0673 0.01197,0.04038 0.01197,0.08226 v 0.699969 h -0.160035 v -0.653604 q 0,-0.04636 -0.01346,-0.07179 -0.01346,-0.02543 -0.05534,-0.02543 -0.02692,0 -0.05683,0.01645 -0.02842,0.01496 -0.05534,0.03739 v 0.696978 z"
         style="font-weight:normal;font-family:Oswald;-inkscape-font-specification:Oswald"
         id="path6592" />
      <path
         d="m 68.0435,45.003914 q -0.07777,0 -0.140592,-0.01645 -0.06282,-0.01645 -0.09871,-0.05235 -0.0359,-0.0359 -0.0359,-0.09423 0,-0.04188 0.01795,-0.07329 0.01795,-0.03141 0.04637,-0.05384 0.02842,-0.02393 0.05983,-0.03889 -0.04188,-0.01197 -0.06282,-0.03739 -0.02094,-0.02692 -0.02094,-0.05534 0,-0.04786 0.02543,-0.08226 0.02543,-0.0344 0.0703,-0.07478 -0.04936,-0.03739 -0.07478,-0.09572 -0.02543,-0.05833 -0.02543,-0.161531 0,-0.101705 0.02692,-0.16901 0.02842,-0.0688 0.08226,-0.1032 0.05534,-0.0359 0.13461,-0.0359 0.0703,0 0.112174,0.02393 0.04337,0.02393 0.06581,0.07179 0.0075,-0.01196 0.04038,-0.04038 0.0329,-0.02991 0.07628,-0.04936 l 0.02393,-0.01047 0.04038,0.103201 q -0.01944,0.003 -0.05235,0.01496 -0.03141,0.01047 -0.05983,0.02243 -0.02692,0.01047 -0.0344,0.01795 0.01047,0.02543 0.01795,0.07329 0.009,0.04786 0.009,0.08525 0,0.08824 -0.02243,0.155549 -0.02244,0.0673 -0.07478,0.106191 -0.05085,0.03739 -0.142088,0.03739 -0.01944,0 -0.04188,-0.003 -0.02244,-0.003 -0.04038,-0.0075 -0.009,0.01346 -0.01944,0.03141 -0.009,0.01795 -0.009,0.0344 0,0.01645 0.01645,0.02692 0.01795,0.009 0.05534,0.01197 l 0.134609,0.01197 q 0.101705,0.009 0.151062,0.06132 0.04936,0.05235 0.04936,0.149566 0,0.0703 -0.0329,0.118157 -0.0329,0.04936 -0.100209,0.07329 -0.06581,0.02393 -0.167514,0.02393 z m 0.01197,-0.125636 q 0.08525,0 0.125636,-0.02094 0.04038,-0.01944 0.04038,-0.06431 0,-0.02692 -0.01047,-0.04487 -0.009,-0.01795 -0.0344,-0.02842 -0.02543,-0.01047 -0.07329,-0.01496 l -0.136105,-0.01197 q -0.01645,0.01645 -0.03141,0.0329 -0.01496,0.01645 -0.02393,0.0344 -0.009,0.01944 -0.009,0.04038 0,0.03889 0.0329,0.05833 0.0329,0.01944 0.119653,0.01944 z m -0.0075,-0.518994 q 0.0344,0 0.05384,-0.01197 0.02094,-0.01346 0.03141,-0.03739 0.01047,-0.02543 0.01346,-0.06132 0.0045,-0.0359 0.0045,-0.08077 0,-0.04487 -0.0045,-0.08077 -0.003,-0.03739 -0.01346,-0.06282 -0.009,-0.02692 -0.02991,-0.04038 -0.01944,-0.01346 -0.05384,-0.01346 -0.0329,0 -0.05534,0.01346 -0.02094,0.01346 -0.03141,0.03889 -0.01047,0.02393 -0.01496,0.06132 -0.0045,0.0359 -0.0045,0.08376 0,0.04038 0.003,0.07628 0.0045,0.0344 0.01496,0.05983 0.01196,0.02543 0.0329,0.04038 0.02094,0.01496 0.05384,0.01496 z"
         style="font-weight:normal;font-family:Oswald;-inkscape-font-specification:Oswald"
         id="path6594" />
      <path
         d="m 68.894838,45.020366 v -1.148667 h 0.160036 v 0.0688 q 0.02842,-0.0329 0.0688,-0.05683 0.04038,-0.02393 0.09572,-0.02393 0.0673,0 0.106192,0.0359 0.04038,0.0344 0.05983,0.08824 0.01944,0.05235 0.02543,0.107687 0.006,0.05384 0.006,0.09273 v 0.209393 q 0,0.09124 -0.01795,0.173496 -0.01795,0.08077 -0.06581,0.131618 -0.04637,0.04936 -0.131618,0.04936 -0.04637,0 -0.08226,-0.02244 -0.0359,-0.02393 -0.06431,-0.05384 v 0.348489 z m 0.275202,-0.397845 q 0.04188,0 0.05983,-0.02991 0.01795,-0.03141 0.02244,-0.08376 0.0045,-0.05235 0.0045,-0.115165 v -0.209393 q 0,-0.05384 -0.006,-0.09871 -0.006,-0.04637 -0.02543,-0.07329 -0.01944,-0.02692 -0.06132,-0.02692 -0.03141,0 -0.05983,0.01346 -0.02842,0.01346 -0.04936,0.03141 v 0.553394 q 0.02244,0.01645 0.05085,0.02842 0.02842,0.01047 0.06431,0.01047 z"
         style="font-weight:normal;font-family:Oswald;-inkscape-font-specification:Oswald"
         id="path6596" />
      <path
         d="m 69.840997,44.748156 q -0.09572,0 -0.151061,-0.03889 -0.05534,-0.03889 -0.07927,-0.110679 -0.02244,-0.07179 -0.02244,-0.169009 V 44.17831 q 0,-0.09722 0.02244,-0.16901 0.02393,-0.07179 0.07927,-0.110679 0.05534,-0.03889 0.151061,-0.03889 0.09572,0 0.149566,0.03889 0.05534,0.03889 0.07778,0.110679 0.02393,0.07179 0.02393,0.16901 v 0.251271 q 0,0.09722 -0.02393,0.169009 -0.02244,0.07179 -0.07778,0.110679 -0.05384,0.03889 -0.149566,0.03889 z m 0,-0.118157 q 0.04637,0 0.06431,-0.02692 0.01944,-0.02692 0.02244,-0.0703 0.0045,-0.04487 0.0045,-0.09273 v -0.270714 q 0,-0.04936 -0.0045,-0.09273 -0.003,-0.04337 -0.02244,-0.0703 -0.01795,-0.02842 -0.06431,-0.02842 -0.04637,0 -0.06581,0.02842 -0.01944,0.02692 -0.02393,0.0703 -0.003,0.04337 -0.003,0.09273 v 0.270714 q 0,0.04786 0.003,0.09273 0.0045,0.04337 0.02393,0.0703 0.01944,0.02692 0.06581,0.02692 z"
         style="font-weight:normal;font-family:Oswald;-inkscape-font-specification:Oswald"
         id="path6598" />
      <path
         d="m 70.284615,44.736191 v -0.864492 h 0.160036 v 0.122644 q 0.04786,-0.07927 0.09572,-0.106191 0.04786,-0.02692 0.09572,-0.02692 0.006,0 0.01047,0 0.006,0 0.01496,0.0015 v 0.176488 q -0.01795,-0.0075 -0.04188,-0.01196 -0.02244,-0.006 -0.04636,-0.006 -0.03739,0 -0.0688,0.01795 -0.02991,0.01645 -0.05983,0.06581 v 0.631169 z"
         style="font-weight:normal;font-family:Oswald;-inkscape-font-specification:Oswald"
         id="path6600" />
      <path
         d="m 71.031852,44.748156 q -0.06731,0 -0.109183,-0.02543 -0.04038,-0.02543 -0.05983,-0.07179 -0.01795,-0.04636 -0.01795,-0.109183 v -0.563864 h -0.09123 v -0.106192 h 0.09123 v -0.252766 h 0.160036 v 0.252766 h 0.139096 v 0.106192 H 71.00493 v 0.553394 q 0,0.05085 0.01645,0.07329 0.01645,0.02094 0.06282,0.02094 0.01197,0 0.02692,-0.0015 0.01645,-0.0015 0.03141,-0.003 v 0.118157 q -0.02991,0.0045 -0.05534,0.006 -0.02543,0.003 -0.05534,0.003 z"
         style="font-weight:normal;font-family:Oswald;-inkscape-font-specification:Oswald"
         id="path6602" />
      <path
         d="m 71.459017,44.748156 q -0.05085,0 -0.08974,-0.02842 -0.03889,-0.02991 -0.06132,-0.07478 -0.02244,-0.04637 -0.02244,-0.09722 0,-0.08077 0.02692,-0.136105 0.02692,-0.05534 0.07329,-0.09273 0.04786,-0.03889 0.109183,-0.06731 0.06282,-0.02842 0.131618,-0.05534 v -0.06132 q 0,-0.05235 -0.006,-0.08675 -0.006,-0.0344 -0.02543,-0.05085 -0.01795,-0.01795 -0.05534,-0.01795 -0.0329,0 -0.05384,0.01496 -0.01944,0.01496 -0.02842,0.04337 -0.009,0.02692 -0.009,0.06431 v 0.04337 l -0.15854,-0.006 q 0.003,-0.143583 0.06581,-0.210888 0.06282,-0.0688 0.194436,-0.0688 0.128626,0 0.18247,0.0703 0.05384,0.0703 0.05384,0.20341 v 0.394854 q 0,0.04038 0.0015,0.07777 0.003,0.03739 0.006,0.0703 0.0045,0.03141 0.0075,0.05983 H 71.65494 q -0.0045,-0.02393 -0.01197,-0.05983 -0.006,-0.03739 -0.009,-0.0673 -0.01496,0.05085 -0.05833,0.09572 -0.04188,0.04337 -0.116662,0.04337 z m 0.06282,-0.137601 q 0.02393,0 0.04487,-0.01346 0.02094,-0.01346 0.03739,-0.02991 0.01645,-0.01795 0.02244,-0.02842 v -0.245289 q -0.03739,0.02094 -0.0703,0.04188 -0.0329,0.02094 -0.05833,0.04487 -0.02393,0.02244 -0.03889,0.05235 -0.01346,0.02842 -0.01346,0.06581 0,0.05235 0.01944,0.08226 0.01944,0.02991 0.05683,0.02991 z"
         style="font-weight:normal;font-family:Oswald;-inkscape-font-specification:Oswald"
         id="path6604" />
      <path
         d="m 71.996861,44.736191 v -1.211485 h 0.160035 v 1.211485 z"
         style="font-weight:normal;font-family:Oswald;-inkscape-font-specification:Oswald"
         id="path6606" />
      <path
         d="m 72.979816,44.748156 q -0.06731,0 -0.109184,-0.02543 -0.04038,-0.02543 -0.05983,-0.07179 -0.01795,-0.04636 -0.01795,-0.109183 v -0.563864 h -0.09123 v -0.106192 h 0.09123 v -0.252766 h 0.160036 v 0.252766 h 0.139096 v 0.106192 h -0.139096 v 0.553394 q 0,0.05085 0.01645,0.07329 0.01645,0.02094 0.06282,0.02094 0.01197,0 0.02692,-0.0015 0.01645,-0.0015 0.03141,-0.003 v 0.118157 q -0.02991,0.0045 -0.05534,0.006 -0.02543,0.003 -0.05534,0.003 z"
         style="font-weight:normal;font-family:Oswald;-inkscape-font-specification:Oswald"
         id="path6608" />
      <path
         d="m 73.489241,44.748156 q -0.09572,0 -0.151061,-0.03889 -0.05534,-0.03889 -0.07927,-0.110679 -0.02244,-0.07179 -0.02244,-0.169009 V 44.17831 q 0,-0.09722 0.02244,-0.16901 0.02393,-0.07179 0.07927,-0.110679 0.05534,-0.03889 0.151061,-0.03889 0.09572,0 0.149566,0.03889 0.05534,0.03889 0.07778,0.110679 0.02393,0.07179 0.02393,0.16901 v 0.251271 q 0,0.09722 -0.02393,0.169009 -0.02244,0.07179 -0.07778,0.110679 -0.05384,0.03889 -0.149566,0.03889 z m 0,-0.118157 q 0.04637,0 0.06431,-0.02692 0.01944,-0.02692 0.02244,-0.0703 0.0045,-0.04487 0.0045,-0.09273 v -0.270714 q 0,-0.04936 -0.0045,-0.09273 -0.003,-0.04337 -0.02244,-0.0703 -0.01795,-0.02842 -0.06431,-0.02842 -0.04637,0 -0.06581,0.02842 -0.01944,0.02692 -0.02393,0.0703 -0.003,0.04337 -0.003,0.09273 v 0.270714 q 0,0.04786 0.003,0.09273 0.0045,0.04337 0.02393,0.0703 0.01944,0.02692 0.06581,0.02692 z"
         style="font-weight:normal;font-family:Oswald;-inkscape-font-specification:Oswald"
         id="path6610" />
      <path
         d="m 74.629242,44.749652 q -0.128627,0 -0.200418,-0.05384 -0.0703,-0.05384 -0.09871,-0.145079 -0.02692,-0.09123 -0.02692,-0.20341 V 43.91956 q 0,-0.122644 0.02692,-0.213879 0.02842,-0.09123 0.09871,-0.140592 0.07179,-0.05085 0.200418,-0.05085 0.11367,0 0.179479,0.04188 0.0673,0.04188 0.09572,0.119653 0.02991,0.07777 0.02991,0.186957 v 0.09572 h -0.160036 v -0.08525 q 0,-0.06731 -0.0075,-0.118157 -0.006,-0.05235 -0.0359,-0.08077 -0.02991,-0.02842 -0.100209,-0.02842 -0.07179,0 -0.104696,0.03141 -0.0329,0.02991 -0.04337,0.08675 -0.009,0.05534 -0.009,0.130122 v 0.480107 q 0,0.09124 0.01496,0.145079 0.01496,0.05235 0.04936,0.07478 0.0344,0.02244 0.09273,0.02244 0.0688,0 0.09871,-0.02991 0.02991,-0.03141 0.03739,-0.08525 0.0075,-0.05384 0.0075,-0.125635 v -0.08974 h 0.160036 v 0.08974 q 0,0.110679 -0.02692,0.195931 -0.02692,0.08376 -0.09273,0.131618 -0.06581,0.04637 -0.185462,0.04637 z"
         style="font-weight:normal;font-family:Oswald;-inkscape-font-specification:Oswald"
         id="path6612" />
      <path
         d="m 75.1282,44.736191 v -1.211485 h 0.160036 v 0.436733 q 0.04337,-0.04188 0.09722,-0.07179 0.05384,-0.02991 0.119653,-0.02991 0.05085,0 0.07777,0.02692 0.02842,0.02692 0.03889,0.0673 0.01197,0.04038 0.01197,0.08226 v 0.699969 h -0.160035 v -0.653604 q 0,-0.04636 -0.01346,-0.07179 -0.01346,-0.02543 -0.05534,-0.02543 -0.02842,0 -0.05983,0.01645 -0.02991,0.01645 -0.05684,0.04038 v 0.693986 z"
         style="font-weight:normal;font-family:Oswald;-inkscape-font-specification:Oswald"
         id="path6614" />
      <path
         d="m 75.986116,44.748156 q -0.05085,0 -0.08974,-0.02842 -0.03889,-0.02991 -0.06132,-0.07478 -0.02244,-0.04637 -0.02244,-0.09722 0,-0.08077 0.02692,-0.136105 0.02692,-0.05534 0.07329,-0.09273 0.04786,-0.03889 0.109183,-0.06731 0.06282,-0.02842 0.131618,-0.05534 v -0.06132 q 0,-0.05235 -0.006,-0.08675 -0.006,-0.0344 -0.02543,-0.05085 -0.01795,-0.01795 -0.05534,-0.01795 -0.03291,0 -0.05384,0.01496 -0.01944,0.01496 -0.02842,0.04337 -0.009,0.02692 -0.009,0.06431 v 0.04337 l -0.15854,-0.006 q 0.003,-0.143583 0.06581,-0.210888 0.06282,-0.0688 0.194436,-0.0688 0.128627,0 0.182471,0.0703 0.05384,0.0703 0.05384,0.20341 v 0.394854 q 0,0.04038 0.0015,0.07777 0.003,0.03739 0.006,0.0703 0.0045,0.03141 0.0075,0.05983 h -0.146575 q -0.0045,-0.02393 -0.01197,-0.05983 -0.006,-0.03739 -0.009,-0.0673 -0.01496,0.05085 -0.05833,0.09572 -0.04188,0.04337 -0.116661,0.04337 z m 0.06282,-0.137601 q 0.02393,0 0.04487,-0.01346 0.02094,-0.01346 0.03739,-0.02991 0.01645,-0.01795 0.02244,-0.02842 v -0.245289 q -0.03739,0.02094 -0.0703,0.04188 -0.0329,0.02094 -0.05833,0.04487 -0.02393,0.02244 -0.03889,0.05235 -0.01346,0.02842 -0.01346,0.06581 0,0.05235 0.01944,0.08226 0.01944,0.02991 0.05684,0.02991 z"
         style="font-weight:normal;font-family:Oswald;-inkscape-font-specification:Oswald"
         id="path6616" />
      <path
         d="m 76.746813,44.748156 q -0.09572,0 -0.151061,-0.03889 -0.05534,-0.03889 -0.07927,-0.110679 -0.02244,-0.07179 -0.02244,-0.169009 V 44.17831 q 0,-0.09722 0.02244,-0.16901 0.02393,-0.07179 0.07927,-0.110679 0.05534,-0.03889 0.151061,-0.03889 0.09572,0 0.149566,0.03889 0.05534,0.03889 0.07778,0.110679 0.02393,0.07179 0.02393,0.16901 v 0.251271 q 0,0.09722 -0.02393,0.169009 -0.02244,0.07179 -0.07778,0.110679 -0.05384,0.03889 -0.149566,0.03889 z m 0,-0.118157 q 0.04637,0 0.06431,-0.02692 0.01944,-0.02692 0.02244,-0.0703 0.0045,-0.04487 0.0045,-0.09273 v -0.270714 q 0,-0.04936 -0.0045,-0.09273 -0.003,-0.04337 -0.02244,-0.0703 -0.01795,-0.02842 -0.06431,-0.02842 -0.04637,0 -0.06581,0.02842 -0.01944,0.02692 -0.02393,0.0703 -0.003,0.04337 -0.003,0.09273 v 0.270714 q 0,0.04786 0.003,0.09273 0.0045,0.04337 0.02393,0.0703 0.01944,0.02692 0.06581,0.02692 z"
         style="font-weight:normal;font-family:Oswald;-inkscape-font-specification:Oswald"
         id="path6618" />
      <path
         d="m 77.386363,44.748156 q -0.106192,0 -0.170505,-0.06581 -0.06431,-0.0673 -0.07329,-0.176488 l 0.133114,-0.04038 q 0.01197,0.08226 0.04038,0.12414 0.02842,0.04038 0.08376,0.04038 0.04337,0 0.06581,-0.02393 0.02244,-0.02543 0.02244,-0.0673 0,-0.03739 -0.01645,-0.0673 -0.01645,-0.02991 -0.05384,-0.06132 l -0.148071,-0.127131 q -0.04487,-0.03889 -0.07628,-0.08675 -0.02991,-0.04786 -0.02991,-0.12414 0,-0.0688 0.02692,-0.115166 0.02842,-0.04786 0.07778,-0.07179 0.05085,-0.02543 0.118157,-0.02543 0.1032,0 0.157044,0.0673 0.05534,0.06581 0.06282,0.160035 l -0.107688,0.04038 q -0.006,-0.04487 -0.01795,-0.07777 -0.01196,-0.0344 -0.0329,-0.05235 -0.02094,-0.01944 -0.05534,-0.01944 -0.03889,0 -0.06282,0.02692 -0.02244,0.02543 -0.02244,0.06132 0,0.02243 0.009,0.04487 0.01047,0.02094 0.0344,0.04188 l 0.152557,0.140592 q 0.03141,0.02842 0.05833,0.06132 0.02842,0.0329 0.04637,0.07478 0.01795,0.04188 0.01795,0.09722 0,0.07329 -0.02991,0.122645 -0.02991,0.04936 -0.08376,0.07478 -0.05384,0.02393 -0.125635,0.02393 z"
         style="font-weight:normal;font-family:Oswald;-inkscape-font-specification:Oswald"
         id="path6620" />
      <path
         d="m 78.490467,45.026349 q -0.08525,-0.0015 -0.140592,-0.04487 -0.05384,-0.04188 -0.08525,-0.116661 -0.03141,-0.07478 -0.04637,-0.170506 -0.01346,-0.09572 -0.01645,-0.204905 -0.003,-0.109183 -0.003,-0.218366 0,-0.110679 0.003,-0.218367 0.003,-0.109183 0.01645,-0.204905 0.01496,-0.09722 0.04637,-0.172001 0.03141,-0.07478 0.08525,-0.118157 0.05534,-0.04337 0.140592,-0.04337 v 0.107687 q -0.05235,0.0015 -0.08077,0.05983 -0.02842,0.05683 -0.04038,0.151061 -0.01197,0.09423 -0.01496,0.209393 -0.0015,0.11367 -0.0015,0.228836 0,0.116661 0.0015,0.231827 0.003,0.11367 0.01496,0.207897 0.01196,0.09423 0.04038,0.151061 0.02842,0.05683 0.08077,0.05833 z"
         style="font-weight:normal;font-family:Oswald;-inkscape-font-specification:Oswald"
         id="path6622" />
      <path
         d="m 78.670847,44.736191 v -1.211485 h 0.469637 v 0.125636 h -0.300628 v 0.400837 h 0.243793 v 0.119652 h -0.243793 v 0.444211 h 0.303619 v 0.121149 z"
         style="font-weight:normal;font-family:Oswald;-inkscape-font-specification:Oswald"
         id="path6624" />
      <path
         d="m 79.63346,44.749652 q -0.131618,0 -0.201914,-0.05235 -0.0703,-0.05235 -0.09572,-0.146575 -0.02543,-0.09572 -0.02543,-0.222853 v -0.80317 h 0.161531 v 0.810648 q 0,0.07777 0.01047,0.142088 0.01047,0.06431 0.04487,0.101705 0.0359,0.03739 0.106192,0.03739 0.07179,0 0.106192,-0.03739 0.0344,-0.03739 0.04487,-0.101705 0.01047,-0.06431 0.01047,-0.142088 v -0.810648 h 0.160036 v 0.80317 q 0,0.127131 -0.02543,0.222853 -0.02543,0.09423 -0.09572,0.146575 -0.0688,0.05235 -0.200419,0.05235 z"
         style="font-weight:normal;font-family:Oswald;-inkscape-font-specification:Oswald"
         id="path6626" />
      <path
         d="m 80.123443,45.026349 v -0.107688 q 0.05384,-0.0015 0.08226,-0.05983 0.02842,-0.05683 0.04038,-0.151062 0.01197,-0.09423 0.01346,-0.209392 0.003,-0.115166 0.003,-0.230332 0,-0.116661 -0.003,-0.230331 -0.0015,-0.115166 -0.01346,-0.207897 -0.01197,-0.09423 -0.04038,-0.151062 -0.02842,-0.05683 -0.08226,-0.05833 v -0.106191 q 0.08675,0 0.140592,0.04337 0.05534,0.04188 0.08675,0.116661 0.03141,0.07478 0.04487,0.172001 0.01496,0.09572 0.01795,0.20341 0.003,0.107687 0.003,0.218366 0,0.110679 -0.003,0.219862 -0.003,0.107688 -0.01795,0.204906 -0.01346,0.09722 -0.04487,0.172001 -0.03141,0.07478 -0.08675,0.116661 -0.05384,0.04337 -0.140592,0.04487 z"
         style="font-weight:normal;font-family:Oswald;-inkscape-font-specification:Oswald"
         id="path6628" />
    </g>
  </g>
</svg>
