<?xml version="1.0" encoding="UTF-8" standalone="no"?>
<!-- Created with Inkscape (http://www.inkscape.org/) -->

<svg
   viewBox="0 0 39.585941 7.4344358"
   version="1.1"
   id="svg5"
   xmlns="http://www.w3.org/2000/svg"
   xmlns:svg="http://www.w3.org/2000/svg">
  <defs
     id="defs2" />
  <g
     id="layer1"
     transform="translate(-49.65625,-37.591913)">
    <g
       aria-label="chaOs ArchiVes"
       id="text2630-7"
       style="font-size:4.23333px;line-height:1.25;font-family:'Cinzel Decorative';-inkscape-font-specification:'Cinzel Decorative';letter-spacing:0.129646px;fill:#ffffff;stroke-width:0.264583">
      <path
         id="path2322"
         d="m 85.646301,38.12108 c -0.08629,0 -0.19544,0.01971 -0.329695,0.05684 -0.135223,0.0374 -0.254259,0.08895 -0.353467,0.156063 -0.25771,0.173737 -0.467099,0.461504 -0.635104,0.857312 l -1.023194,2.443262 -0.857829,-2.152324 c -0.01328,-0.03198 -0.01757,-0.05589 -0.01757,-0.07183 -3e-6,-0.01894 0.0034,-0.03456 0.0083,-0.04909 0.02511,-0.07031 0.0634,-0.09767 0.138493,-0.09767 h 0.03927 a 0.03032923,0.03032923 0 0 0 0.03101,-0.03101 v -0.04341 a 0.03032923,0.03032923 0 0 0 -0.03101,-0.03101 h -0.953428 a 0.03032923,0.03032923 0 0 0 -0.03101,0.03101 v 0.04341 a 0.03032923,0.03032923 0 0 0 0.03101,0.03101 h 0.03307 c 0.0639,0 0.1281,0.02012 0.191719,0.06253 a 0.03032923,0.03032923 0 0 0 0.0021,0 c 0.06473,0.03884 0.114355,0.09757 0.151929,0.183452 l 1.18959,2.71508 a 0.03032923,0.03032923 0 0 0 0.02739,0.01964 h 0.03927 a 0.03032923,0.03032923 0 0 0 0.03101,-0.03152 c 0,-0.02261 0.01166,-0.07344 0.03721,-0.144694 0.02554,-0.07125 0.06324,-0.16523 0.115237,-0.279053 l 1.175639,-2.572453 v -0.0016 c 0.04994,-0.108109 0.09664,-0.198092 0.13281,-0.267684 v -0.0021 c 0.03875,-0.06907 0.0926,-0.152577 0.162263,-0.250114 0.0693,-0.09979 0.140373,-0.179244 0.210839,-0.236161 0.07315,-0.0596 0.166087,-0.111782 0.279569,-0.156063 0.112234,-0.04651 0.233328,-0.07092 0.362771,-0.07648 a 0.03032923,0.03032923 0 0 0 0.02946,-0.03101 v -0.04289 a 0.03032923,0.03032923 0 0 0 -0.03101,-0.03152 z m -17.341577,0.779281 c -0.173995,0 -0.354632,0.04194 -0.541052,0.119372 a 0.03032923,0.03032923 0 0 0 -0.01757,0.03669 l 0.01344,0.04134 a 0.03032923,0.03032923 0 0 0 0.03927,0.01964 c 0.112868,-0.04129 0.218674,-0.06098 0.31626,-0.06098 0.211493,0 0.38477,0.09812 0.531234,0.300757 l -1.040763,2.496489 c -0.04014,0.07705 -0.09055,0.132549 -0.150379,0.171565 -0.06136,0.03735 -0.120452,0.05478 -0.181901,0.05478 h -0.03876 a 0.03032923,0.03032923 0 0 0 -0.03152,0.03152 v 0.04082 a 0.03032923,0.03032923 0 0 0 0.03152,0.03101 h 0.851628 a 0.03032923,0.03032923 0 0 0 0.03101,-0.03101 v -0.04082 a 0.03032923,0.03032923 0 0 0 -0.03101,-0.03152 h -0.03514 c -0.05623,0 -0.09047,-0.01363 -0.115239,-0.04289 -0.02457,-0.03512 -0.03514,-0.06749 -0.03514,-0.09198 0,-0.02947 0.0048,-0.0592 0.01757,-0.08992 l 0.286804,-0.734322 h 1.115178 l 0.15813,0.463021 c 0.170249,0.505073 0.377778,0.882363 0.625284,1.132747 0.115044,0.120794 0.239863,0.215017 0.373104,0.281637 0.133457,0.06963 0.266952,0.105419 0.402043,0.105419 0.133437,0 0.27008,-0.02423 0.408244,-0.07028 a 0.03032923,0.03032923 0 0 0 0.01964,-0.03152 l -0.0036,-0.04289 a 0.03032923,0.03032923 0 0 0 -0.03566,-0.02739 c -0.05412,0.01086 -0.117478,0.0155 -0.189136,0.0155 -0.06509,0 -0.154005,-0.01756 -0.262,-0.05633 -0.105297,-0.0378 -0.205201,-0.103051 -0.304374,-0.199471 -0.09861,-0.09313 -0.21253,-0.238038 -0.335896,-0.431499 -0.119598,-0.189131 -0.237485,-0.445489 -0.355534,-0.771529 L 69.304663,40.023289 C 69.199977,39.726208 69.11348,39.519312 69.04318,39.402139 68.940465,39.236656 68.848254,39.123497 68.759993,39.062625 68.60664,38.955566 68.453259,38.900361 68.304724,38.900361 Z m 18.550804,0.185518 c -0.08088,0.03463 -0.258106,0.04891 -0.212904,0.04909 -0.100172,0.01666 -0.194043,0.02325 -0.27957,0.02325 H 85.12282 a 0.03032923,0.03032923 0 0 0 -0.02894,0.03307 l 0.0036,0.04289 a 0.03032923,0.03032923 0 0 0 0.02946,0.02946 h 0.05064 c 0.06669,0 0.123666,0.02127 0.172082,0.0646 0.04809,0.04049 0.06821,0.08435 0.06821,0.144178 v 2.371431 c -0.003,0.06562 -0.02568,0.121797 -0.0739,0.170016 -0.04546,0.04546 -0.100007,0.06615 -0.166396,0.06615 h -0.05478 a 0.03032923,0.03032923 0 0 0 -0.03101,0.03152 v 0.04082 a 0.03032923,0.03032923 0 0 0 0.03101,0.03101 h 1.758032 a 0.03032923,0.03032923 0 0 0 0.02945,-0.02119 l 0.243914,-0.685746 a 0.03032923,0.03032923 0 0 0 -0.02946,-0.04082 h -0.04082 a 0.03032923,0.03032923 0 0 0 -0.02739,0.01964 c -0.0721,0.180255 -0.162655,0.315242 -0.267684,0.40411 -0.102751,0.08694 -0.254453,0.130741 -0.458886,0.130741 h -0.574098 v -1.203032 h 0.685747 c 0.0494,0.0025 0.08927,0.02069 0.120923,0.05478 0.03453,0.03453 0.04858,0.07131 0.04858,0.120923 v 0.0646 a 0.03032923,0.03032923 0 0 0 0.03152,0.03101 h 0.04289 a 0.03032923,0.03032923 0 0 0 0.03153,-0.03101 v -0.669727 a 0.03032923,0.03032923 0 0 0 -0.03153,-0.03152 h -0.04289 a 0.03032923,0.03032923 0 0 0 -0.03152,0.03152 v 0.06046 c 0,0.05276 -0.0146,0.09263 -0.04858,0.126608 -0.0339,0.03392 -0.07384,0.04987 -0.122989,0.05271 h -0.683681 v -1.245919 h 0.829924 c 0.05779,0.0025 0.106524,0.0239 0.146762,0.06666 0.04294,0.04294 0.06253,0.09145 0.06253,0.151929 v 0.07648 a 0.03032923,0.03032923 0 0 0 0.03101,0.03101 h 0.04134 a 0.03032923,0.03032923 0 0 0 0.03101,-0.03101 v -0.533304 a 0.03032923,0.03032923 0 0 0 -0.04289,-0.02739 z m -35.630898,0.01395 c -0.469029,0 -0.850889,0.145505 -1.138949,0.433565 -0.2852,0.28808 -0.429431,0.66945 -0.429431,1.138432 0,0.466198 0.144259,0.84676 0.429431,1.134814 0.287747,0.28777 0.661111,0.437699 1.113627,0.437699 0.07778,0 0.144793,-0.01754 0.205672,-0.04341 0.38975,-0.04345 0.694173,-0.214966 0.91364,-0.514697 0.0368,-0.02043 0.07061,-0.04745 0.0956,-0.08837 a 0.03032923,0.03032923 0 0 0 0.0036,-0.01395 L 52.46898,40.91987 A 0.03032923,0.03032923 0 0 0 52.43953,40.8868 H 52.40646 A 0.03032923,0.03032923 0 0 0 52.377,40.91419 c -0.04489,0.393478 -0.180914,0.661157 -0.382922,0.843876 -0.04987,0.04162 -0.122559,0.06078 -0.191203,0.09922 v 0.0021 c -0.182252,0.104434 -0.364681,0.195336 -0.603581,0.195337 -0.351302,-0.0083 -0.628897,-0.135731 -0.843876,-0.38654 -0.212136,-0.253461 -0.318327,-0.585938 -0.318327,-1.004073 0,-0.418082 0.107721,-0.751476 0.322461,-1.002006 0.217514,-0.250553 0.502351,-0.373104 0.865064,-0.373104 0.254462,0 0.47256,0.06438 0.65629,0.19327 0.183117,0.125721 0.304778,0.304262 0.365353,0.541052 a 0.03032923,0.03032923 0 0 0 0.02894,0.02377 h 0.03721 a 0.03032923,0.03032923 0 0 0 0.02946,-0.03514 l -0.08423,-0.597897 a 0.03032923,0.03032923 0 0 0 -0.01137,-0.0217 C 51.950492,39.197051 51.607898,39.099832 51.22463,39.099832 Z m 6.613033,0 c -0.04181,-0.0062 -0.03709,0.07395 -0.02687,0.150378 -0.0065,0.02 -0.01372,0.04113 -0.02274,0.06511 -0.0063,-0.01339 -0.0102,-0.02079 -0.0186,-0.03979 -0.02554,0.07125 -0.06325,0.16523 -0.115239,0.279053 l -0.957047,2.277381 c -0.04042,0.083 -0.09193,0.144141 -0.153996,0.185518 -0.06384,0.04256 -0.125742,0.06253 -0.189652,0.06253 h -0.03927 a 0.03032923,0.03032923 0 0 0 -0.03101,0.03152 v 0.04082 a 0.03032923,0.03032923 0 0 0 0.03101,0.03101 h 0.851628 a 0.03032923,0.03032923 0 0 0 0.03152,-0.03101 v -0.04082 a 0.03032923,0.03032923 0 0 0 -0.03152,-0.03152 h -0.03876 c -0.05313,0 -0.08663,-0.01336 -0.111621,-0.04289 -0.02452,-0.03514 -0.03514,-0.06697 -0.03514,-0.08785 0,-0.03012 0.0051,-0.06066 0.0155,-0.09198 l 0.275436,-0.701249 h 1.099674 l 0.26355,0.697632 c 0.01047,0.03129 0.01602,0.06133 0.01602,0.09147 0,0.02442 -0.01096,0.05596 -0.03927,0.09198 a 0.03032923,0.03032923 0 0 0 0,0.0021 c -0.02199,0.02859 -0.05436,0.04082 -0.107487,0.04082 h -0.03876 a 0.03032923,0.03032923 0 0 0 -0.03152,0.03152 v 0.04082 a 0.03032923,0.03032923 0 0 0 0.03152,0.03101 h 0.952913 a 0.03032923,0.03032923 0 0 0 0.03152,-0.03101 v -0.04082 a 0.03032923,0.03032923 0 0 0 -0.03152,-0.03152 h -0.03307 c -0.06698,0 -0.131845,-0.0202 -0.195337,-0.06253 -0.06235,-0.04157 -0.112673,-0.102026 -0.150378,-0.185518 l -1.134815,-2.713013 a 0.03032923,0.03032923 0 0 0 -0.02739,-0.01912 z m 3.724837,0 c -0.217881,0 -0.40586,0.03721 -0.56069,0.113171 -0.07257,0.03484 -0.136196,0.07676 -0.196887,0.12299 a 0.03032923,0.03032923 0 0 0 -0.0021,0 c -0.05844,0.04675 -0.108112,0.09751 -0.146761,0.153996 -0.0376,0.05495 -0.07033,0.113475 -0.09922,0.174149 -0.02939,0.05876 -0.04917,0.117856 -0.06098,0.179834 a 0.03032923,0.03032923 0 0 0 0,0.0016 c -0.0086,0.05946 -0.01466,0.107385 -0.01757,0.142626 -0.0029,0.03476 -0.0057,0.06659 -0.0057,0.0956 0,0.0304 0.0079,0.06374 0.01964,0.101802 a 0.03032923,0.03032923 0 0 0 0.03514,0.01964 l 0.04082,-0.0078 a 0.03032923,0.03032923 0 0 0 0.02377,-0.03514 c -0.0051,-0.02767 -0.0062,-0.06735 -0.0062,-0.117305 -1e-6,-0.04657 0.0096,-0.10368 0.03152,-0.172083 0.07649,-0.232188 0.231889,-0.398117 0.470772,-0.499711 0.131162,-0.05739 0.278282,-0.08423 0.441317,-0.08423 0.365473,1e-6 0.64205,0.125503 0.839742,0.380856 0.201571,0.256796 0.300757,0.57167 0.300757,0.947229 0,0.43434 -0.124832,0.779901 -0.378789,1.044897 -0.251265,0.26231 -0.574895,0.392741 -0.974617,0.392741 -0.399722,-10e-7 -0.722509,-0.130277 -0.976685,-0.392741 -0.253434,-0.261698 -0.380855,-0.624137 -0.380855,-1.09554 0,-0.253663 0.03942,-0.493497 0.117306,-0.718819 0.07998,-0.223407 0.20868,-0.391869 0.386539,-0.50953 a 0.03032923,0.03032923 0 0 0 0.0078,-0.04289 l -0.02532,-0.03721 a 0.03032923,0.03032923 0 0 0 -0.03876,-0.0098 c -0.266842,0.134856 -0.473406,0.321438 -0.617533,0.560689 -0.144045,0.239124 -0.218592,0.513322 -0.218592,0.820105 0,0.475555 0.169247,0.866966 0.499712,1.165821 0.332959,0.298514 0.750112,0.449584 1.250052,0.449584 0.499945,0 0.916931,-0.152419 1.244369,-0.451135 a 0.03032923,0.03032923 0 0 0 0.0021,0 c 0.327312,-0.30147 0.49196,-0.681617 0.49196,-1.134814 0,-0.452095 -0.140391,-0.826509 -0.419613,-1.117245 -0.276464,-0.293743 -0.637888,-0.441316 -1.07642,-0.441316 z m 2.9099,0 c -0.234871,0 -0.425082,0.07415 -0.566374,0.224275 -0.13761,0.146391 -0.208773,0.328273 -0.208773,0.535368 0,0.208057 0.0806,0.387349 0.238229,0.533301 l 0.812353,0.753959 c 0.10413,0.09612 0.15658,0.219941 0.15658,0.376721 0,0.15356 -0.05402,0.276554 -0.164331,0.378789 -0.107113,0.101759 -0.244435,0.152445 -0.415996,0.152445 -0.165457,0 -0.293355,-0.05331 -0.392224,-0.160197 -0.09816,-0.109765 -0.146761,-0.245274 -0.146761,-0.410311 0,-0.03032 -6.31e-4,-0.06154 0.0021,-0.09147 a 0.03032923,0.03032923 0 0 0 -0.02946,-0.03359 h -0.03721 a 0.03032923,0.03032923 0 0 0 -0.02894,0.0217 c -0.04316,0.129495 -0.06666,0.254186 -0.06666,0.371037 0,0.113813 0.0059,0.189744 0.0155,0.234611 a 0.03032923,0.03032923 0 0 0 0.0083,0.0155 c 0.08096,0.08396 0.191835,0.14216 0.33383,0.179834 0.14319,0.04009 0.278575,0.06253 0.406177,0.06253 0.24603,0 0.448029,-0.07699 0.597896,-0.226859 0.149416,-0.152348 0.224276,-0.347683 0.224276,-0.57981 0,-0.23203 -0.07307,-0.419226 -0.220658,-0.555004 L 64.15614,40.113206 c -0.107796,-0.09971 -0.160197,-0.215477 -0.160197,-0.351399 0,-0.137111 0.0442,-0.247286 0.134875,-0.337964 0.0936,-0.09092 0.204473,-0.134876 0.341582,-0.134876 0.138299,0 0.247935,0.03782 0.332279,0.111621 0.08693,0.07376 0.128674,0.167602 0.128674,0.293006 a 0.03032923,0.03032923 0 0 0 0.03152,0.03101 h 0.03721 a 0.03032923,0.03032923 0 0 0 0.03101,-0.03101 v -0.519865 a 0.03032923,0.03032923 0 0 0 -0.03101,-0.03101 h -0.164331 c -0.134484,-0.02768 -0.257022,-0.04289 -0.365352,-0.04289 z m 10.539408,0 c -0.469031,0 -0.850889,0.145505 -1.138949,0.433565 -0.285199,0.28808 -0.429431,0.66945 -0.429431,1.138432 0,0.466198 0.144259,0.84676 0.429431,1.134814 0.287819,0.287841 0.661351,0.43486 1.113627,0.437699 0.07778,0 0.144793,-0.01754 0.205673,-0.04341 0.389791,-0.04345 0.694167,-0.214905 0.913639,-0.514697 0.0368,-0.02043 0.07062,-0.04745 0.0956,-0.08837 a 0.03032923,0.03032923 0 0 0 0.0036,-0.01395 l 0.05064,-0.664042 a 0.03032923,0.03032923 0 0 0 -0.02894,-0.03307 h -0.03359 a 0.03032923,0.03032923 0 0 0 -0.02894,0.02739 c -0.04489,0.393478 -0.180913,0.661157 -0.382922,0.843876 -0.04987,0.04162 -0.12256,0.06078 -0.191203,0.09922 v 0.0021 c -0.182253,0.104434 -0.364681,0.195337 -0.603581,0.195337 -0.351301,-0.0083 -0.628897,-0.135731 -0.843876,-0.38654 -0.212136,-0.253461 -0.318326,-0.585938 -0.318326,-1.004073 0,-0.418082 0.107205,-0.751476 0.321944,-1.002006 0.217513,-0.250553 0.502865,-0.373104 0.86558,-0.373104 0.25446,0 0.472559,0.06438 0.656291,0.19327 0.183117,0.125721 0.304777,0.304262 0.365352,0.541052 a 0.03032923,0.03032923 0 0 0 0.02894,0.02377 h 0.03721 a 0.03032923,0.03032923 0 0 0 0.02946,-0.03514 l -0.08423,-0.597897 a 0.03032923,0.03032923 0 0 0 -0.01137,-0.0217 C 75.737655,39.197086 75.39506,39.099867 75.011794,39.099867 Z m 13.492199,0 c -0.234871,0 -0.425082,0.07415 -0.566372,0.224275 -0.137613,0.146391 -0.209291,0.328273 -0.209291,0.535368 0,0.208057 0.0806,0.387349 0.238228,0.533301 l 0.812872,0.753959 c 0.103997,0.09599 0.153995,0.2197 0.153995,0.376721 0,0.153806 -0.05157,0.276668 -0.161748,0.378789 -0.107114,0.101759 -0.244435,0.152445 -0.415996,0.152445 -0.165457,0 -0.29387,-0.05331 -0.39274,-0.160197 -0.09816,-0.109765 -0.146761,-0.245274 -0.146761,-0.410311 0,-0.03032 -6.3e-4,-0.06154 0.0021,-0.09147 a 0.03032923,0.03032923 0 0 0 -0.02946,-0.03359 h -0.03876 a 0.03032923,0.03032923 0 0 0 -0.02946,0.0217 c -0.04325,0.129761 -0.0646,0.254536 -0.0646,0.371037 0,0.113464 0.0041,0.18881 0.01395,0.234611 a 0.03032923,0.03032923 0 0 0 0.0078,0.0155 c 0.08114,0.08414 0.193971,0.142178 0.335899,0.179834 0.143187,0.04009 0.278575,0.06253 0.406175,0.06253 0.246031,0 0.44803,-0.07699 0.597898,-0.226859 0.149415,-0.152348 0.224274,-0.347683 0.224274,-0.57981 0,-0.23203 -0.07307,-0.419226 -0.220657,-0.555004 l -0.833541,-0.769463 c -0.107797,-0.09971 -0.160197,-0.215477 -0.160197,-0.351399 0,-0.137111 0.04368,-0.247286 0.134358,-0.337964 0.0936,-0.09092 0.204988,-0.134876 0.342098,-0.134876 0.138298,0 0.24742,0.03782 0.331764,0.111621 0.08693,0.07376 0.12919,0.167602 0.12919,0.293006 a 0.03032923,0.03032923 0 0 0 0.03101,0.03101 h 0.03721 a 0.03032923,0.03032923 0 0 0 0.03152,-0.03101 v -0.519865 a 0.03032923,0.03032923 0 0 0 -0.03152,-0.03101 H 88.86936 c -0.134483,-0.02769 -0.257022,-0.04289 -0.365353,-0.04289 z m -35.468635,0.05839 c -0.04909,0.01263 -0.03027,0.07173 -0.03152,0.07441 0.03155,0.05361 0.03824,0.02832 0.08578,0.03101 0.06639,0 0.120938,0.0212 0.166398,0.06666 0.04856,0.04598 0.07136,0.09943 0.0739,0.165882 v 2.351286 c -0.003,0.06556 -0.02614,0.121153 -0.0739,0.166399 -0.04546,0.04546 -0.100009,0.06615 -0.166398,0.06615 h -0.05426 a 0.03032923,0.03032923 0 0 0 -0.03152,0.03152 v 0.04082 a 0.03032923,0.03032923 0 0 0 0.03152,0.03101 h 0.927592 a 0.03032923,0.03032923 0 0 0 0.03101,-0.03101 v -0.04082 a 0.03032923,0.03032923 0 0 0 -0.03101,-0.03152 h -0.05478 c -0.06639,0 -0.121538,-0.02022 -0.170016,-0.06615 -0.0481,-0.04557 -0.07028,-0.100308 -0.07028,-0.166399 V 40.78345 h 1.668116 v 1.062467 c -0.0025,0.06341 -0.02557,0.119099 -0.07441,0.167949 -0.04574,0.04573 -0.09743,0.06615 -0.163815,0.06615 h -0.05478 a 0.03032923,0.03032923 0 0 0 -0.03152,0.03152 v 0.04082 a 0.03032923,0.03032923 0 0 0 0.03152,0.03101 h 0.925525 a 0.03032923,0.03032923 0 0 0 0.03152,-0.03101 v -0.04082 a 0.03032923,0.03032923 0 0 0 -0.03152,-0.03152 h -0.05426 c -0.06639,0 -0.121537,-0.02022 -0.170015,-0.06615 -0.04563,-0.04561 -0.06773,-0.101178 -0.07028,-0.167949 v -2.34611 -0.0016 c 0.0029,-0.06578 0.02486,-0.118914 0.07028,-0.164331 0.04856,-0.04856 0.103925,-0.07028 0.170015,-0.07028 h 0.05426 a 0.03032923,0.03032923 0 0 0 0.03152,-0.03101 v -0.04341 a 0.03032923,0.03032923 0 0 0 -0.03152,-0.03101 h -0.925525 a 0.03032923,0.03032923 0 0 0 -0.03152,0.03101 v 0.04341 a 0.03032923,0.03032923 0 0 0 0.03152,0.03101 h 0.05478 c 0.0435,0 0.08289,0.0092 0.120923,0.02946 0.07827,0.0463 0.114763,0.108811 0.117306,0.201022 v 1.099674 h -1.668116 v -1.099674 c 0.0029,-0.06578 0.02486,-0.118398 0.07028,-0.163815 0.04848,-0.04593 0.103627,-0.06666 0.170016,-0.06666 h 0.05478 a 0.03032923,0.03032923 0 0 0 0.03101,-0.03101 v -0.04341 a 0.03032923,0.03032923 0 0 0 -0.03101,-0.03101 z m 17.634582,0 c -0.04909,0.01263 -0.03027,0.07173 -0.03152,0.07441 0.03155,0.05361 0.03876,0.02832 0.0863,0.03101 0.06609,0 0.12031,0.02218 0.165881,0.07028 0.04856,0.04598 0.07188,0.09943 0.07441,0.165881 v 2.34766 c -0.003,0.06556 -0.02665,0.121153 -0.07441,0.166399 -0.04546,0.04546 -0.09949,0.06615 -0.165881,0.06615 h -0.05478 a 0.03032923,0.03032923 0 0 0 -0.03152,0.03152 v 0.04082 a 0.03032923,0.03032923 0 0 0 0.03152,0.03101 h 0.927592 a 0.03032923,0.03032923 0 0 0 0.02946,-0.03307 l -0.0041,-0.04082 a 0.03032923,0.03032923 0 0 0 -0.02894,-0.02945 h -0.05116 c -0.06947,0 -0.125303,-0.02036 -0.173633,-0.06615 -0.04593,-0.04848 -0.06615,-0.103626 -0.06615,-0.170016 v -2.492354 h 0.239779 c 0.100991,0 0.184581,0.0029 0.252181,0.0057 0.151086,0.0081 0.267482,0.06475 0.355534,0.17415 0.08826,0.109691 0.135005,0.252902 0.14056,0.437182 v 0.09767 c 0,0.04441 -0.007,0.09461 -0.02325,0.148828 -0.04353,0.136236 -0.116546,0.237037 -0.220659,0.306441 -0.10457,0.06971 -0.241513,0.106956 -0.412378,0.111105 a 0.03032923,0.03032923 0 0 0 -0.0021,0 c -0.05317,0.0028 -0.09673,0.0041 -0.132808,0.0041 -0.03608,0 -0.06327,4.68e-4 -0.08372,-0.0021 a 0.03032923,0.03032923 0 0 0 -0.03514,0.02945 v 0.04082 a 0.03032923,0.03032923 0 0 0 0.03101,0.03152 c 0.07944,0 0.161045,0.04243 0.248046,0.134876 0.03039,0.03318 0.06072,0.06601 0.08785,0.101286 a 0.03032923,0.03032923 0 0 0 0,0.0021 c 0.02425,0.02911 0.12712,0.173427 0.299206,0.42168 0.172235,0.248471 0.274961,0.393039 0.314193,0.441317 a 0.03032923,0.03032923 0 0 0 0.0021,0.0021 c 0.03971,0.04255 0.0834,0.08833 0.134875,0.136943 a 0.03032923,0.03032923 0 0 0 0.0016,0.0021 c 0.05752,0.04844 0.140613,0.09271 0.246496,0.138493 0.108318,0.04391 0.224618,0.06614 0.349333,0.06614 h 0.232544 a 0.03032923,0.03032923 0 0 0 0.03101,-0.03101 v -0.04082 a 0.03032923,0.03032923 0 0 0 -0.03101,-0.03152 c -0.08857,0 -0.169955,-0.01863 -0.248047,-0.05633 -0.03478,-0.01604 -0.07049,-0.03567 -0.10542,-0.06253 -0.03533,-0.02718 -0.06724,-0.05661 -0.09767,-0.08423 -0.03062,-0.03062 -0.0849,-0.08516 -0.15658,-0.162264 l -0.0015,-0.0016 c -0.07054,-0.07907 -0.227315,-0.295543 -0.468706,-0.640788 -0.0465,-0.06394 -0.101961,-0.124467 -0.162264,-0.181901 -0.0282,-0.02961 -0.05294,-0.05363 -0.07803,-0.0739 0.169972,-0.02214 0.319723,-0.10412 0.441317,-0.248047 0.14549,-0.171682 0.218591,-0.375685 0.218591,-0.607715 0,-0.23514 -0.07785,-0.429432 -0.230477,-0.576192 C 72.286461,39.23447 72.075213,39.15821 71.812654,39.15821 Z m 6.15208,0 c -0.04909,0.01263 -0.02976,0.07173 -0.03101,0.07441 0.03155,0.05361 0.03824,0.02832 0.08578,0.03101 0.06639,0 0.120938,0.0212 0.166399,0.06666 0.04856,0.04598 0.07136,0.09943 0.07389,0.165882 v 2.351286 c -0.003,0.06556 -0.02614,0.121153 -0.07389,0.166399 -0.04546,0.04546 -0.10001,0.06615 -0.166399,0.06615 h -0.05478 a 0.03032923,0.03032923 0 0 0 -0.03101,0.03152 v 0.04082 a 0.03032923,0.03032923 0 0 0 0.03101,0.03101 h 0.928108 a 0.03032923,0.03032923 0 0 0 0.03101,-0.03101 v -0.04082 a 0.03032923,0.03032923 0 0 0 -0.03101,-0.03152 h -0.05478 c -0.06639,0 -0.121536,-0.02022 -0.170016,-0.06615 -0.0481,-0.04557 -0.07028,-0.100308 -0.07028,-0.166399 V 40.78345 h 1.668113 v 1.062467 c -0.0025,0.06341 -0.02556,0.119099 -0.07441,0.167949 -0.04573,0.04573 -0.09743,0.06615 -0.163814,0.06615 h -0.05684 a 0.03032923,0.03032923 0 0 0 -0.03101,0.03152 v 0.04082 a 0.03032923,0.03032923 0 0 0 0.03101,0.03101 h 0.927592 a 0.03032923,0.03032923 0 0 0 0.03152,-0.03101 v -0.04082 a 0.03032923,0.03032923 0 0 0 -0.03152,-0.03152 h -0.05478 c -0.06639,0 -0.12102,-0.02022 -0.1695,-0.06615 -0.04563,-0.04561 -0.06773,-0.101179 -0.07028,-0.167949 v -2.34611 -0.0016 c 0.0029,-0.06578 0.02486,-0.118914 0.07028,-0.164331 0.04856,-0.04856 0.10341,-0.07028 0.1695,-0.07028 h 0.05478 a 0.03032923,0.03032923 0 0 0 0.03152,-0.03101 v -0.04341 a 0.03032923,0.03032923 0 0 0 -0.03152,-0.03101 h -0.927592 a 0.03032923,0.03032923 0 0 0 -0.03101,0.03101 v 0.04341 a 0.03032923,0.03032923 0 0 0 0.03101,0.03101 h 0.05684 c 0.0435,0 0.08289,0.0092 0.120922,0.02946 0.07828,0.0463 0.114766,0.108812 0.117306,0.201022 v 1.099674 H 77.45506 v -1.099674 c 0.0029,-0.06578 0.02486,-0.118398 0.07028,-0.163815 0.04848,-0.04593 0.103627,-0.06666 0.170016,-0.06666 h 0.05478 a 0.03032923,0.03032923 0 0 0 0.03101,-0.03101 v -0.04341 a 0.03032923,0.03032923 0 0 0 -0.03101,-0.03101 z m 3.572391,0 c -0.04909,0.01263 -0.02975,0.07173 -0.03101,0.07441 0.03155,0.05361 0.03824,0.02832 0.08578,0.03101 0.06639,0 0.118597,0.02093 0.164333,0.06666 0.04882,0.04623 0.07345,0.09996 0.07596,0.165882 v 2.34766 c -0.003,0.06509 -0.0275,0.121549 -0.07596,0.170016 -0.04574,0.04573 -0.09794,0.06615 -0.164333,0.06615 h -0.05478 a 0.03032923,0.03032923 0 0 0 -0.03101,0.03152 v 0.04082 a 0.03032923,0.03032923 0 0 0 0.03101,0.03101 h 0.926041 a 0.03032923,0.03032923 0 0 0 0.03101,-0.03101 v -0.04082 a 0.03032923,0.03032923 0 0 0 -0.03101,-0.03152 h -0.05478 c -0.06639,0 -0.119203,-0.01996 -0.16795,-0.06615 -0.04882,-0.04882 -0.07234,-0.104464 -0.07234,-0.170016 v -2.349727 c 0.003,-0.06527 0.02665,-0.118121 0.07234,-0.163815 0.04875,-0.04618 0.10156,-0.06666 0.16795,-0.06666 h 0.05478 a 0.03032923,0.03032923 0 0 0 0.03101,-0.03101 v -0.04341 a 0.03032923,0.03032923 0 0 0 -0.03101,-0.03101 z m -11.605493,0.45682 c 0.04609,0.09966 0.09373,0.212028 0.148311,0.371036 l 0.320394,0.945679 h -0.984436 z m -10.956954,0.107487 0.465088,1.244368 h -0.951363 z m -5.926253,2.167309 c -0.05802,0.03857 -0.119539,0.07104 -0.184485,0.09819 0.03674,-0.02764 0.0736,-0.05409 0.112655,-0.07596 v -0.0021 c 0.01745,-0.01 0.04274,-0.01478 0.07183,-0.02015 z m 23.787178,0 c -0.05801,0.03857 -0.11955,0.07104 -0.184485,0.09819 0.03674,-0.02764 0.0736,-0.05409 0.112655,-0.07596 v -0.0021 c 0.01745,-0.01 0.04274,-0.01478 0.07183,-0.02015 z"
         style="stroke-width:0.0700042" />
    </g>
    <g
       aria-label="Your roleplaying portal to Chaos (EU)"
       id="text92731-5"
       style="font-weight:bold;font-size:1.49566px;line-height:1.25;font-family:'Roboto Condensed';-inkscape-font-specification:'Roboto Condensed,  Bold';letter-spacing:0.0412865px;fill:#ffffff;stroke-width:0.0934785"
       transform="translate(-0.2646545)">
      <path
         d="m 59.272883,44.736191 v -0.427759 l -0.261741,-0.783726 h 0.157045 l 0.185462,0.584803 0.18247,-0.584803 h 0.15854 l -0.260245,0.783726 v 0.427759 z"
         style="font-weight:normal;font-family:Oswald;-inkscape-font-specification:Oswald"
         id="path6566" />
      <path
         d="m 60.042554,44.748156 q -0.09572,0 -0.151062,-0.03889 -0.05534,-0.03889 -0.07927,-0.110679 -0.02244,-0.07179 -0.02244,-0.169009 V 44.17831 q 0,-0.09722 0.02244,-0.16901 0.02393,-0.07179 0.07927,-0.110679 0.05534,-0.03889 0.151062,-0.03889 0.09572,0 0.149566,0.03889 0.05534,0.03889 0.07777,0.110679 0.02393,0.07179 0.02393,0.16901 v 0.251271 q 0,0.09722 -0.02393,0.169009 -0.02244,0.07179 -0.07777,0.110679 -0.05384,0.03889 -0.149566,0.03889 z m 0,-0.118157 q 0.04636,0 0.06431,-0.02692 0.01944,-0.02692 0.02244,-0.0703 0.0045,-0.04487 0.0045,-0.09273 v -0.270714 q 0,-0.04936 -0.0045,-0.09273 -0.003,-0.04337 -0.02244,-0.0703 -0.01795,-0.02842 -0.06431,-0.02842 -0.04637,0 -0.06581,0.02842 -0.01944,0.02692 -0.02393,0.0703 -0.003,0.04337 -0.003,0.09273 v 0.270714 q 0,0.04786 0.003,0.09273 0.0045,0.04337 0.02393,0.0703 0.01944,0.02692 0.06581,0.02692 z"
         style="font-weight:normal;font-family:Oswald;-inkscape-font-specification:Oswald"
         id="path6568" />
      <path
         d="m 60.605824,44.748156 q -0.05085,0 -0.07927,-0.02692 -0.02842,-0.02692 -0.04038,-0.06731 -0.01047,-0.04038 -0.01047,-0.08226 v -0.699969 h 0.160036 v 0.652108 q 0,0.04637 0.01346,0.07329 0.01346,0.02543 0.05534,0.02543 0.02692,0 0.05534,-0.01496 0.02991,-0.01645 0.05683,-0.03889 v -0.696978 h 0.160036 v 0.864492 H 60.81671 v -0.08525 q -0.04188,0.04038 -0.09572,0.0688 -0.05235,0.02842 -0.115166,0.02842 z"
         style="font-weight:normal;font-family:Oswald;-inkscape-font-specification:Oswald"
         id="path6570" />
      <path
         d="m 61.185546,44.736191 v -0.864492 h 0.160036 v 0.122644 q 0.04786,-0.07927 0.09572,-0.106191 0.04786,-0.02692 0.09572,-0.02692 0.006,0 0.01047,0 0.006,0 0.01496,0.0015 v 0.176488 q -0.01795,-0.0075 -0.04188,-0.01196 -0.02244,-0.006 -0.04637,-0.006 -0.03739,0 -0.0688,0.01795 -0.02991,0.01645 -0.05983,0.06581 v 0.631169 z"
         style="font-weight:normal;font-family:Oswald;-inkscape-font-specification:Oswald"
         id="path6572" />
      <path
         d="m 62.090728,44.736191 v -0.864492 h 0.160036 v 0.122644 q 0.04786,-0.07927 0.09572,-0.106191 0.04786,-0.02692 0.09572,-0.02692 0.006,0 0.01047,0 0.006,0 0.01496,0.0015 v 0.176488 q -0.01795,-0.0075 -0.04188,-0.01196 -0.02244,-0.006 -0.04637,-0.006 -0.03739,0 -0.0688,0.01795 -0.02991,0.01645 -0.05983,0.06581 v 0.631169 z"
         style="font-weight:normal;font-family:Oswald;-inkscape-font-specification:Oswald"
         id="path6574" />
      <path
         d="m 62.845443,44.748156 q -0.09572,0 -0.151061,-0.03889 -0.05534,-0.03889 -0.07927,-0.110679 -0.02244,-0.07179 -0.02244,-0.169009 V 44.17831 q 0,-0.09722 0.02244,-0.16901 0.02393,-0.07179 0.07927,-0.110679 0.05534,-0.03889 0.151061,-0.03889 0.09572,0 0.149566,0.03889 0.05534,0.03889 0.07777,0.110679 0.02393,0.07179 0.02393,0.16901 v 0.251271 q 0,0.09722 -0.02393,0.169009 -0.02244,0.07179 -0.07777,0.110679 -0.05384,0.03889 -0.149566,0.03889 z m 0,-0.118157 q 0.04637,0 0.06431,-0.02692 0.01944,-0.02692 0.02244,-0.0703 0.0045,-0.04487 0.0045,-0.09273 v -0.270714 q 0,-0.04936 -0.0045,-0.09273 -0.003,-0.04337 -0.02244,-0.0703 -0.01795,-0.02842 -0.06431,-0.02842 -0.04637,0 -0.06581,0.02842 -0.01944,0.02692 -0.02393,0.0703 -0.003,0.04337 -0.003,0.09273 v 0.270714 q 0,0.04786 0.003,0.09273 0.0045,0.04337 0.02393,0.0703 0.01944,0.02692 0.06581,0.02692 z"
         style="font-weight:normal;font-family:Oswald;-inkscape-font-specification:Oswald"
         id="path6576" />
      <path
         d="m 63.299531,44.736191 v -1.211485 h 0.160036 v 1.211485 z"
         style="font-weight:normal;font-family:Oswald;-inkscape-font-specification:Oswald"
         id="path6578" />
      <path
         d="m 63.90767,44.748156 q -0.101705,0 -0.157044,-0.03889 -0.05534,-0.04038 -0.07777,-0.116662 -0.02094,-0.07777 -0.02094,-0.189948 v -0.197427 q 0,-0.115166 0.02243,-0.191445 0.02244,-0.07628 0.07777,-0.115166 0.05683,-0.03889 0.155549,-0.03889 0.109183,0 0.160036,0.04487 0.05235,0.04487 0.0688,0.130122 0.01645,0.08376 0.01645,0.201914 v 0.0703 h -0.34101 v 0.173497 q 0,0.05235 0.009,0.08525 0.01047,0.0329 0.03141,0.04936 0.02244,0.01496 0.05683,0.01496 0.0359,0 0.05384,-0.01645 0.01944,-0.01795 0.02543,-0.04936 0.0075,-0.03291 0.0075,-0.07628 v -0.05235 H 64.1515 v 0.0329 q 0,0.130122 -0.05534,0.204905 -0.05534,0.07478 -0.188453,0.07478 z m -0.09572,-0.527968 h 0.183966 v -0.07777 q 0,-0.05384 -0.006,-0.08974 -0.006,-0.03739 -0.02543,-0.05534 -0.01795,-0.01944 -0.05833,-0.01944 -0.03889,0 -0.05983,0.01795 -0.01944,0.01795 -0.02692,0.06132 -0.0075,0.04188 -0.0075,0.116662 z"
         style="font-weight:normal;font-family:Oswald;-inkscape-font-specification:Oswald"
         id="path6580" />
      <path
         d="m 64.339323,45.020366 v -1.148667 h 0.160036 v 0.0688 q 0.02842,-0.0329 0.0688,-0.05683 0.04038,-0.02393 0.09572,-0.02393 0.0673,0 0.106192,0.0359 0.04038,0.0344 0.05983,0.08824 0.01944,0.05235 0.02543,0.107687 0.006,0.05384 0.006,0.09273 v 0.209393 q 0,0.09124 -0.01795,0.173496 -0.01795,0.08077 -0.06581,0.131618 -0.04637,0.04936 -0.131618,0.04936 -0.04636,0 -0.08226,-0.02244 -0.0359,-0.02393 -0.06431,-0.05384 v 0.348489 z m 0.275201,-0.397845 q 0.04188,0 0.05983,-0.02991 0.01795,-0.03141 0.02244,-0.08376 0.0045,-0.05235 0.0045,-0.115165 v -0.209393 q 0,-0.05384 -0.006,-0.09871 -0.006,-0.04637 -0.02543,-0.07329 -0.01944,-0.02692 -0.06132,-0.02692 -0.03141,0 -0.05983,0.01346 -0.02842,0.01346 -0.04936,0.03141 v 0.553394 q 0.02243,0.01645 0.05085,0.02842 0.02842,0.01047 0.06431,0.01047 z"
         style="font-weight:normal;font-family:Oswald;-inkscape-font-specification:Oswald"
         id="path6582" />
      <path
         d="m 65.062629,44.736191 v -1.211485 h 0.160035 v 1.211485 z"
         style="font-weight:normal;font-family:Oswald;-inkscape-font-specification:Oswald"
         id="path6584" />
      <path
         d="m 65.587011,44.748156 q -0.05085,0 -0.08974,-0.02842 -0.03889,-0.02991 -0.06132,-0.07478 -0.02243,-0.04637 -0.02243,-0.09722 0,-0.08077 0.02692,-0.136105 0.02692,-0.05534 0.07329,-0.09273 0.04786,-0.03889 0.109184,-0.06731 0.06282,-0.02842 0.131618,-0.05534 v -0.06132 q 0,-0.05235 -0.006,-0.08675 -0.006,-0.0344 -0.02543,-0.05085 -0.01795,-0.01795 -0.05534,-0.01795 -0.0329,0 -0.05384,0.01496 -0.01944,0.01496 -0.02842,0.04337 -0.009,0.02692 -0.009,0.06431 v 0.04337 l -0.15854,-0.006 q 0.003,-0.143583 0.06581,-0.210888 0.06282,-0.0688 0.194436,-0.0688 0.128627,0 0.182471,0.0703 0.05384,0.0703 0.05384,0.20341 v 0.394854 q 0,0.04038 0.0015,0.07777 0.003,0.03739 0.006,0.0703 0.0045,0.03141 0.0075,0.05983 h -0.146575 q -0.0045,-0.02393 -0.01197,-0.05983 -0.006,-0.03739 -0.009,-0.0673 -0.01496,0.05085 -0.05833,0.09572 -0.04188,0.04337 -0.116661,0.04337 z m 0.06282,-0.137601 q 0.02393,0 0.04487,-0.01346 0.02094,-0.01346 0.03739,-0.02991 0.01645,-0.01795 0.02244,-0.02842 v -0.245289 q -0.03739,0.02094 -0.0703,0.04188 -0.0329,0.02094 -0.05833,0.04487 -0.02393,0.02244 -0.03889,0.05235 -0.01346,0.02842 -0.01346,0.06581 0,0.05235 0.01944,0.08226 0.01944,0.02991 0.05684,0.02991 z"
         style="font-weight:normal;font-family:Oswald;-inkscape-font-specification:Oswald"
         id="path6586" />
      <path
         d="m 66.096437,44.953061 v -0.122644 q 0.05833,0 0.09273,-0.006 0.0344,-0.0045 0.04936,-0.01944 0.01496,-0.01346 0.01496,-0.03889 0,-0.01346 -0.01047,-0.05983 -0.01047,-0.04637 -0.02243,-0.09871 L 66.04708,43.871699 h 0.161532 l 0.116661,0.646125 0.112175,-0.646125 h 0.161531 l -0.206401,0.912353 q -0.01346,0.06282 -0.04936,0.09871 -0.0359,0.03739 -0.09273,0.05384 -0.05534,0.01645 -0.134609,0.01645 z"
         style="font-weight:normal;font-family:Oswald;-inkscape-font-specification:Oswald"
         id="path6588" />
      <path
         d="m 66.74795,44.736191 v -0.864492 h 0.160036 v 0.864492 z m 0,-0.993118 v -0.167514 h 0.160036 v 0.167514 z"
         style="font-weight:normal;font-family:Oswald;-inkscape-font-specification:Oswald"
         id="path6590" />
      <path
         d="m 67.12127,44.736191 v -0.864492 h 0.160036 v 0.08525 q 0.04337,-0.04038 0.09572,-0.0688 0.05235,-0.02842 0.115166,-0.02842 0.05235,0 0.07927,0.02692 0.02842,0.02692 0.03889,0.0673 0.01197,0.04038 0.01197,0.08226 v 0.699969 h -0.160035 v -0.653604 q 0,-0.04636 -0.01346,-0.07179 -0.01346,-0.02543 -0.05534,-0.02543 -0.02692,0 -0.05683,0.01645 -0.02842,0.01496 -0.05534,0.03739 v 0.696978 z"
         style="font-weight:normal;font-family:Oswald;-inkscape-font-specification:Oswald"
         id="path6592" />
      <path
         d="m 68.0435,45.003914 q -0.07777,0 -0.140592,-0.01645 -0.06282,-0.01645 -0.09871,-0.05235 -0.0359,-0.0359 -0.0359,-0.09423 0,-0.04188 0.01795,-0.07329 0.01795,-0.03141 0.04637,-0.05384 0.02842,-0.02393 0.05983,-0.03889 -0.04188,-0.01197 -0.06282,-0.03739 -0.02094,-0.02692 -0.02094,-0.05534 0,-0.04786 0.02543,-0.08226 0.02543,-0.0344 0.0703,-0.07478 -0.04936,-0.03739 -0.07478,-0.09572 -0.02543,-0.05833 -0.02543,-0.161531 0,-0.101705 0.02692,-0.16901 0.02842,-0.0688 0.08226,-0.1032 0.05534,-0.0359 0.13461,-0.0359 0.0703,0 0.112174,0.02393 0.04337,0.02393 0.06581,0.07179 0.0075,-0.01196 0.04038,-0.04038 0.0329,-0.02991 0.07628,-0.04936 l 0.02393,-0.01047 0.04038,0.103201 q -0.01944,0.003 -0.05235,0.01496 -0.03141,0.01047 -0.05983,0.02243 -0.02692,0.01047 -0.0344,0.01795 0.01047,0.02543 0.01795,0.07329 0.009,0.04786 0.009,0.08525 0,0.08824 -0.02243,0.155549 -0.02244,0.0673 -0.07478,0.106191 -0.05085,0.03739 -0.142088,0.03739 -0.01944,0 -0.04188,-0.003 -0.02244,-0.003 -0.04038,-0.0075 -0.009,0.01346 -0.01944,0.03141 -0.009,0.01795 -0.009,0.0344 0,0.01645 0.01645,0.02692 0.01795,0.009 0.05534,0.01197 l 0.134609,0.01197 q 0.101705,0.009 0.151062,0.06132 0.04936,0.05235 0.04936,0.149566 0,0.0703 -0.0329,0.118157 -0.0329,0.04936 -0.100209,0.07329 -0.06581,0.02393 -0.167514,0.02393 z m 0.01197,-0.125636 q 0.08525,0 0.125636,-0.02094 0.04038,-0.01944 0.04038,-0.06431 0,-0.02692 -0.01047,-0.04487 -0.009,-0.01795 -0.0344,-0.02842 -0.02543,-0.01047 -0.07329,-0.01496 l -0.136105,-0.01197 q -0.01645,0.01645 -0.03141,0.0329 -0.01496,0.01645 -0.02393,0.0344 -0.009,0.01944 -0.009,0.04038 0,0.03889 0.0329,0.05833 0.0329,0.01944 0.119653,0.01944 z m -0.0075,-0.518994 q 0.0344,0 0.05384,-0.01197 0.02094,-0.01346 0.03141,-0.03739 0.01047,-0.02543 0.01346,-0.06132 0.0045,-0.0359 0.0045,-0.08077 0,-0.04487 -0.0045,-0.08077 -0.003,-0.03739 -0.01346,-0.06282 -0.009,-0.02692 -0.02991,-0.04038 -0.01944,-0.01346 -0.05384,-0.01346 -0.0329,0 -0.05534,0.01346 -0.02094,0.01346 -0.03141,0.03889 -0.01047,0.02393 -0.01496,0.06132 -0.0045,0.0359 -0.0045,0.08376 0,0.04038 0.003,0.07628 0.0045,0.0344 0.01496,0.05983 0.01196,0.02543 0.0329,0.04038 0.02094,0.01496 0.05384,0.01496 z"
         style="font-weight:normal;font-family:Oswald;-inkscape-font-specification:Oswald"
         id="path6594" />
      <path
         d="m 68.894838,45.020366 v -1.148667 h 0.160036 v 0.0688 q 0.02842,-0.0329 0.0688,-0.05683 0.04038,-0.02393 0.09572,-0.02393 0.0673,0 0.106192,0.0359 0.04038,0.0344 0.05983,0.08824 0.01944,0.05235 0.02543,0.107687 0.006,0.05384 0.006,0.09273 v 0.209393 q 0,0.09124 -0.01795,0.173496 -0.01795,0.08077 -0.06581,0.131618 -0.04637,0.04936 -0.131618,0.04936 -0.04637,0 -0.08226,-0.02244 -0.0359,-0.02393 -0.06431,-0.05384 v 0.348489 z m 0.275202,-0.397845 q 0.04188,0 0.05983,-0.02991 0.01795,-0.03141 0.02244,-0.08376 0.0045,-0.05235 0.0045,-0.115165 v -0.209393 q 0,-0.05384 -0.006,-0.09871 -0.006,-0.04637 -0.02543,-0.07329 -0.01944,-0.02692 -0.06132,-0.02692 -0.03141,0 -0.05983,0.01346 -0.02842,0.01346 -0.04936,0.03141 v 0.553394 q 0.02244,0.01645 0.05085,0.02842 0.02842,0.01047 0.06431,0.01047 z"
         style="font-weight:normal;font-family:Oswald;-inkscape-font-specification:Oswald"
         id="path6596" />
      <path
         d="m 69.840997,44.748156 q -0.09572,0 -0.151061,-0.03889 -0.05534,-0.03889 -0.07927,-0.110679 -0.02244,-0.07179 -0.02244,-0.169009 V 44.17831 q 0,-0.09722 0.02244,-0.16901 0.02393,-0.07179 0.07927,-0.110679 0.05534,-0.03889 0.151061,-0.03889 0.09572,0 0.149566,0.03889 0.05534,0.03889 0.07778,0.110679 0.02393,0.07179 0.02393,0.16901 v 0.251271 q 0,0.09722 -0.02393,0.169009 -0.02244,0.07179 -0.07778,0.110679 -0.05384,0.03889 -0.149566,0.03889 z m 0,-0.118157 q 0.04637,0 0.06431,-0.02692 0.01944,-0.02692 0.02244,-0.0703 0.0045,-0.04487 0.0045,-0.09273 v -0.270714 q 0,-0.04936 -0.0045,-0.09273 -0.003,-0.04337 -0.02244,-0.0703 -0.01795,-0.02842 -0.06431,-0.02842 -0.04637,0 -0.06581,0.02842 -0.01944,0.02692 -0.02393,0.0703 -0.003,0.04337 -0.003,0.09273 v 0.270714 q 0,0.04786 0.003,0.09273 0.0045,0.04337 0.02393,0.0703 0.01944,0.02692 0.06581,0.02692 z"
         style="font-weight:normal;font-family:Oswald;-inkscape-font-specification:Oswald"
         id="path6598" />
      <path
         d="m 70.284615,44.736191 v -0.864492 h 0.160036 v 0.122644 q 0.04786,-0.07927 0.09572,-0.106191 0.04786,-0.02692 0.09572,-0.02692 0.006,0 0.01047,0 0.006,0 0.01496,0.0015 v 0.176488 q -0.01795,-0.0075 -0.04188,-0.01196 -0.02244,-0.006 -0.04636,-0.006 -0.03739,0 -0.0688,0.01795 -0.02991,0.01645 -0.05983,0.06581 v 0.631169 z"
         style="font-weight:normal;font-family:Oswald;-inkscape-font-specification:Oswald"
         id="path6600" />
      <path
         d="m 71.031852,44.748156 q -0.06731,0 -0.109183,-0.02543 -0.04038,-0.02543 -0.05983,-0.07179 -0.01795,-0.04636 -0.01795,-0.109183 v -0.563864 h -0.09123 v -0.106192 h 0.09123 v -0.252766 h 0.160036 v 0.252766 h 0.139096 v 0.106192 H 71.00493 v 0.553394 q 0,0.05085 0.01645,0.07329 0.01645,0.02094 0.06282,0.02094 0.01197,0 0.02692,-0.0015 0.01645,-0.0015 0.03141,-0.003 v 0.118157 q -0.02991,0.0045 -0.05534,0.006 -0.02543,0.003 -0.05534,0.003 z"
         style="font-weight:normal;font-family:Oswald;-inkscape-font-specification:Oswald"
         id="path6602" />
      <path
         d="m 71.459017,44.748156 q -0.05085,0 -0.08974,-0.02842 -0.03889,-0.02991 -0.06132,-0.07478 -0.02244,-0.04637 -0.02244,-0.09722 0,-0.08077 0.02692,-0.136105 0.02692,-0.05534 0.07329,-0.09273 0.04786,-0.03889 0.109183,-0.06731 0.06282,-0.02842 0.131618,-0.05534 v -0.06132 q 0,-0.05235 -0.006,-0.08675 -0.006,-0.0344 -0.02543,-0.05085 -0.01795,-0.01795 -0.05534,-0.01795 -0.0329,0 -0.05384,0.01496 -0.01944,0.01496 -0.02842,0.04337 -0.009,0.02692 -0.009,0.06431 v 0.04337 l -0.15854,-0.006 q 0.003,-0.143583 0.06581,-0.210888 0.06282,-0.0688 0.194436,-0.0688 0.128626,0 0.18247,0.0703 0.05384,0.0703 0.05384,0.20341 v 0.394854 q 0,0.04038 0.0015,0.07777 0.003,0.03739 0.006,0.0703 0.0045,0.03141 0.0075,0.05983 H 71.65494 q -0.0045,-0.02393 -0.01197,-0.05983 -0.006,-0.03739 -0.009,-0.0673 -0.01496,0.05085 -0.05833,0.09572 -0.04188,0.04337 -0.116662,0.04337 z m 0.06282,-0.137601 q 0.02393,0 0.04487,-0.01346 0.02094,-0.01346 0.03739,-0.02991 0.01645,-0.01795 0.02244,-0.02842 v -0.245289 q -0.03739,0.02094 -0.0703,0.04188 -0.0329,0.02094 -0.05833,0.04487 -0.02393,0.02244 -0.03889,0.05235 -0.01346,0.02842 -0.01346,0.06581 0,0.05235 0.01944,0.08226 0.01944,0.02991 0.05683,0.02991 z"
         style="font-weight:normal;font-family:Oswald;-inkscape-font-specification:Oswald"
         id="path6604" />
      <path
         d="m 71.996861,44.736191 v -1.211485 h 0.160035 v 1.211485 z"
         style="font-weight:normal;font-family:Oswald;-inkscape-font-specification:Oswald"
         id="path6606" />
      <path
         d="m 72.979816,44.748156 q -0.06731,0 -0.109184,-0.02543 -0.04038,-0.02543 -0.05983,-0.07179 -0.01795,-0.04636 -0.01795,-0.109183 v -0.563864 h -0.09123 v -0.106192 h 0.09123 v -0.252766 h 0.160036 v 0.252766 h 0.139096 v 0.106192 h -0.139096 v 0.553394 q 0,0.05085 0.01645,0.07329 0.01645,0.02094 0.06282,0.02094 0.01197,0 0.02692,-0.0015 0.01645,-0.0015 0.03141,-0.003 v 0.118157 q -0.02991,0.0045 -0.05534,0.006 -0.02543,0.003 -0.05534,0.003 z"
         style="font-weight:normal;font-family:Oswald;-inkscape-font-specification:Oswald"
         id="path6608" />
      <path
         d="m 73.489241,44.748156 q -0.09572,0 -0.151061,-0.03889 -0.05534,-0.03889 -0.07927,-0.110679 -0.02244,-0.07179 -0.02244,-0.169009 V 44.17831 q 0,-0.09722 0.02244,-0.16901 0.02393,-0.07179 0.07927,-0.110679 0.05534,-0.03889 0.151061,-0.03889 0.09572,0 0.149566,0.03889 0.05534,0.03889 0.07778,0.110679 0.02393,0.07179 0.02393,0.16901 v 0.251271 q 0,0.09722 -0.02393,0.169009 -0.02244,0.07179 -0.07778,0.110679 -0.05384,0.03889 -0.149566,0.03889 z m 0,-0.118157 q 0.04637,0 0.06431,-0.02692 0.01944,-0.02692 0.02244,-0.0703 0.0045,-0.04487 0.0045,-0.09273 v -0.270714 q 0,-0.04936 -0.0045,-0.09273 -0.003,-0.04337 -0.02244,-0.0703 -0.01795,-0.02842 -0.06431,-0.02842 -0.04637,0 -0.06581,0.02842 -0.01944,0.02692 -0.02393,0.0703 -0.003,0.04337 -0.003,0.09273 v 0.270714 q 0,0.04786 0.003,0.09273 0.0045,0.04337 0.02393,0.0703 0.01944,0.02692 0.06581,0.02692 z"
         style="font-weight:normal;font-family:Oswald;-inkscape-font-specification:Oswald"
         id="path6610" />
      <path
         d="m 74.629242,44.749652 q -0.128627,0 -0.200418,-0.05384 -0.0703,-0.05384 -0.09871,-0.145079 -0.02692,-0.09123 -0.02692,-0.20341 V 43.91956 q 0,-0.122644 0.02692,-0.213879 0.02842,-0.09123 0.09871,-0.140592 0.07179,-0.05085 0.200418,-0.05085 0.11367,0 0.179479,0.04188 0.0673,0.04188 0.09572,0.119653 0.02991,0.07777 0.02991,0.186957 v 0.09572 h -0.160036 v -0.08525 q 0,-0.06731 -0.0075,-0.118157 -0.006,-0.05235 -0.0359,-0.08077 -0.02991,-0.02842 -0.100209,-0.02842 -0.07179,0 -0.104696,0.03141 -0.0329,0.02991 -0.04337,0.08675 -0.009,0.05534 -0.009,0.130122 v 0.480107 q 0,0.09124 0.01496,0.145079 0.01496,0.05235 0.04936,0.07478 0.0344,0.02244 0.09273,0.02244 0.0688,0 0.09871,-0.02991 0.02991,-0.03141 0.03739,-0.08525 0.0075,-0.05384 0.0075,-0.125635 v -0.08974 h 0.160036 v 0.08974 q 0,0.110679 -0.02692,0.195931 -0.02692,0.08376 -0.09273,0.131618 -0.06581,0.04637 -0.185462,0.04637 z"
         style="font-weight:normal;font-family:Oswald;-inkscape-font-specification:Oswald"
         id="path6612" />
      <path
         d="m 75.1282,44.736191 v -1.211485 h 0.160036 v 0.436733 q 0.04337,-0.04188 0.09722,-0.07179 0.05384,-0.02991 0.119653,-0.02991 0.05085,0 0.07777,0.02692 0.02842,0.02692 0.03889,0.0673 0.01197,0.04038 0.01197,0.08226 v 0.699969 h -0.160035 v -0.653604 q 0,-0.04636 -0.01346,-0.07179 -0.01346,-0.02543 -0.05534,-0.02543 -0.02842,0 -0.05983,0.01645 -0.02991,0.01645 -0.05684,0.04038 v 0.693986 z"
         style="font-weight:normal;font-family:Oswald;-inkscape-font-specification:Oswald"
         id="path6614" />
      <path
         d="m 75.986116,44.748156 q -0.05085,0 -0.08974,-0.02842 -0.03889,-0.02991 -0.06132,-0.07478 -0.02244,-0.04637 -0.02244,-0.09722 0,-0.08077 0.02692,-0.136105 0.02692,-0.05534 0.07329,-0.09273 0.04786,-0.03889 0.109183,-0.06731 0.06282,-0.02842 0.131618,-0.05534 v -0.06132 q 0,-0.05235 -0.006,-0.08675 -0.006,-0.0344 -0.02543,-0.05085 -0.01795,-0.01795 -0.05534,-0.01795 -0.03291,0 -0.05384,0.01496 -0.01944,0.01496 -0.02842,0.04337 -0.009,0.02692 -0.009,0.06431 v 0.04337 l -0.15854,-0.006 q 0.003,-0.143583 0.06581,-0.210888 0.06282,-0.0688 0.194436,-0.0688 0.128627,0 0.182471,0.0703 0.05384,0.0703 0.05384,0.20341 v 0.394854 q 0,0.04038 0.0015,0.07777 0.003,0.03739 0.006,0.0703 0.0045,0.03141 0.0075,0.05983 h -0.146575 q -0.0045,-0.02393 -0.01197,-0.05983 -0.006,-0.03739 -0.009,-0.0673 -0.01496,0.05085 -0.05833,0.09572 -0.04188,0.04337 -0.116661,0.04337 z m 0.06282,-0.137601 q 0.02393,0 0.04487,-0.01346 0.02094,-0.01346 0.03739,-0.02991 0.01645,-0.01795 0.02244,-0.02842 v -0.245289 q -0.03739,0.02094 -0.0703,0.04188 -0.0329,0.02094 -0.05833,0.04487 -0.02393,0.02244 -0.03889,0.05235 -0.01346,0.02842 -0.01346,0.06581 0,0.05235 0.01944,0.08226 0.01944,0.02991 0.05684,0.02991 z"
         style="font-weight:normal;font-family:Oswald;-inkscape-font-specification:Oswald"
         id="path6616" />
      <path
         d="m 76.746813,44.748156 q -0.09572,0 -0.151061,-0.03889 -0.05534,-0.03889 -0.07927,-0.110679 -0.02244,-0.07179 -0.02244,-0.169009 V 44.17831 q 0,-0.09722 0.02244,-0.16901 0.02393,-0.07179 0.07927,-0.110679 0.05534,-0.03889 0.151061,-0.03889 0.09572,0 0.149566,0.03889 0.05534,0.03889 0.07778,0.110679 0.02393,0.07179 0.02393,0.16901 v 0.251271 q 0,0.09722 -0.02393,0.169009 -0.02244,0.07179 -0.07778,0.110679 -0.05384,0.03889 -0.149566,0.03889 z m 0,-0.118157 q 0.04637,0 0.06431,-0.02692 0.01944,-0.02692 0.02244,-0.0703 0.0045,-0.04487 0.0045,-0.09273 v -0.270714 q 0,-0.04936 -0.0045,-0.09273 -0.003,-0.04337 -0.02244,-0.0703 -0.01795,-0.02842 -0.06431,-0.02842 -0.04637,0 -0.06581,0.02842 -0.01944,0.02692 -0.02393,0.0703 -0.003,0.04337 -0.003,0.09273 v 0.270714 q 0,0.04786 0.003,0.09273 0.0045,0.04337 0.02393,0.0703 0.01944,0.02692 0.06581,0.02692 z"
         style="font-weight:normal;font-family:Oswald;-inkscape-font-specification:Oswald"
         id="path6618" />
      <path
         d="m 77.386363,44.748156 q -0.106192,0 -0.170505,-0.06581 -0.06431,-0.0673 -0.07329,-0.176488 l 0.133114,-0.04038 q 0.01197,0.08226 0.04038,0.12414 0.02842,0.04038 0.08376,0.04038 0.04337,0 0.06581,-0.02393 0.02244,-0.02543 0.02244,-0.0673 0,-0.03739 -0.01645,-0.0673 -0.01645,-0.02991 -0.05384,-0.06132 l -0.148071,-0.127131 q -0.04487,-0.03889 -0.07628,-0.08675 -0.02991,-0.04786 -0.02991,-0.12414 0,-0.0688 0.02692,-0.115166 0.02842,-0.04786 0.07778,-0.07179 0.05085,-0.02543 0.118157,-0.02543 0.1032,0 0.157044,0.0673 0.05534,0.06581 0.06282,0.160035 l -0.107688,0.04038 q -0.006,-0.04487 -0.01795,-0.07777 -0.01196,-0.0344 -0.0329,-0.05235 -0.02094,-0.01944 -0.05534,-0.01944 -0.03889,0 -0.06282,0.02692 -0.02244,0.02543 -0.02244,0.06132 0,0.02243 0.009,0.04487 0.01047,0.02094 0.0344,0.04188 l 0.152557,0.140592 q 0.03141,0.02842 0.05833,0.06132 0.02842,0.0329 0.04637,0.07478 0.01795,0.04188 0.01795,0.09722 0,0.07329 -0.02991,0.122645 -0.02991,0.04936 -0.08376,0.07478 -0.05384,0.02393 -0.125635,0.02393 z"
         style="font-weight:normal;font-family:Oswald;-inkscape-font-specification:Oswald"
         id="path6620" />
      <path
         d="m 78.490467,45.026349 q -0.08525,-0.0015 -0.140592,-0.04487 -0.05384,-0.04188 -0.08525,-0.116661 -0.03141,-0.07478 -0.04637,-0.170506 -0.01346,-0.09572 -0.01645,-0.204905 -0.003,-0.109183 -0.003,-0.218366 0,-0.110679 0.003,-0.218367 0.003,-0.109183 0.01645,-0.204905 0.01496,-0.09722 0.04637,-0.172001 0.03141,-0.07478 0.08525,-0.118157 0.05534,-0.04337 0.140592,-0.04337 v 0.107687 q -0.05235,0.0015 -0.08077,0.05983 -0.02842,0.05683 -0.04038,0.151061 -0.01197,0.09423 -0.01496,0.209393 -0.0015,0.11367 -0.0015,0.228836 0,0.116661 0.0015,0.231827 0.003,0.11367 0.01496,0.207897 0.01196,0.09423 0.04038,0.151061 0.02842,0.05683 0.08077,0.05833 z"
         style="font-weight:normal;font-family:Oswald;-inkscape-font-specification:Oswald"
         id="path6622" />
      <path
         d="m 78.670847,44.736191 v -1.211485 h 0.469637 v 0.125636 h -0.300628 v 0.400837 h 0.243793 v 0.119652 h -0.243793 v 0.444211 h 0.303619 v 0.121149 z"
         style="font-weight:normal;font-family:Oswald;-inkscape-font-specification:Oswald"
         id="path6624" />
      <path
         d="m 79.63346,44.749652 q -0.131618,0 -0.201914,-0.05235 -0.0703,-0.05235 -0.09572,-0.146575 -0.02543,-0.09572 -0.02543,-0.222853 v -0.80317 h 0.161531 v 0.810648 q 0,0.07777 0.01047,0.142088 0.01047,0.06431 0.04487,0.101705 0.0359,0.03739 0.106192,0.03739 0.07179,0 0.106192,-0.03739 0.0344,-0.03739 0.04487,-0.101705 0.01047,-0.06431 0.01047,-0.142088 v -0.810648 h 0.160036 v 0.80317 q 0,0.127131 -0.02543,0.222853 -0.02543,0.09423 -0.09572,0.146575 -0.0688,0.05235 -0.200419,0.05235 z"
         style="font-weight:normal;font-family:Oswald;-inkscape-font-specification:Oswald"
         id="path6626" />
      <path
         d="m 80.123443,45.026349 v -0.107688 q 0.05384,-0.0015 0.08226,-0.05983 0.02842,-0.05683 0.04038,-0.151062 0.01197,-0.09423 0.01346,-0.209392 0.003,-0.115166 0.003,-0.230332 0,-0.116661 -0.003,-0.230331 -0.0015,-0.115166 -0.01346,-0.207897 -0.01197,-0.09423 -0.04038,-0.151062 -0.02842,-0.05683 -0.08226,-0.05833 v -0.106191 q 0.08675,0 0.140592,0.04337 0.05534,0.04188 0.08675,0.116661 0.03141,0.07478 0.04487,0.172001 0.01496,0.09572 0.01795,0.20341 0.003,0.107687 0.003,0.218366 0,0.110679 -0.003,0.219862 -0.003,0.107688 -0.01795,0.204906 -0.01346,0.09722 -0.04487,0.172001 -0.03141,0.07478 -0.08675,0.116661 -0.05384,0.04337 -0.140592,0.04487 z"
         style="font-weight:normal;font-family:Oswald;-inkscape-font-specification:Oswald"
         id="path6628" />
    </g>
  </g>
</svg>
