<?xml version="1.0" encoding="UTF-8" standalone="no"?>
<!-- Created with Inkscape (http://www.inkscape.org/) -->

<svg
   width="175.82988"
   height="28.027"
   viewBox="0 0 46.521658 7.415477"
   version="1.1"
   id="svg5"
   sodipodi:docname="logo_global.svg"
   inkscape:version="1.2.2 (b0a8486541, 2022-12-01)"
   xmlns:inkscape="http://www.inkscape.org/namespaces/inkscape"
   xmlns:sodipodi="http://sodipodi.sourceforge.net/DTD/sodipodi-0.dtd"
   xmlns="http://www.w3.org/2000/svg"
   xmlns:svg="http://www.w3.org/2000/svg">
  <sodipodi:namedview
     id="namedview2369"
     pagecolor="#393939"
     bordercolor="#666666"
     borderopacity="1.0"
     inkscape:showpageshadow="2"
     inkscape:pageopacity="0"
     inkscape:pagecheckerboard="0"
     inkscape:deskcolor="#d1d1d1"
     showgrid="false"
     inkscape:zoom="5.0993119"
     inkscape:cx="97.562183"
     inkscape:cy="42.554761"
     inkscape:window-width="1920"
     inkscape:window-height="1005"
     inkscape:window-x="0"
     inkscape:window-y="0"
     inkscape:window-maximized="1"
     inkscape:current-layer="layer1" />
  <defs
     id="defs2" />
  <g
     id="layer1"
     transform="translate(-48.04912,-49.840421)">
    <g
       aria-label="ceNtRal ArchiVes"
       id="text2630"
       style="font-size:4.23333px;line-height:1.25;font-family:'Cinzel Decorative';-inkscape-font-specification:'Cinzel Decorative';letter-spacing:0.129646px;fill:#ffffff;stroke-width:0.264583">
      <path
         d="m 49.797485,54.54159 q -0.817033,0 -1.282699,-0.410633 -0.465666,-0.410633 -0.465666,-1.126065 0,-0.715433 0.461432,-1.126066 0.461433,-0.414866 1.265766,-0.414866 0.613833,0 1.054099,0.228599 l 0.0085,0.728133 h -0.03387 q -0.2159,-0.778933 -0.986366,-0.778933 -0.499533,0 -0.791632,0.364067 -0.287867,0.359833 -0.287867,0.986366 0,0.626532 0.275167,0.994832 0.279399,0.3683 0.753532,0.381 0.491067,0 0.7493,-0.245533 0.262466,-0.254 0.364066,-0.872066 h 0.03387 l 0.04233,0.728132 q -0.3429,0.567267 -1.159932,0.563033 z"
         style="font-weight:bold"
         id="path1553" />
      <path
         d="m 51.510398,54.444224 q 0.110066,0 0.186266,-0.0762 0.08043,-0.08043 0.08467,-0.1905 v -2.357965 q -0.0127,-0.148166 -0.1397,-0.220133 -0.0635,-0.03387 -0.131233,-0.03387 h -0.05503 v -0.04233 h 1.621365 q 0.131233,0 0.287866,-0.0254 0.156634,-0.0254 0.220133,-0.0508 v 0.740833 h -0.04233 v -0.0508 q 0,-0.1905 -0.1143,-0.3048 -0.110066,-0.118533 -0.300566,-0.127 h -0.7112 v 1.231899 h 0.5588 q 0.156633,-0.0042 0.258233,-0.105833 0.1016,-0.105833 0.1016,-0.258233 v -0.0381 h 0.04233 v 0.977899 h -0.04233 v -0.03387 q 0,-0.211667 -0.169333,-0.313267 -0.08467,-0.04657 -0.186267,-0.0508 H 52.41633 v 1.189566 h 0.554567 q 0.309033,0 0.516466,-0.1778 0.211666,-0.1778 0.313266,-0.503766 h 0.04233 l -0.194734,0.863599 h -2.192864 v -0.04233 z"
         style="font-weight:bold"
         id="path1555" />
      <path
         d="m 58.015442,54.926823 q 0.07197,0.04233 0.160867,0.0762 0.0889,0.0381 0.169333,0.0508 0.08467,0.01693 0.182033,0.01693 0.1016,0 0.207433,-0.0254 l 0.01693,0.04233 q -0.237066,0.1143 -0.478366,0.1143 -0.554566,0 -1.130299,-0.613833 l -2.006598,-2.129365 v 1.731432 q 0,0.105833 0.0762,0.182033 0.0762,0.07197 0.182033,0.07197 h 0.08043 v 0.04233 h -1.282699 v -0.04233 h 0.0762 q 0.110067,0 0.186267,-0.07197 0.0762,-0.0762 0.0762,-0.186266 v -2.374898 q -0.207434,-0.237067 -0.313267,-0.3302 -0.105833,-0.09737 -0.186266,-0.160867 -0.08467,-0.0635 -0.160867,-0.105833 -0.1778,-0.1016 -0.283633,-0.118533 -0.110067,-0.01693 -0.2032,-0.01693 -0.09737,0 -0.207433,0.0381 l -0.01693,-0.04233 q 0.232833,-0.135466 0.478366,-0.135466 0.5334,0 1.130299,0.634999 l 1.892298,2.010832 v -1.761065 q -0.0042,-0.110067 -0.08043,-0.182034 -0.0762,-0.0762 -0.182033,-0.0762 h -0.0762 v -0.04233 h 1.282699 v 0.04233 h -0.08043 q -0.105833,0 -0.182033,0.0762 -0.0762,0.07197 -0.08043,0.1778 v 2.408765 l 0.06773,0.06773 q 0.0254,0.0254 0.0762,0.0889 0.05503,0.05927 0.09737,0.1016 0.04233,0.04657 0.105833,0.1143 0.06773,0.06773 0.122767,0.118533 0.05927,0.0508 0.135466,0.110067 0.08043,0.05927 0.148167,0.09737 z"
         style="font-weight:bold"
         id="path1557" />
      <path
         d="m 59.584419,51.696793 v 2.484964 q 0.0042,0.110067 0.08043,0.186267 0.08043,0.0762 0.1905,0.0762 h 0.0508 l 0.0042,0.04233 h -1.286933 v -0.04233 h 0.05503 q 0.105833,0 0.182033,-0.0762 0.08043,-0.0762 0.0889,-0.182033 v -2.489198 h -0.5715 q -0.194733,0.0042 -0.309033,0.122766 -0.1143,0.118533 -0.1143,0.309033 v 0.0508 h -0.04233 v -0.736599 q 0.05927,0.0254 0.211666,0.0508 0.156634,0.0254 0.287867,0.0254 h 1.706032 q 0.207433,-0.0042 0.338666,-0.03387 0.131233,-0.02963 0.160867,-0.04233 v 0.736599 h -0.04233 v -0.0508 q 0,-0.1905 -0.1143,-0.309033 -0.114299,-0.118533 -0.309033,-0.122766 z"
         style="font-weight:bold"
         id="path1559" />
      <path
         d="m 65.395195,55.206223 q -0.330199,0.1651 -0.702732,0.1651 -0.3302,0 -0.601133,-0.1016 -0.5842,-0.2159 -0.994833,-0.842433 -0.105833,-0.152399 -0.393699,-0.584199 -0.287867,-0.4318 -0.372533,-0.550333 -0.148167,-0.232833 -0.237067,-0.254 v -0.04233 q 0.0042,0 0.0085,0 0.0085,0 0.01693,0 0.0085,0 0.01693,0 0.0085,0 0.02117,0 0.0127,0 0.02117,0 0.215899,0 0.397933,-0.09737 0.275166,-0.1524 0.275166,-0.563033 0,-0.300566 -0.169333,-0.461432 -0.169333,-0.1651 -0.4064,-0.1651 h -0.321733 v 2.468031 q 0,0.110067 0.08043,0.1905 0.08043,0.0762 0.1905,0.0762 h 0.05503 v 0.04233 h -1.286933 v -0.04233 h 0.05503 q 0.105833,0 0.186266,-0.0762 0.08043,-0.0762 0.08467,-0.186267 v -2.349498 q -0.0042,-0.110066 -0.08467,-0.186266 -0.0762,-0.08043 -0.186266,-0.08043 h -0.05503 v -0.04233 h 1.452032 q 0.5461,0 0.846666,0.249767 0.237067,0.194733 0.237067,0.550332 0,0.3556 -0.232833,0.579967 -0.2286,0.220133 -0.524933,0.220133 -0.0254,0 -0.05503,-0.0042 0.173566,0.09313 0.287866,0.207434 0.118533,0.1143 0.2032,0.215899 0.0889,0.1016 0.148166,0.182034 0.0635,0.0762 0.1651,0.207433 0.1016,0.127 0.211667,0.2667 0.110066,0.139699 0.241299,0.287866 0.135467,0.143933 0.296334,0.275166 0.165099,0.131234 0.334433,0.2159 0.359833,0.182033 0.791632,0.186267 z"
         style="font-weight:bold"
         id="path1561" />
      <path
         d="m 67.150442,54.444224 h 0.0381 v 0.04233 H 65.83811 v -0.04233 h 0.0381 q 0.09313,0 0.135467,-0.05503 0.04657,-0.05927 0.04657,-0.110066 0,-0.0508 -0.02117,-0.1016 l -0.207433,-0.5207 h -0.9906 l -0.220133,0.5207 q -0.02117,0.05503 -0.02117,0.105833 0,0.04657 0.04233,0.105833 0.04657,0.05503 0.143933,0.05503 h 0.03387 v 0.04233 h -0.905933 v -0.04233 h 0.0381 q 0.09737,0 0.194733,-0.05927 0.09737,-0.05927 0.160867,-0.1778 l 0.977899,-2.214031 q 0.198967,-0.4191 0.211667,-0.554566 h 0.0381 l 1.257298,2.760131 q 0.0635,0.122766 0.160867,0.186266 0.09737,0.05927 0.198966,0.05927 z m -2.239431,-0.965199 h 0.846666 l -0.410633,-1.0414 z"
         style="font-weight:bold"
         id="path1563" />
      <path
         d="m 67.419788,54.444224 q 0.110066,0 0.186266,-0.0762 0.08043,-0.08043 0.08467,-0.1905 v -2.345265 q -0.0042,-0.110066 -0.08467,-0.186266 -0.0762,-0.08043 -0.186266,-0.08043 h -0.05503 v -0.04233 h 1.286933 l -0.0042,0.04233 h -0.0508 q -0.110066,0 -0.1905,0.08043 -0.08043,0.0762 -0.08043,0.186266 v 2.472265 h 0.554566 q 0.309033,0 0.516467,-0.1778 0.211666,-0.1778 0.313266,-0.503766 h 0.04233 l -0.194733,0.863599 h -2.192865 v -0.04233 z"
         style="font-weight:bold"
         id="path1565" />
      <path
         d="m 75.201703,55.261256 q -0.461433,0.232833 -0.935566,0.0762 -0.503766,-0.160866 -0.867832,-0.685799 -0.194733,-0.2794 -0.334433,-0.6477 l -0.135467,-0.359833 h -0.999066 l -0.224366,0.5334 q -0.02117,0.05503 -0.02117,0.0889 0,0.03387 0.0127,0.0762 0.01693,0.0381 0.0635,0.07197 0.0508,0.02963 0.110067,0.02963 h 0.03387 v 0.04233 h -0.905932 v -0.04233 h 0.0381 q 0.09737,0 0.190499,-0.05503 0.09737,-0.05927 0.160867,-0.173566 l 0.944033,-2.154765 q -0.1651,-0.372533 -0.351367,-0.512233 -0.156633,-0.118533 -0.300566,-0.118533 -0.1397,0 -0.262467,0.04233 l -0.0085,-0.04233 q 0.304799,-0.156633 0.584199,-0.156633 0.347133,0 0.6223,0.270933 0.270933,0.2667 0.478366,0.770466 l 0.613833,1.515532 q 0.347133,0.859366 0.711199,1.181099 0.148167,0.131233 0.3048,0.182033 0.156633,0.0508 0.262466,0.0508 0.110067,0 0.211667,-0.0254 z m -3.200397,-1.799165 h 0.863599 l -0.296333,-0.783166 q -0.02117,-0.05927 -0.05927,-0.160866 -0.0381,-0.105834 -0.0508,-0.148167 z"
         style="font-weight:bold"
         id="path1567" />
      <path
         d="m 75.572649,51.709493 h -0.182033 q -0.0085,0 -0.0127,0 v 2.468031 q 0.0042,0.156633 0.135466,0.232833 0.0635,0.03387 0.135467,0.03387 h 0.05503 v 0.04233 H 74.41695 v -0.04233 h 0.05503 q 0.1524,0 0.232833,-0.131234 0.03387,-0.05927 0.0381,-0.131233 v -2.349498 q -0.0042,-0.110066 -0.08467,-0.186266 -0.0762,-0.08043 -0.186267,-0.08043 h -0.05503 v -0.04233 h 1.452032 q 0.410633,0 0.694266,0.1778 0.143933,0.0889 0.2286,0.249766 0.08467,0.156634 0.08467,0.359834 0,0.198966 -0.07197,0.368299 -0.06773,0.169333 -0.232833,0.296333 -0.160867,0.127 -0.389467,0.1524 0.245533,0.08043 0.4318,0.372533 0.4572,0.732366 0.677333,0.872066 0.110066,0.06773 0.275166,0.07197 v 0.04233 h -0.414866 q -0.359833,0 -0.601133,-0.09737 -0.2413,-0.101599 -0.3937,-0.342899 -0.0762,-0.122767 -0.194733,-0.3683 -0.118533,-0.249766 -0.156633,-0.3556 -0.1143,-0.253999 -0.287866,-0.283633 v -0.04233 h 0.131233 q 0.1905,0 0.334433,-0.1143 0.148166,-0.1143 0.198966,-0.372533 0.01693,-0.0889 0.01693,-0.1397 0,-0.347133 -0.1397,-0.499533 -0.1397,-0.156633 -0.359833,-0.160866 -0.04233,0 -0.127,0 z"
         style="font-weight:bold"
         id="path1569" />
      <path
         d="m 79.326022,54.54159 q -0.817032,0 -1.282698,-0.410633 -0.465667,-0.410633 -0.465667,-1.126065 0,-0.715433 0.461433,-1.126066 0.461433,-0.414866 1.265766,-0.414866 0.613833,0 1.054099,0.228599 l 0.0085,0.728133 h -0.03387 q -0.2159,-0.778933 -0.986366,-0.778933 -0.499533,0 -0.791633,0.364067 -0.287866,0.359833 -0.287866,0.986366 0,0.626532 0.275166,0.994832 0.2794,0.3683 0.753533,0.381 0.491066,0 0.7493,-0.245533 0.262466,-0.254 0.364066,-0.872066 h 0.03387 l 0.04233,0.728132 q -0.3429,0.567267 -1.159933,0.563033 z"
         style="font-weight:bold"
         id="path1571" />
      <path
         d="m 83.045534,54.444224 q 0.110067,0 0.169333,-0.05503 0.09737,-0.09737 0.1016,-0.207433 v -1.079499 h -1.371599 v 1.075266 q 0,0.110067 0.08043,0.1905 0.08043,0.0762 0.1905,0.0762 h 0.0508 l 0.0042,0.04233 h -1.286932 v -0.04233 h 0.05503 q 0.110066,0 0.186266,-0.0762 0.08043,-0.08043 0.08467,-0.1905 V 51.82803 q -0.0042,-0.110067 -0.08467,-0.186267 -0.0762,-0.0762 -0.186266,-0.0762 h -0.05503 v -0.04233 h 1.286932 l -0.0042,0.04233 h -0.0508 q -0.110067,0 -0.1905,0.0762 -0.08043,0.0762 -0.08043,0.186267 v 1.092199 h 1.371599 V 51.82803 q -0.0042,-0.110067 -0.08467,-0.186267 -0.0762,-0.0762 -0.186267,-0.0762 H 82.9905 v -0.04233 h 1.286932 v 0.04233 H 84.2224 q -0.110067,0 -0.1905,0.08043 -0.08043,0.0762 -0.08043,0.186266 v 2.345265 q 0,0.110067 0.08043,0.1905 0.08043,0.0762 0.1905,0.0762 h 0.05503 v 0.04233 h -1.286932 v -0.04233 z"
         style="font-weight:bold"
         id="path1573" />
      <path
         d="m 84.81348,54.444224 q 0.110066,0 0.186266,-0.0762 0.08043,-0.08043 0.08467,-0.1905 v -2.349498 q -0.0042,-0.110067 -0.08467,-0.186267 -0.0762,-0.0762 -0.186266,-0.0762 h -0.05503 v -0.04233 h 1.286933 l -0.0042,0.04233 h -0.0508 q -0.110066,0 -0.1905,0.0762 -0.08043,0.0762 -0.08043,0.186267 v 2.349498 q 0,0.110067 0.08043,0.1905 0.08043,0.0762 0.1905,0.0762 h 0.0508 l 0.0042,0.04233 H 84.75845 v -0.04233 z"
         style="font-weight:bold"
         id="path1575" />
      <path
         d="m 90.26442,50.47336 q 0.105833,0 0.1778,0.0085 v 0.04233 q -0.262467,0.0127 -0.452967,0.127 -0.215899,0.131233 -0.309033,0.245533 -0.0889,0.110067 -0.143933,0.182034 -0.0508,0.06773 -0.1016,0.165099 -0.08043,0.148167 -0.148166,0.2921 l -1.134533,2.480731 q -0.194733,0.4191 -0.207433,0.554567 h -0.0381 l -1.282699,-2.764365 q -0.0635,-0.118533 -0.160866,-0.1778 -0.09737,-0.0635 -0.198967,-0.0635 h -0.03387 v -0.04233 h 1.346199 v 0.04233 h -0.03387 q -0.09313,0 -0.1397,0.05927 -0.04233,0.05503 -0.04233,0.105833 0,0.0508 0.01693,0.1016 l 0.719666,1.748365 0.876299,-2.044698 q 0.198967,-0.469899 0.465667,-0.706966 0.393699,-0.3556 0.825499,-0.3556 z"
         style="font-weight:bold"
         id="path1577" />
      <path
         d="m 89.750598,54.444224 q 0.110067,0 0.186267,-0.0762 0.08043,-0.08043 0.08467,-0.1905 v -2.357965 q -0.0127,-0.148166 -0.1397,-0.220133 -0.0635,-0.03387 -0.131233,-0.03387 h -0.05503 v -0.04233 h 1.621365 q 0.131233,0 0.287867,-0.0254 0.156633,-0.0254 0.220133,-0.0508 v 0.740833 h -0.04233 v -0.0508 q 0,-0.1905 -0.114299,-0.3048 -0.110067,-0.118533 -0.300567,-0.127 h -0.711199 v 1.231899 h 0.558799 q 0.156633,-0.0042 0.258233,-0.105833 0.1016,-0.105833 0.1016,-0.258233 v -0.0381 h 0.04233 v 0.977899 h -0.04233 v -0.03387 q 0,-0.211667 -0.169333,-0.313267 -0.08467,-0.04657 -0.186266,-0.0508 h -0.563033 v 1.189566 h 0.554566 q 0.309033,0 0.516466,-0.1778 0.211667,-0.1778 0.313267,-0.503766 h 0.04233 l -0.194733,0.863599 h -2.192865 v -0.04233 z"
         style="font-weight:bold"
         id="path1579" />
      <path
         d="m 92.530312,54.092857 q 0,-0.304799 0.131233,-0.520699 h 0.0381 q -0.0042,0.03387 -0.0042,0.06773 0,0.2921 0.207433,0.512233 0.211666,0.2159 0.575733,0.2159 0.283633,0 0.440266,-0.135467 0.160867,-0.135466 0.160867,-0.342899 0,-0.249767 -0.338667,-0.436033 l -0.736599,-0.486833 q -0.220133,-0.127 -0.3175,-0.3048 -0.09313,-0.182033 -0.09313,-0.3683 0,-0.397933 0.249766,-0.613833 0.254,-0.215899 0.6477,-0.215899 0.232833,0 0.575733,0.04233 h 0.266699 l -0.05503,0.622299 h -0.04233 q 0,-0.220133 -0.1651,-0.351366 -0.160867,-0.135467 -0.4318,-0.135467 -0.330199,0 -0.478366,0.2032 -0.0762,0.09737 -0.0762,0.220133 0,0.2032 0.296333,0.376767 l 0.808566,0.524933 q 0.381,0.220133 0.381,0.647699 0,0.452966 -0.309033,0.694266 -0.3048,0.237067 -0.812799,0.237067 -0.287867,0 -0.5334,-0.06773 -0.2413,-0.07197 -0.3556,-0.190499 -0.02963,-0.08043 -0.02963,-0.194734 z"
         style="font-weight:bold"
         id="path1581" />
    </g>
    <g
       aria-label="FFXIV character registrations and roleplay profiles"
       id="text92731"
       style="font-weight:bold;font-size:1.49566px;line-height:1.25;font-family:'Roboto Condensed';-inkscape-font-specification:'Roboto Condensed,  Bold';letter-spacing:0.0412865px;fill:#ffffff;stroke-width:0.0934785">
      <path
         d="m 56.765999,56.717907 v -1.211485 h 0.468141 v 0.121149 h -0.299132 v 0.403828 h 0.231827 v 0.119653 h -0.231827 v 0.566855 z"
         style="font-weight:normal;font-family:Oswald;-inkscape-font-specification:Oswald"
         id="path1462" />
      <path
         d="m 57.392089,56.717907 v -1.211485 h 0.468142 v 0.121149 h -0.299132 v 0.403828 h 0.231827 v 0.119653 h -0.231827 v 0.566855 z"
         style="font-weight:normal;font-family:Oswald;-inkscape-font-specification:Oswald"
         id="path1464" />
      <path
         d="m 57.943397,56.717907 0.252766,-0.63416 -0.248279,-0.577325 h 0.157044 l 0.183966,0.427759 0.167514,-0.427759 h 0.157045 l -0.254263,0.590786 0.266228,0.620699 h -0.157044 l -0.197428,-0.456176 -0.170505,0.456176 z"
         style="font-weight:normal;font-family:Oswald;-inkscape-font-specification:Oswald"
         id="path1466" />
      <path
         d="m 58.789349,56.717907 v -1.211485 h 0.166018 v 1.211485 z"
         style="font-weight:normal;font-family:Oswald;-inkscape-font-specification:Oswald"
         id="path1468" />
      <path
         d="m 59.403472,56.717907 -0.270714,-1.211485 h 0.15854 l 0.191444,0.892909 0.182471,-0.892909 h 0.154053 l -0.267724,1.211485 z"
         style="font-weight:normal;font-family:Oswald;-inkscape-font-specification:Oswald"
         id="path1470" />
      <path
         d="m 60.595824,56.729872 q -0.106192,0 -0.161532,-0.04188 -0.05384,-0.04337 -0.07329,-0.121149 -0.01795,-0.07777 -0.01795,-0.180975 v -0.198922 q 0,-0.109184 0.01944,-0.185462 0.01944,-0.07777 0.07329,-0.118157 0.05534,-0.04188 0.160036,-0.04188 0.09423,0 0.145079,0.03141 0.05235,0.02991 0.07179,0.09124 0.01944,0.05983 0.01944,0.149566 v 0.05085 h -0.145079 v -0.05235 q 0,-0.05683 -0.0075,-0.08974 -0.0075,-0.0329 -0.02692,-0.04786 -0.01944,-0.01496 -0.05534,-0.01496 -0.03889,0 -0.05983,0.01795 -0.02094,0.01795 -0.02842,0.06132 -0.006,0.04188 -0.006,0.115166 v 0.27221 q 0,0.110679 0.02094,0.148071 0.02094,0.03739 0.07478,0.03739 0.04038,0 0.05833,-0.01795 0.01944,-0.01944 0.02393,-0.05384 0.006,-0.0344 0.006,-0.07777 v -0.0703 h 0.145079 v 0.05983 q 0,0.08675 -0.02094,0.149566 -0.01944,0.06282 -0.07179,0.09572 -0.05085,0.0329 -0.143583,0.0329 z"
         style="font-weight:normal;font-family:Oswald;-inkscape-font-specification:Oswald"
         id="path1472" />
      <path
         d="m 61.019998,56.717907 v -1.211485 h 0.160036 v 0.436733 q 0.04337,-0.04188 0.09722,-0.07179 0.05384,-0.02991 0.119653,-0.02991 0.05085,0 0.07778,0.02692 0.02842,0.02692 0.03889,0.0673 0.01197,0.04038 0.01197,0.08226 v 0.699969 h -0.160036 v -0.653603 q 0,-0.04637 -0.01346,-0.07179 -0.01346,-0.02543 -0.05534,-0.02543 -0.02842,0 -0.05983,0.01645 -0.02991,0.01645 -0.05683,0.04038 v 0.693986 z"
         style="font-weight:normal;font-family:Oswald;-inkscape-font-specification:Oswald"
         id="path1474" />
      <path
         d="m 61.877914,56.729872 q -0.05085,0 -0.08974,-0.02842 -0.03889,-0.02991 -0.06132,-0.07478 -0.02244,-0.04637 -0.02244,-0.09722 0,-0.08077 0.02692,-0.136105 0.02692,-0.05534 0.07329,-0.09273 0.04786,-0.03889 0.109183,-0.0673 0.06282,-0.02842 0.131618,-0.05534 v -0.06132 q 0,-0.05235 -0.006,-0.08675 -0.006,-0.0344 -0.02543,-0.05085 -0.01795,-0.01795 -0.05534,-0.01795 -0.0329,0 -0.05384,0.01496 -0.01944,0.01496 -0.02842,0.04337 -0.009,0.02692 -0.009,0.06431 v 0.04337 l -0.15854,-0.006 q 0.003,-0.143584 0.06581,-0.210888 0.06282,-0.0688 0.194436,-0.0688 0.128626,0 0.18247,0.0703 0.05384,0.0703 0.05384,0.20341 v 0.394854 q 0,0.04038 0.0015,0.07777 0.003,0.03739 0.006,0.0703 0.0045,0.03141 0.0075,0.05983 h -0.146575 q -0.0045,-0.02393 -0.01197,-0.05983 -0.006,-0.03739 -0.009,-0.06731 -0.01496,0.05085 -0.05833,0.09572 -0.04188,0.04337 -0.116662,0.04337 z m 0.06282,-0.1376 q 0.02393,0 0.04487,-0.01346 0.02094,-0.01346 0.03739,-0.02991 0.01645,-0.01795 0.02244,-0.02842 v -0.245288 q -0.03739,0.02094 -0.0703,0.04188 -0.0329,0.02094 -0.05833,0.04487 -0.02393,0.02244 -0.03889,0.05235 -0.01346,0.02842 -0.01346,0.06581 0,0.05235 0.01944,0.08226 0.01944,0.02991 0.05683,0.02991 z"
         style="font-weight:normal;font-family:Oswald;-inkscape-font-specification:Oswald"
         id="path1476" />
      <path
         d="m 62.405291,56.717907 v -0.864491 h 0.160036 v 0.122644 q 0.04786,-0.07927 0.09572,-0.106192 0.04786,-0.02692 0.09572,-0.02692 0.006,0 0.01047,0 0.006,0 0.01496,0.0015 v 0.176487 q -0.01795,-0.0075 -0.04188,-0.01197 -0.02244,-0.006 -0.04637,-0.006 -0.03739,0 -0.0688,0.01795 -0.02991,0.01645 -0.05983,0.06581 v 0.631169 z"
         style="font-weight:normal;font-family:Oswald;-inkscape-font-specification:Oswald"
         id="path1478" />
      <path
         d="m 63.077745,56.729872 q -0.05085,0 -0.08974,-0.02842 -0.03889,-0.02991 -0.06132,-0.07478 -0.02243,-0.04637 -0.02243,-0.09722 0,-0.08077 0.02692,-0.136105 0.02692,-0.05534 0.07329,-0.09273 0.04786,-0.03889 0.109183,-0.0673 0.06282,-0.02842 0.131618,-0.05534 v -0.06132 q 0,-0.05235 -0.006,-0.08675 -0.006,-0.0344 -0.02543,-0.05085 -0.01795,-0.01795 -0.05534,-0.01795 -0.0329,0 -0.05384,0.01496 -0.01944,0.01496 -0.02842,0.04337 -0.009,0.02692 -0.009,0.06431 v 0.04337 l -0.15854,-0.006 q 0.003,-0.143584 0.06581,-0.210888 0.06282,-0.0688 0.194436,-0.0688 0.128627,0 0.182471,0.0703 0.05384,0.0703 0.05384,0.20341 v 0.394854 q 0,0.04038 0.0015,0.07777 0.003,0.03739 0.006,0.0703 0.0045,0.03141 0.0075,0.05983 h -0.146575 q -0.0045,-0.02393 -0.01197,-0.05983 -0.006,-0.03739 -0.009,-0.06731 -0.01496,0.05085 -0.05833,0.09572 -0.04188,0.04337 -0.116661,0.04337 z m 0.06282,-0.1376 q 0.02393,0 0.04487,-0.01346 0.02094,-0.01346 0.03739,-0.02991 0.01645,-0.01795 0.02243,-0.02842 v -0.245288 q -0.03739,0.02094 -0.0703,0.04188 -0.0329,0.02094 -0.05833,0.04487 -0.02393,0.02244 -0.03889,0.05235 -0.01346,0.02842 -0.01346,0.06581 0,0.05235 0.01944,0.08226 0.01944,0.02991 0.05683,0.02991 z"
         style="font-weight:normal;font-family:Oswald;-inkscape-font-specification:Oswald"
         id="path1480" />
      <path
         d="m 63.836949,56.729872 q -0.106192,0 -0.161531,-0.04188 -0.05384,-0.04337 -0.07329,-0.121149 -0.01795,-0.07777 -0.01795,-0.180975 v -0.198922 q 0,-0.109184 0.01944,-0.185462 0.01944,-0.07777 0.07329,-0.118157 0.05534,-0.04188 0.160035,-0.04188 0.09423,0 0.145079,0.03141 0.05235,0.02991 0.07179,0.09124 0.01944,0.05983 0.01944,0.149566 v 0.05085 h -0.14508 v -0.05235 q 0,-0.05683 -0.0075,-0.08974 -0.0075,-0.0329 -0.02692,-0.04786 -0.01944,-0.01496 -0.05534,-0.01496 -0.03889,0 -0.05983,0.01795 -0.02094,0.01795 -0.02842,0.06132 -0.006,0.04188 -0.006,0.115166 v 0.27221 q 0,0.110679 0.02094,0.148071 0.02094,0.03739 0.07478,0.03739 0.04038,0 0.05833,-0.01795 0.01944,-0.01944 0.02393,-0.05384 0.006,-0.0344 0.006,-0.07777 v -0.0703 h 0.14508 v 0.05983 q 0,0.08675 -0.02094,0.149566 -0.01944,0.06282 -0.07179,0.09572 -0.05085,0.0329 -0.143584,0.0329 z"
         style="font-weight:normal;font-family:Oswald;-inkscape-font-specification:Oswald"
         id="path1482" />
      <path
         d="m 64.486968,56.729872 q -0.06731,0 -0.109183,-0.02543 -0.04038,-0.02543 -0.05983,-0.07179 -0.01795,-0.04637 -0.01795,-0.109183 v -0.563864 h -0.09124 v -0.106191 h 0.09124 v -0.252767 h 0.160035 v 0.252767 h 0.139097 v 0.106191 H 64.46004 V 56.513 q 0,0.05085 0.01645,0.07329 0.01645,0.02094 0.06282,0.02094 0.01197,0 0.02692,-0.0015 0.01645,-0.0015 0.03141,-0.003 v 0.118157 q -0.02991,0.0045 -0.05534,0.006 -0.02543,0.003 -0.05534,0.003 z"
         style="font-weight:normal;font-family:Oswald;-inkscape-font-specification:Oswald"
         id="path1484" />
      <path
         d="m 64.997892,56.729872 q -0.101704,0 -0.157044,-0.03889 -0.05534,-0.04038 -0.07777,-0.116661 -0.02094,-0.07777 -0.02094,-0.189949 v -0.197427 q 0,-0.115166 0.02243,-0.191445 0.02244,-0.07628 0.07778,-0.115166 0.05684,-0.03889 0.155548,-0.03889 0.109184,0 0.160036,0.04487 0.05235,0.04487 0.0688,0.130122 0.01645,0.08376 0.01645,0.201915 v 0.0703 H 64.90217 v 0.173496 q 0,0.05235 0.009,0.08525 0.01047,0.0329 0.03141,0.04936 0.02244,0.01496 0.05683,0.01496 0.0359,0 0.05384,-0.01645 0.01944,-0.01795 0.02543,-0.04936 0.0075,-0.0329 0.0075,-0.07628 v -0.05235 h 0.155549 v 0.0329 q 0,0.130122 -0.05534,0.204905 -0.05534,0.07478 -0.188454,0.07478 z m -0.09572,-0.527968 h 0.183966 v -0.07777 q 0,-0.05384 -0.006,-0.08974 -0.006,-0.03739 -0.02543,-0.05534 -0.01795,-0.01944 -0.05833,-0.01944 -0.03889,0 -0.05983,0.01795 -0.01944,0.01795 -0.02692,0.06132 -0.0075,0.04188 -0.0075,0.116662 z"
         style="font-weight:normal;font-family:Oswald;-inkscape-font-specification:Oswald"
         id="path1486" />
      <path
         d="m 65.434032,56.717907 v -0.864491 h 0.160036 v 0.122644 q 0.04786,-0.07927 0.09572,-0.106192 0.04786,-0.02692 0.09572,-0.02692 0.006,0 0.01047,0 0.006,0 0.01496,0.0015 v 0.176487 q -0.01795,-0.0075 -0.04188,-0.01197 -0.02244,-0.006 -0.04636,-0.006 -0.03739,0 -0.0688,0.01795 -0.02991,0.01645 -0.05983,0.06581 v 0.631169 z"
         style="font-weight:normal;font-family:Oswald;-inkscape-font-specification:Oswald"
         id="path1488" />
      <path
         d="m 66.339218,56.717907 v -0.864491 h 0.160036 v 0.122644 q 0.04786,-0.07927 0.09572,-0.106192 0.04786,-0.02692 0.09572,-0.02692 0.006,0 0.01047,0 0.006,0 0.01496,0.0015 v 0.176487 q -0.01795,-0.0075 -0.04188,-0.01197 -0.02244,-0.006 -0.04637,-0.006 -0.03739,0 -0.0688,0.01795 -0.02991,0.01645 -0.05983,0.06581 v 0.631169 z"
         style="font-weight:normal;font-family:Oswald;-inkscape-font-specification:Oswald"
         id="path1490" />
      <path
         d="m 67.095428,56.729872 q -0.101704,0 -0.157044,-0.03889 -0.05534,-0.04038 -0.07777,-0.116661 -0.02094,-0.07777 -0.02094,-0.189949 v -0.197427 q 0,-0.115166 0.02244,-0.191445 0.02243,-0.07628 0.07777,-0.115166 0.05683,-0.03889 0.155548,-0.03889 0.109184,0 0.160036,0.04487 0.05235,0.04487 0.0688,0.130122 0.01645,0.08376 0.01645,0.201915 v 0.0703 h -0.341011 v 0.173496 q 0,0.05235 0.009,0.08525 0.01047,0.0329 0.03141,0.04936 0.02244,0.01496 0.05684,0.01496 0.0359,0 0.05384,-0.01645 0.01944,-0.01795 0.02543,-0.04936 0.0075,-0.0329 0.0075,-0.07628 v -0.05235 h 0.155549 v 0.0329 q 0,0.130122 -0.05534,0.204905 -0.05534,0.07478 -0.188454,0.07478 z m -0.09572,-0.527968 h 0.183966 v -0.07777 q 0,-0.05384 -0.006,-0.08974 -0.006,-0.03739 -0.02543,-0.05534 -0.01795,-0.01944 -0.05833,-0.01944 -0.03889,0 -0.05983,0.01795 -0.01944,0.01795 -0.02692,0.06132 -0.0075,0.04188 -0.0075,0.116662 z"
         style="font-weight:normal;font-family:Oswald;-inkscape-font-specification:Oswald"
         id="path1492" />
      <path
         d="m 67.75143,56.98563 q -0.07777,0 -0.140592,-0.01645 -0.06282,-0.01645 -0.09871,-0.05235 -0.0359,-0.0359 -0.0359,-0.09423 0,-0.04188 0.01795,-0.07329 0.01795,-0.03141 0.04637,-0.05384 0.02842,-0.02393 0.05983,-0.03889 -0.04188,-0.01196 -0.06282,-0.03739 -0.02094,-0.02692 -0.02094,-0.05534 0,-0.04786 0.02543,-0.08226 0.02543,-0.0344 0.0703,-0.07478 -0.04936,-0.03739 -0.07478,-0.09572 -0.02543,-0.05833 -0.02543,-0.161531 0,-0.101705 0.02692,-0.169009 0.02842,-0.0688 0.08226,-0.103201 0.05534,-0.0359 0.134609,-0.0359 0.0703,0 0.112175,0.02393 0.04337,0.02393 0.06581,0.07179 0.0075,-0.01196 0.04038,-0.04038 0.0329,-0.02991 0.07628,-0.04936 l 0.02393,-0.01047 0.04038,0.103201 q -0.01944,0.003 -0.05235,0.01496 -0.03141,0.01047 -0.05983,0.02244 -0.02692,0.01047 -0.0344,0.01795 0.01047,0.02543 0.01795,0.07329 0.009,0.04786 0.009,0.08525 0,0.08824 -0.02244,0.155549 -0.02243,0.0673 -0.07478,0.106192 -0.05085,0.03739 -0.142088,0.03739 -0.01944,0 -0.04188,-0.003 -0.02244,-0.003 -0.04038,-0.0075 -0.009,0.01346 -0.01944,0.03141 -0.009,0.01795 -0.009,0.0344 0,0.01645 0.01645,0.02692 0.01795,0.009 0.05534,0.01197 l 0.13461,0.01197 q 0.101704,0.009 0.151061,0.06132 0.04936,0.05235 0.04936,0.149566 0,0.0703 -0.0329,0.118157 -0.0329,0.04936 -0.10021,0.07329 -0.06581,0.02393 -0.167514,0.02393 z m 0.01197,-0.125635 q 0.08525,0 0.125635,-0.02094 0.04038,-0.01944 0.04038,-0.06431 0,-0.02692 -0.01047,-0.04487 -0.009,-0.01795 -0.0344,-0.02842 -0.02543,-0.01047 -0.07329,-0.01496 l -0.136105,-0.01197 q -0.01645,0.01645 -0.03141,0.0329 -0.01496,0.01645 -0.02393,0.0344 -0.009,0.01944 -0.009,0.04038 0,0.03889 0.0329,0.05833 0.0329,0.01944 0.119653,0.01944 z m -0.0075,-0.518994 q 0.0344,0 0.05384,-0.01197 0.02094,-0.01346 0.03141,-0.03739 0.01047,-0.02543 0.01346,-0.06132 0.0045,-0.0359 0.0045,-0.08077 0,-0.04487 -0.0045,-0.08076 -0.003,-0.03739 -0.01346,-0.06282 -0.009,-0.02692 -0.02991,-0.04038 -0.01944,-0.01346 -0.05384,-0.01346 -0.0329,0 -0.05534,0.01346 -0.02094,0.01346 -0.03141,0.03889 -0.01047,0.02393 -0.01496,0.06132 -0.0045,0.0359 -0.0045,0.08376 0,0.04038 0.003,0.07628 0.0045,0.0344 0.01496,0.05983 0.01197,0.02543 0.0329,0.04038 0.02094,0.01496 0.05384,0.01496 z"
         style="font-weight:normal;font-family:Oswald;-inkscape-font-specification:Oswald"
         id="path1494" />
      <path
         d="m 68.229448,56.717907 v -0.864491 h 0.160036 v 0.864491 z m 0,-0.993118 v -0.167514 h 0.160036 v 0.167514 z"
         style="font-weight:normal;font-family:Oswald;-inkscape-font-specification:Oswald"
         id="path1496" />
      <path
         d="m 68.80319,56.729872 q -0.106192,0 -0.170505,-0.06581 -0.06431,-0.0673 -0.07329,-0.176488 l 0.133113,-0.04038 q 0.01197,0.08226 0.04038,0.124139 0.02842,0.04038 0.08376,0.04038 0.04337,0 0.06581,-0.02393 0.02244,-0.02543 0.02244,-0.0673 0,-0.03739 -0.01645,-0.0673 -0.01645,-0.02991 -0.05384,-0.06132 l -0.14807,-0.127131 q -0.04487,-0.03889 -0.07628,-0.08675 -0.02991,-0.04786 -0.02991,-0.12414 0,-0.0688 0.02692,-0.115166 0.02842,-0.04786 0.07777,-0.07179 0.05085,-0.02543 0.118157,-0.02543 0.103201,0 0.157044,0.0673 0.05534,0.06581 0.06282,0.160036 l -0.107687,0.04038 q -0.006,-0.04487 -0.01795,-0.07777 -0.01197,-0.0344 -0.0329,-0.05235 -0.02094,-0.01944 -0.05534,-0.01944 -0.03889,0 -0.06282,0.02692 -0.02243,0.02543 -0.02243,0.06132 0,0.02244 0.009,0.04487 0.01047,0.02094 0.0344,0.04188 l 0.152558,0.140592 q 0.03141,0.02842 0.05833,0.06132 0.02842,0.0329 0.04637,0.07478 0.01795,0.04188 0.01795,0.09722 0,0.07329 -0.02991,0.122644 -0.02991,0.04936 -0.08376,0.07478 -0.05384,0.02393 -0.125636,0.02393 z"
         style="font-weight:normal;font-family:Oswald;-inkscape-font-specification:Oswald"
         id="path1498" />
      <path
         d="m 69.433767,56.729872 q -0.0673,0 -0.109183,-0.02543 -0.04038,-0.02543 -0.05983,-0.07179 -0.01795,-0.04637 -0.01795,-0.109183 v -0.563864 h -0.09123 v -0.106191 h 0.09123 v -0.252767 h 0.160036 v 0.252767 h 0.139096 v 0.106191 H 69.40684 V 56.513 q 0,0.05085 0.01645,0.07329 0.01645,0.02094 0.06282,0.02094 0.01197,0 0.02692,-0.0015 0.01645,-0.0015 0.03141,-0.003 v 0.118157 q -0.02991,0.0045 -0.05534,0.006 -0.02543,0.003 -0.05534,0.003 z"
         style="font-weight:normal;font-family:Oswald;-inkscape-font-specification:Oswald"
         id="path1500" />
      <path
         d="m 69.709873,56.717907 v -0.864491 h 0.160036 v 0.122644 q 0.04786,-0.07927 0.09572,-0.106192 0.04786,-0.02692 0.09572,-0.02692 0.006,0 0.01047,0 0.006,0 0.01496,0.0015 v 0.176487 q -0.01795,-0.0075 -0.04188,-0.01197 -0.02244,-0.006 -0.04637,-0.006 -0.03739,0 -0.0688,0.01795 -0.02991,0.01645 -0.05983,0.06581 v 0.631169 z"
         style="font-weight:normal;font-family:Oswald;-inkscape-font-specification:Oswald"
         id="path1502" />
      <path
         d="m 70.382328,56.729872 q -0.05085,0 -0.08974,-0.02842 -0.03889,-0.02991 -0.06132,-0.07478 -0.02244,-0.04637 -0.02244,-0.09722 0,-0.08077 0.02692,-0.136105 0.02692,-0.05534 0.07329,-0.09273 0.04786,-0.03889 0.109183,-0.0673 0.06282,-0.02842 0.131618,-0.05534 v -0.06132 q 0,-0.05235 -0.006,-0.08675 -0.006,-0.0344 -0.02543,-0.05085 -0.01795,-0.01795 -0.05534,-0.01795 -0.0329,0 -0.05384,0.01496 -0.01944,0.01496 -0.02842,0.04337 -0.009,0.02692 -0.009,0.06431 v 0.04337 l -0.15854,-0.006 q 0.003,-0.143584 0.06581,-0.210888 0.06282,-0.0688 0.194436,-0.0688 0.128627,0 0.18247,0.0703 0.05384,0.0703 0.05384,0.20341 v 0.394854 q 0,0.04038 0.0015,0.07777 0.003,0.03739 0.006,0.0703 0.0045,0.03141 0.0075,0.05983 H 70.57825 q -0.0045,-0.02393 -0.01197,-0.05983 -0.006,-0.03739 -0.009,-0.06731 -0.01496,0.05085 -0.05833,0.09572 -0.04188,0.04337 -0.116661,0.04337 z m 0.06282,-0.1376 q 0.02393,0 0.04487,-0.01346 0.02094,-0.01346 0.03739,-0.02991 0.01645,-0.01795 0.02243,-0.02842 v -0.245288 q -0.03739,0.02094 -0.0703,0.04188 -0.0329,0.02094 -0.05833,0.04487 -0.02393,0.02244 -0.03889,0.05235 -0.01346,0.02842 -0.01346,0.06581 0,0.05235 0.01944,0.08226 0.01944,0.02991 0.05683,0.02991 z"
         style="font-weight:normal;font-family:Oswald;-inkscape-font-specification:Oswald"
         id="path1504" />
      <path
         d="m 71.123584,56.729872 q -0.0673,0 -0.109183,-0.02543 -0.04038,-0.02543 -0.05983,-0.07179 -0.01795,-0.04637 -0.01795,-0.109183 v -0.563864 h -0.09123 v -0.106191 h 0.09123 v -0.252767 h 0.160036 v 0.252767 h 0.139096 v 0.106191 H 71.096657 V 56.513 q 0,0.05085 0.01645,0.07329 0.01645,0.02094 0.06282,0.02094 0.01197,0 0.02692,-0.0015 0.01645,-0.0015 0.03141,-0.003 v 0.118157 q -0.02991,0.0045 -0.05534,0.006 -0.02543,0.003 -0.05534,0.003 z"
         style="font-weight:normal;font-family:Oswald;-inkscape-font-specification:Oswald"
         id="path1506" />
      <path
         d="m 71.405673,56.717907 v -0.864491 h 0.160036 v 0.864491 z m 0,-0.993118 v -0.167514 h 0.160036 v 0.167514 z"
         style="font-weight:normal;font-family:Oswald;-inkscape-font-specification:Oswald"
         id="path1508" />
      <path
         d="m 72.016806,56.729872 q -0.09572,0 -0.151061,-0.03889 -0.05534,-0.03889 -0.07927,-0.110679 -0.02244,-0.07179 -0.02244,-0.169009 v -0.251271 q 0,-0.09722 0.02244,-0.16901 0.02393,-0.07179 0.07927,-0.110679 0.05534,-0.03889 0.151061,-0.03889 0.09572,0 0.149566,0.03889 0.05534,0.03889 0.07778,0.110679 0.02393,0.07179 0.02393,0.16901 v 0.251271 q 0,0.09722 -0.02393,0.169009 -0.02244,0.07179 -0.07778,0.110679 -0.05384,0.03889 -0.149566,0.03889 z m 0,-0.118157 q 0.04637,0 0.06431,-0.02692 0.01944,-0.02692 0.02244,-0.0703 0.0045,-0.04487 0.0045,-0.09273 v -0.270714 q 0,-0.04936 -0.0045,-0.09273 -0.003,-0.04337 -0.02244,-0.0703 -0.01795,-0.02842 -0.06431,-0.02842 -0.04637,0 -0.06581,0.02842 -0.01944,0.02692 -0.02393,0.0703 -0.003,0.04337 -0.003,0.09273 v 0.270714 q 0,0.04786 0.003,0.09273 0.0045,0.04337 0.02393,0.0703 0.01944,0.02692 0.06581,0.02692 z"
         style="font-weight:normal;font-family:Oswald;-inkscape-font-specification:Oswald"
         id="path1510" />
      <path
         d="m 72.455937,56.717907 v -0.864491 h 0.160036 v 0.08525 q 0.04337,-0.04038 0.09572,-0.0688 0.05235,-0.02842 0.115166,-0.02842 0.05235,0 0.07927,0.02692 0.02842,0.02692 0.03889,0.0673 0.01196,0.04038 0.01196,0.08226 v 0.699969 h -0.160035 v -0.653603 q 0,-0.04637 -0.01346,-0.07179 -0.01346,-0.02543 -0.05534,-0.02543 -0.02692,0 -0.05684,0.01645 -0.02842,0.01496 -0.05534,0.03739 v 0.696978 z"
         style="font-weight:normal;font-family:Oswald;-inkscape-font-specification:Oswald"
         id="path1512" />
      <path
         d="m 73.354236,56.729872 q -0.106192,0 -0.170506,-0.06581 -0.06431,-0.0673 -0.07329,-0.176488 l 0.133114,-0.04038 q 0.01197,0.08226 0.04038,0.124139 0.02842,0.04038 0.08376,0.04038 0.04338,0 0.06581,-0.02393 0.02244,-0.02543 0.02244,-0.0673 0,-0.03739 -0.01645,-0.0673 -0.01645,-0.02991 -0.05384,-0.06132 l -0.14807,-0.127131 q -0.04487,-0.03889 -0.07628,-0.08675 -0.02991,-0.04786 -0.02991,-0.12414 0,-0.0688 0.02692,-0.115166 0.02842,-0.04786 0.07777,-0.07179 0.05085,-0.02543 0.118158,-0.02543 0.1032,0 0.157044,0.0673 0.05534,0.06581 0.06282,0.160036 l -0.107688,0.04038 q -0.006,-0.04487 -0.01795,-0.07777 -0.01197,-0.0344 -0.0329,-0.05235 -0.02094,-0.01944 -0.05534,-0.01944 -0.03889,0 -0.06282,0.02692 -0.02243,0.02543 -0.02243,0.06132 0,0.02244 0.009,0.04487 0.01047,0.02094 0.0344,0.04188 l 0.152557,0.140592 q 0.03141,0.02842 0.05833,0.06132 0.02842,0.0329 0.04636,0.07478 0.01795,0.04188 0.01795,0.09722 0,0.07329 -0.02991,0.122644 -0.02991,0.04936 -0.08376,0.07478 -0.05384,0.02393 -0.125635,0.02393 z"
         style="font-weight:normal;font-family:Oswald;-inkscape-font-specification:Oswald"
         id="path1514" />
      <path
         d="m 74.293823,56.729872 q -0.05085,0 -0.08974,-0.02842 -0.03889,-0.02991 -0.06132,-0.07478 -0.02243,-0.04637 -0.02243,-0.09722 0,-0.08077 0.02692,-0.136105 0.02692,-0.05534 0.07329,-0.09273 0.04786,-0.03889 0.109184,-0.0673 0.06282,-0.02842 0.131618,-0.05534 v -0.06132 q 0,-0.05235 -0.006,-0.08675 -0.006,-0.0344 -0.02543,-0.05085 -0.01795,-0.01795 -0.05534,-0.01795 -0.0329,0 -0.05384,0.01496 -0.01944,0.01496 -0.02842,0.04337 -0.009,0.02692 -0.009,0.06431 v 0.04337 l -0.15854,-0.006 q 0.003,-0.143584 0.06581,-0.210888 0.06282,-0.0688 0.194436,-0.0688 0.128627,0 0.182471,0.0703 0.05384,0.0703 0.05384,0.20341 v 0.394854 q 0,0.04038 0.0015,0.07777 0.003,0.03739 0.006,0.0703 0.0045,0.03141 0.0075,0.05983 h -0.146575 q -0.0045,-0.02393 -0.01197,-0.05983 -0.006,-0.03739 -0.009,-0.06731 -0.01496,0.05085 -0.05833,0.09572 -0.04188,0.04337 -0.116661,0.04337 z m 0.06282,-0.1376 q 0.02393,0 0.04487,-0.01346 0.02094,-0.01346 0.03739,-0.02991 0.01645,-0.01795 0.02244,-0.02842 v -0.245288 q -0.03739,0.02094 -0.0703,0.04188 -0.0329,0.02094 -0.05833,0.04487 -0.02393,0.02244 -0.03889,0.05235 -0.01346,0.02842 -0.01346,0.06581 0,0.05235 0.01944,0.08226 0.01944,0.02991 0.05683,0.02991 z"
         style="font-weight:normal;font-family:Oswald;-inkscape-font-specification:Oswald"
         id="path1516" />
      <path
         d="m 74.816712,56.717907 v -0.864491 h 0.160036 v 0.08525 q 0.04337,-0.04038 0.09572,-0.0688 0.05235,-0.02842 0.115166,-0.02842 0.05235,0 0.07927,0.02692 0.02842,0.02692 0.03889,0.0673 0.01197,0.04038 0.01197,0.08226 v 0.699969 h -0.160035 v -0.653603 q 0,-0.04637 -0.01346,-0.07179 -0.01346,-0.02543 -0.05534,-0.02543 -0.02692,0 -0.05683,0.01645 -0.02842,0.01496 -0.05534,0.03739 v 0.696978 z"
         style="font-weight:normal;font-family:Oswald;-inkscape-font-specification:Oswald"
         id="path1518" />
      <path
         d="m 75.715011,56.729872 q -0.109184,0 -0.163027,-0.07927 -0.05384,-0.08076 -0.05384,-0.27221 v -0.167514 q 0,-0.09871 0.01645,-0.18247 0.01645,-0.08525 0.06132,-0.136105 0.04637,-0.05085 0.13461,-0.05085 0.04337,0 0.07927,0.01944 0.03589,0.01944 0.06431,0.04786 V 55.50642 h 0.160036 v 1.211485 h -0.160036 v -0.05534 q -0.02842,0.02991 -0.06282,0.04936 -0.0329,0.01795 -0.07628,0.01795 z m 0.04038,-0.125635 q 0.02244,0 0.04786,-0.0075 0.02543,-0.009 0.05085,-0.02543 v -0.566855 q -0.02094,-0.01496 -0.04637,-0.02543 -0.02543,-0.01196 -0.05534,-0.01196 -0.05534,0 -0.07478,0.05384 -0.01944,0.05235 -0.01944,0.127132 v 0.243792 q 0,0.05983 0.006,0.109183 0.0075,0.04786 0.02842,0.07628 0.02094,0.02692 0.06282,0.02692 z"
         style="font-weight:normal;font-family:Oswald;-inkscape-font-specification:Oswald"
         id="path1520" />
      <path
         d="m 76.60524,56.717907 v -0.864491 h 0.160035 v 0.122644 q 0.04786,-0.07927 0.09572,-0.106192 0.04786,-0.02692 0.09572,-0.02692 0.006,0 0.01047,0 0.006,0 0.01496,0.0015 v 0.176487 q -0.01795,-0.0075 -0.04188,-0.01197 -0.02244,-0.006 -0.04637,-0.006 -0.03739,0 -0.0688,0.01795 -0.02991,0.01645 -0.05983,0.06581 v 0.631169 z"
         style="font-weight:normal;font-family:Oswald;-inkscape-font-specification:Oswald"
         id="path1522" />
      <path
         d="m 77.359954,56.729872 q -0.09572,0 -0.151062,-0.03889 -0.05534,-0.03889 -0.07927,-0.110679 -0.02244,-0.07179 -0.02244,-0.169009 v -0.251271 q 0,-0.09722 0.02244,-0.16901 0.02393,-0.07179 0.07927,-0.110679 0.05534,-0.03889 0.151062,-0.03889 0.09572,0 0.149566,0.03889 0.05534,0.03889 0.07777,0.110679 0.02393,0.07179 0.02393,0.16901 v 0.251271 q 0,0.09722 -0.02393,0.169009 -0.02244,0.07179 -0.07777,0.110679 -0.05384,0.03889 -0.149566,0.03889 z m 0,-0.118157 q 0.04636,0 0.06431,-0.02692 0.01944,-0.02692 0.02244,-0.0703 0.0045,-0.04487 0.0045,-0.09273 v -0.270714 q 0,-0.04936 -0.0045,-0.09273 -0.003,-0.04337 -0.02244,-0.0703 -0.01795,-0.02842 -0.06431,-0.02842 -0.04637,0 -0.06581,0.02842 -0.01944,0.02692 -0.02393,0.0703 -0.003,0.04337 -0.003,0.09273 v 0.270714 q 0,0.04786 0.003,0.09273 0.0045,0.04337 0.02393,0.0703 0.01944,0.02692 0.06581,0.02692 z"
         style="font-weight:normal;font-family:Oswald;-inkscape-font-specification:Oswald"
         id="path1524" />
      <path
         d="m 77.814041,56.717907 v -1.211485 h 0.160036 v 1.211485 z"
         style="font-weight:normal;font-family:Oswald;-inkscape-font-specification:Oswald"
         id="path1526" />
      <path
         d="m 78.422183,56.729872 q -0.101705,0 -0.157044,-0.03889 -0.05534,-0.04038 -0.07778,-0.116661 -0.02094,-0.07777 -0.02094,-0.189949 v -0.197427 q 0,-0.115166 0.02244,-0.191445 0.02244,-0.07628 0.07777,-0.115166 0.05684,-0.03889 0.155549,-0.03889 0.109183,0 0.160036,0.04487 0.05235,0.04487 0.0688,0.130122 0.01645,0.08376 0.01645,0.201915 v 0.0703 h -0.34101 v 0.173496 q 0,0.05235 0.009,0.08525 0.01047,0.0329 0.03141,0.04936 0.02244,0.01496 0.05684,0.01496 0.0359,0 0.05384,-0.01645 0.01944,-0.01795 0.02543,-0.04936 0.0075,-0.0329 0.0075,-0.07628 v -0.05235 h 0.155549 v 0.0329 q 0,0.130122 -0.05534,0.204905 -0.05534,0.07478 -0.188453,0.07478 z m -0.09572,-0.527968 h 0.183966 v -0.07777 q 0,-0.05384 -0.006,-0.08974 -0.006,-0.03739 -0.02543,-0.05534 -0.01795,-0.01944 -0.05833,-0.01944 -0.03889,0 -0.05983,0.01795 -0.01944,0.01795 -0.02692,0.06132 -0.0075,0.04188 -0.0075,0.116662 z"
         style="font-weight:normal;font-family:Oswald;-inkscape-font-specification:Oswald"
         id="path1528" />
      <path
         d="m 78.853837,57.002082 v -1.148666 h 0.160036 v 0.0688 q 0.02842,-0.0329 0.0688,-0.05683 0.04038,-0.02393 0.09572,-0.02393 0.06731,0 0.106192,0.0359 0.04038,0.0344 0.05983,0.08824 0.01944,0.05235 0.02543,0.107688 0.006,0.05384 0.006,0.09273 v 0.209393 q 0,0.09124 -0.01795,0.173496 -0.01795,0.08077 -0.06581,0.131618 -0.04636,0.04936 -0.131618,0.04936 -0.04637,0 -0.08226,-0.02244 -0.0359,-0.02393 -0.06431,-0.05384 v 0.348488 z m 0.275201,-0.397845 q 0.04188,0 0.05983,-0.02991 0.01795,-0.03141 0.02243,-0.08376 0.0045,-0.05235 0.0045,-0.115166 v -0.209393 q 0,-0.05384 -0.006,-0.09871 -0.006,-0.04637 -0.02543,-0.07329 -0.01944,-0.02692 -0.06132,-0.02692 -0.03141,0 -0.05983,0.01346 -0.02842,0.01346 -0.04936,0.03141 v 0.553395 q 0.02243,0.01645 0.05085,0.02842 0.02842,0.01047 0.06431,0.01047 z"
         style="font-weight:normal;font-family:Oswald;-inkscape-font-specification:Oswald"
         id="path1530" />
      <path
         d="m 79.577143,56.717907 v -1.211485 h 0.160035 v 1.211485 z"
         style="font-weight:normal;font-family:Oswald;-inkscape-font-specification:Oswald"
         id="path1532" />
      <path
         d="m 80.101528,56.729872 q -0.05085,0 -0.08974,-0.02842 -0.03889,-0.02991 -0.06132,-0.07478 -0.02244,-0.04637 -0.02244,-0.09722 0,-0.08077 0.02692,-0.136105 0.02692,-0.05534 0.07329,-0.09273 0.04786,-0.03889 0.109184,-0.0673 0.06282,-0.02842 0.131618,-0.05534 v -0.06132 q 0,-0.05235 -0.006,-0.08675 -0.006,-0.0344 -0.02543,-0.05085 -0.01795,-0.01795 -0.05534,-0.01795 -0.0329,0 -0.05384,0.01496 -0.01944,0.01496 -0.02842,0.04337 -0.009,0.02692 -0.009,0.06431 v 0.04337 l -0.15854,-0.006 q 0.003,-0.143584 0.06581,-0.210888 0.06282,-0.0688 0.194436,-0.0688 0.128627,0 0.18247,0.0703 0.05384,0.0703 0.05384,0.20341 v 0.394854 q 0,0.04038 0.0015,0.07777 0.003,0.03739 0.006,0.0703 0.0045,0.03141 0.0075,0.05983 h -0.146575 q -0.0045,-0.02393 -0.01197,-0.05983 -0.006,-0.03739 -0.009,-0.06731 -0.01496,0.05085 -0.05833,0.09572 -0.04188,0.04337 -0.116661,0.04337 z m 0.06282,-0.1376 q 0.02393,0 0.04487,-0.01346 0.02094,-0.01346 0.03739,-0.02991 0.01645,-0.01795 0.02244,-0.02842 v -0.245288 q -0.03739,0.02094 -0.0703,0.04188 -0.0329,0.02094 -0.05833,0.04487 -0.02393,0.02244 -0.03889,0.05235 -0.01346,0.02842 -0.01346,0.06581 0,0.05235 0.01944,0.08226 0.01944,0.02991 0.05683,0.02991 z"
         style="font-weight:normal;font-family:Oswald;-inkscape-font-specification:Oswald"
         id="path1534" />
      <path
         d="m 80.610956,56.934778 v -0.122644 q 0.05833,0 0.09273,-0.006 0.0344,-0.0045 0.04936,-0.01944 0.01496,-0.01346 0.01496,-0.03889 0,-0.01346 -0.01047,-0.05983 -0.01047,-0.04637 -0.02244,-0.09871 L 80.5616,55.853416 h 0.161531 l 0.116661,0.646125 0.112175,-0.646125 h 0.161531 l -0.206401,0.912352 q -0.01346,0.06282 -0.04936,0.09871 -0.0359,0.03739 -0.09273,0.05384 -0.05534,0.01645 -0.134609,0.01645 z"
         style="font-weight:normal;font-family:Oswald;-inkscape-font-specification:Oswald"
         id="path1536" />
      <path
         d="m 81.635796,57.002082 v -1.148666 h 0.160036 v 0.0688 q 0.02842,-0.0329 0.0688,-0.05683 0.04038,-0.02393 0.09572,-0.02393 0.0673,0 0.106192,0.0359 0.04038,0.0344 0.05983,0.08824 0.01944,0.05235 0.02543,0.107688 0.006,0.05384 0.006,0.09273 v 0.209393 q 0,0.09124 -0.01795,0.173496 -0.01795,0.08077 -0.06581,0.131618 -0.04637,0.04936 -0.131618,0.04936 -0.04637,0 -0.08226,-0.02244 -0.03589,-0.02393 -0.06431,-0.05384 v 0.348488 z m 0.275202,-0.397845 q 0.04188,0 0.05983,-0.02991 0.01795,-0.03141 0.02244,-0.08376 0.0045,-0.05235 0.0045,-0.115166 v -0.209393 q 0,-0.05384 -0.006,-0.09871 -0.006,-0.04637 -0.02543,-0.07329 -0.01944,-0.02692 -0.06132,-0.02692 -0.03141,0 -0.05983,0.01346 -0.02842,0.01346 -0.04936,0.03141 v 0.553395 q 0.02244,0.01645 0.05085,0.02842 0.02842,0.01047 0.06431,0.01047 z"
         style="font-weight:normal;font-family:Oswald;-inkscape-font-specification:Oswald"
         id="path1538" />
      <path
         d="m 82.348633,56.717907 v -0.864491 h 0.160035 v 0.122644 q 0.04786,-0.07927 0.09572,-0.106192 0.04786,-0.02692 0.09572,-0.02692 0.006,0 0.01047,0 0.006,0 0.01496,0.0015 v 0.176487 q -0.01795,-0.0075 -0.04188,-0.01197 -0.02243,-0.006 -0.04637,-0.006 -0.03739,0 -0.0688,0.01795 -0.02991,0.01645 -0.05983,0.06581 v 0.631169 z"
         style="font-weight:normal;font-family:Oswald;-inkscape-font-specification:Oswald"
         id="path1540" />
      <path
         d="m 83.103347,56.729872 q -0.09572,0 -0.151062,-0.03889 -0.05534,-0.03889 -0.07927,-0.110679 -0.02244,-0.07179 -0.02244,-0.169009 v -0.251271 q 0,-0.09722 0.02244,-0.16901 0.02393,-0.07179 0.07927,-0.110679 0.05534,-0.03889 0.151062,-0.03889 0.09572,0 0.149566,0.03889 0.05534,0.03889 0.07777,0.110679 0.02393,0.07179 0.02393,0.16901 v 0.251271 q 0,0.09722 -0.02393,0.169009 -0.02244,0.07179 -0.07777,0.110679 -0.05384,0.03889 -0.149566,0.03889 z m 0,-0.118157 q 0.04636,0 0.06431,-0.02692 0.01944,-0.02692 0.02244,-0.0703 0.0045,-0.04487 0.0045,-0.09273 v -0.270714 q 0,-0.04936 -0.0045,-0.09273 -0.003,-0.04337 -0.02244,-0.0703 -0.01795,-0.02842 -0.06431,-0.02842 -0.04637,0 -0.06581,0.02842 -0.01944,0.02692 -0.02393,0.0703 -0.003,0.04337 -0.003,0.09273 v 0.270714 q 0,0.04786 0.003,0.09273 0.0045,0.04337 0.02393,0.0703 0.01944,0.02692 0.06581,0.02692 z"
         style="font-weight:normal;font-family:Oswald;-inkscape-font-specification:Oswald"
         id="path1542" />
      <path
         d="m 83.59333,56.717907 v -0.746334 h -0.103201 v -0.118157 h 0.103201 v -0.04487 q 0,-0.08675 0.01795,-0.143584 0.01944,-0.05683 0.06431,-0.08525 0.04487,-0.02842 0.122644,-0.02842 0.01944,0 0.04038,0.0015 0.02244,0.0015 0.04637,0.0045 v 0.119653 q -0.01496,-0.003 -0.02991,-0.0045 -0.01346,-0.0015 -0.02543,-0.0015 -0.04637,0 -0.06132,0.02543 -0.01496,0.02543 -0.01496,0.08525 v 0.07179 h 0.352975 v 0.864491 h -0.160035 v -0.746334 h -0.19294 v 0.746334 z m 0.367932,-0.993118 v -0.167514 h 0.146575 v 0.167514 z"
         style="font-weight:normal;font-family:Oswald;-inkscape-font-specification:Oswald"
         id="path1544" />
      <path
         d="m 84.374376,56.717907 v -1.211485 h 0.160036 v 1.211485 z"
         style="font-weight:normal;font-family:Oswald;-inkscape-font-specification:Oswald"
         id="path1546" />
      <path
         d="m 84.982518,56.729872 q -0.101705,0 -0.157044,-0.03889 -0.05534,-0.04038 -0.07777,-0.116661 -0.02094,-0.07777 -0.02094,-0.189949 v -0.197427 q 0,-0.115166 0.02244,-0.191445 0.02244,-0.07628 0.07778,-0.115166 0.05683,-0.03889 0.155548,-0.03889 0.109183,0 0.160036,0.04487 0.05235,0.04487 0.0688,0.130122 0.01645,0.08376 0.01645,0.201915 v 0.0703 h -0.34101 v 0.173496 q 0,0.05235 0.009,0.08525 0.01047,0.0329 0.03141,0.04936 0.02244,0.01496 0.05684,0.01496 0.0359,0 0.05384,-0.01645 0.01944,-0.01795 0.02543,-0.04936 0.0075,-0.0329 0.0075,-0.07628 v -0.05235 h 0.155549 v 0.0329 q 0,0.130122 -0.05534,0.204905 -0.05534,0.07478 -0.188453,0.07478 z m -0.09572,-0.527968 h 0.183966 v -0.07777 q 0,-0.05384 -0.006,-0.08974 -0.006,-0.03739 -0.02543,-0.05534 -0.01795,-0.01944 -0.05833,-0.01944 -0.03889,0 -0.05983,0.01795 -0.01944,0.01795 -0.02692,0.06132 -0.0075,0.04188 -0.0075,0.116662 z"
         style="font-weight:normal;font-family:Oswald;-inkscape-font-specification:Oswald"
         id="path1548" />
      <path
         d="m 85.614589,56.729872 q -0.106192,0 -0.170506,-0.06581 -0.06431,-0.0673 -0.07329,-0.176488 l 0.133114,-0.04038 q 0.01196,0.08226 0.04038,0.124139 0.02842,0.04038 0.08376,0.04038 0.04337,0 0.06581,-0.02393 0.02243,-0.02543 0.02243,-0.0673 0,-0.03739 -0.01645,-0.0673 -0.01645,-0.02991 -0.05384,-0.06132 l -0.14807,-0.127131 q -0.04487,-0.03889 -0.07628,-0.08675 -0.02991,-0.04786 -0.02991,-0.12414 0,-0.0688 0.02692,-0.115166 0.02842,-0.04786 0.07777,-0.07179 0.05085,-0.02543 0.118158,-0.02543 0.1032,0 0.157044,0.0673 0.05534,0.06581 0.06282,0.160036 l -0.107688,0.04038 q -0.006,-0.04487 -0.01795,-0.07777 -0.01197,-0.0344 -0.0329,-0.05235 -0.02094,-0.01944 -0.05534,-0.01944 -0.03889,0 -0.06282,0.02692 -0.02244,0.02543 -0.02244,0.06132 0,0.02244 0.009,0.04487 0.01047,0.02094 0.0344,0.04188 l 0.152557,0.140592 q 0.03141,0.02842 0.05833,0.06132 0.02842,0.0329 0.04637,0.07478 0.01795,0.04188 0.01795,0.09722 0,0.07329 -0.02991,0.122644 -0.02991,0.04936 -0.08376,0.07478 -0.05384,0.02393 -0.125635,0.02393 z"
         style="font-weight:normal;font-family:Oswald;-inkscape-font-specification:Oswald"
         id="path1550" />
    </g>
    <g
       aria-label="BETA"
       id="text92731-3"
       style="font-weight:bold;font-size:1.49566px;line-height:1.25;font-family:'Roboto Condensed';-inkscape-font-specification:'Roboto Condensed,  Bold';letter-spacing:0.0412865px;fill:#ffeeaa;stroke-width:0.0934785"
       transform="translate(0,0.12742723)">
      <path
         d="m 91.297352,56.741608 v -1.211485 h 0.278192 q 0.08226,0 0.142088,0.01795 0.06132,0.01795 0.101705,0.05534 0.04038,0.03739 0.05983,0.09572 0.01944,0.05683 0.01944,0.134609 0,0.07478 -0.01944,0.130122 -0.01795,0.05384 -0.05684,0.08525 -0.03739,0.03141 -0.09722,0.04038 0.07329,0.01645 0.118157,0.05683 0.04487,0.03889 0.06581,0.101705 0.02244,0.06132 0.02244,0.14807 0,0.07778 -0.01795,0.142088 -0.01795,0.06431 -0.05683,0.109183 -0.03739,0.04487 -0.09722,0.0703 -0.05833,0.02393 -0.139097,0.02393 z m 0.169009,-0.121149 h 0.11367 q 0.11367,0 0.151062,-0.05235 0.03889,-0.05384 0.03889,-0.172001 0,-0.07628 -0.02094,-0.127131 -0.01944,-0.05235 -0.06431,-0.07777 -0.04338,-0.02692 -0.118158,-0.02692 h -0.100209 z m 0,-0.584803 h 0.100209 q 0.07179,0 0.112175,-0.01944 0.04038,-0.02094 0.05683,-0.06581 0.01645,-0.04487 0.01645,-0.116662 0,-0.08376 -0.02543,-0.121148 -0.02543,-0.03739 -0.07927,-0.04637 -0.05384,-0.01047 -0.140592,-0.01047 h -0.04038 z"
         style="font-weight:normal;font-family:Oswald;-inkscape-font-specification:Oswald"
         id="path1453" />
      <path
         d="m 92.122364,56.741608 v -1.211485 h 0.469637 v 0.125636 h -0.300627 v 0.400836 h 0.243792 v 0.119653 h -0.243792 v 0.444211 h 0.303619 v 0.121149 z"
         style="font-weight:normal;font-family:Oswald;-inkscape-font-specification:Oswald"
         id="path1455" />
      <path
         d="m 92.905497,56.741608 v -1.085849 h -0.204905 v -0.125636 h 0.572838 v 0.125636 h -0.198923 v 1.085849 z"
         style="font-weight:normal;font-family:Oswald;-inkscape-font-specification:Oswald"
         id="path1457" />
      <path
         d="m 93.362576,56.741608 0.257254,-1.211485 h 0.163027 l 0.258749,1.211485 H 93.88157 l -0.05534,-0.305115 h -0.246784 l -0.05833,0.305115 z m 0.239306,-0.426263 h 0.201914 l -0.101705,-0.545916 z"
         style="font-weight:normal;font-family:Oswald;-inkscape-font-specification:Oswald"
         id="path1459" />
    </g>
  </g>
</svg>
