<?xml version="1.0" encoding="UTF-8" standalone="no"?>
<!-- Created with Inkscape (http://www.inkscape.org/) -->

<svg
   width="171.10989"
   height="28.027"
   viewBox="0 0 45.270894 7.4151607"
   version="1.1"
   id="svg5"
   xmlns="http://www.w3.org/2000/svg"
   xmlns:svg="http://www.w3.org/2000/svg">
  <defs
     id="defs2" />
  <g
     id="layer1"
     transform="translate(-48.04912,-50.47336)">
    <g
       aria-label="cRystal ArchiVes"
       id="text2630"
       style="font-size:4.23333px;line-height:1.25;font-family:'Cinzel Decorative';-inkscape-font-specification:'Cinzel Decorative';letter-spacing:0.129646px;fill:#ffffff;stroke-width:0.264583"
       transform="translate(0,0.52914408)">
      <path
         d="m 49.797485,54.54159 q -0.817033,0 -1.282699,-0.410633 -0.465666,-0.410633 -0.465666,-1.126065 0,-0.715433 0.461432,-1.126066 0.461433,-0.414866 1.265766,-0.414866 0.613833,0 1.054099,0.228599 l 0.0085,0.728133 h -0.03387 q -0.2159,-0.778933 -0.986366,-0.778933 -0.499533,0 -0.791632,0.364067 -0.287867,0.359833 -0.287867,0.986366 0,0.626532 0.275167,0.994832 0.279399,0.3683 0.753532,0.381 0.491067,0 0.7493,-0.245533 0.262466,-0.254 0.364066,-0.872066 h 0.03387 l 0.04233,0.728132 q -0.3429,0.567267 -1.159932,0.563033 z"
         style="font-weight:bold"
         id="path1334" />
      <path
         d="m 55.883429,55.206223 q -0.3302,0.1651 -0.702733,0.1651 -0.3302,0 -0.601133,-0.1016 -0.584199,-0.2159 -0.994832,-0.842433 -0.105834,-0.152399 -0.3937,-0.584199 -0.287867,-0.4318 -0.372533,-0.550333 -0.148167,-0.232833 -0.237067,-0.254 v -0.04233 q 0.0042,0 0.0085,0 0.0085,0 0.01693,0 0.0085,0 0.01693,0 0.0085,0 0.02117,0 0.0127,0 0.02117,0 0.2159,0 0.397933,-0.09737 0.275166,-0.1524 0.275166,-0.563033 0,-0.300566 -0.169333,-0.461432 -0.169333,-0.1651 -0.406399,-0.1651 h -0.321734 v 2.468031 q 0,0.110067 0.08043,0.1905 0.08043,0.0762 0.1905,0.0762 h 0.05503 v 0.04233 h -1.286932 v -0.04233 h 0.05503 q 0.105833,0 0.186266,-0.0762 0.08043,-0.0762 0.08467,-0.186267 v -2.349498 q -0.0042,-0.110066 -0.08467,-0.186266 -0.0762,-0.08043 -0.186266,-0.08043 h -0.05503 v -0.04233 h 1.452032 q 0.546099,0 0.846666,0.249767 0.237066,0.194733 0.237066,0.550332 0,0.3556 -0.232833,0.579967 -0.2286,0.220133 -0.524933,0.220133 -0.0254,0 -0.05503,-0.0042 0.173566,0.09313 0.287866,0.207434 0.118534,0.1143 0.2032,0.215899 0.0889,0.1016 0.148167,0.182034 0.0635,0.0762 0.1651,0.207433 0.101599,0.127 0.211666,0.2667 0.110067,0.139699 0.2413,0.287866 0.135466,0.143933 0.296333,0.275166 0.1651,0.131234 0.334433,0.2159 0.359833,0.182033 0.791633,0.186267 z"
         style="font-weight:bold"
         id="path1336" />
      <path
         d="m 57.532846,51.565559 h -0.05927 q -0.127,0 -0.2413,0.07197 -0.1143,0.07197 -0.182033,0.173567 l -0.833966,1.329265 v 1.037166 q 0,0.110067 0.08043,0.1905 0.08043,0.0762 0.1905,0.0762 h 0.0508 l 0.0042,0.04233 h -1.286932 v -0.04233 h 0.05503 q 0.110067,0 0.186267,-0.0762 0.08043,-0.0762 0.08467,-0.186267 v -1.045632 l -0.808566,-1.329266 q -0.0635,-0.1016 -0.182033,-0.169333 -0.1143,-0.07197 -0.237066,-0.07197 h -0.05927 v -0.04233 h 1.401232 v 0.04233 h -0.05503 q -0.09313,0 -0.143933,0.08467 -0.0254,0.04657 -0.0254,0.09313 0,0.04233 0.02117,0.08467 l 0.605367,1.100666 0.626532,-1.100666 q 0.0254,-0.04233 0.0254,-0.08467 0,-0.04657 -0.02963,-0.0889 -0.0508,-0.0889 -0.143933,-0.0889 h -0.0508 v -0.04233 h 1.007532 z"
         style="font-weight:bold"
         id="path1338" />
      <path
         d="m 57.734457,54.092857 q 0,-0.304799 0.131234,-0.520699 h 0.0381 q -0.0042,0.03387 -0.0042,0.06773 0,0.2921 0.207433,0.512233 0.211667,0.2159 0.575733,0.2159 0.283633,0 0.440267,-0.135467 0.160866,-0.135466 0.160866,-0.342899 0,-0.249767 -0.338666,-0.436033 l -0.7366,-0.486833 q -0.220133,-0.127 -0.317499,-0.3048 -0.09313,-0.182033 -0.09313,-0.3683 0,-0.397933 0.249767,-0.613833 0.254,-0.215899 0.647699,-0.215899 0.232833,0 0.575733,0.04233 h 0.2667 l -0.05503,0.622299 h -0.04233 q 0,-0.220133 -0.1651,-0.351366 -0.160866,-0.135467 -0.431799,-0.135467 -0.3302,0 -0.478366,0.2032 -0.0762,0.09737 -0.0762,0.220133 0,0.2032 0.296333,0.376767 l 0.808566,0.524933 q 0.380999,0.220133 0.380999,0.647699 0,0.452966 -0.309033,0.694266 -0.304799,0.237067 -0.812799,0.237067 -0.287866,0 -0.5334,-0.06773 -0.241299,-0.07197 -0.355599,-0.190499 -0.02963,-0.08043 -0.02963,-0.194734 z"
         style="font-weight:bold"
         id="path1340" />
      <path
         d="m 61.83073,51.696793 v 2.484964 q 0.0042,0.110067 0.08043,0.186267 0.08043,0.0762 0.190499,0.0762 h 0.0508 l 0.0042,0.04233 h -1.286933 v -0.04233 h 0.05503 q 0.105833,0 0.182033,-0.0762 0.08043,-0.0762 0.0889,-0.182033 v -2.489198 h -0.5715 q -0.194733,0.0042 -0.309033,0.122766 -0.1143,0.118533 -0.1143,0.309033 v 0.0508 h -0.04233 v -0.736599 q 0.05927,0.0254 0.211667,0.0508 0.156633,0.0254 0.287866,0.0254 h 1.706032 q 0.207433,-0.0042 0.338666,-0.03387 0.131234,-0.02963 0.160867,-0.04233 v 0.736599 h -0.04233 v -0.0508 q 0,-0.1905 -0.1143,-0.309033 -0.1143,-0.118533 -0.309033,-0.122766 z"
         style="font-weight:bold"
         id="path1342" />
      <path
         d="m 65.901611,54.444224 h 0.0381 v 0.04233 h -1.350432 v -0.04233 h 0.0381 q 0.09313,0 0.135467,-0.05503 0.04657,-0.05927 0.04657,-0.110066 0,-0.0508 -0.02117,-0.1016 l -0.207433,-0.5207 h -0.990599 l -0.220133,0.5207 q -0.02117,0.05503 -0.02117,0.105833 0,0.04657 0.04233,0.105833 0.04657,0.05503 0.143933,0.05503 h 0.03387 v 0.04233 h -0.905933 v -0.04233 h 0.0381 q 0.09737,0 0.194734,-0.05927 0.09737,-0.05927 0.160866,-0.1778 l 0.977899,-2.214031 q 0.198967,-0.4191 0.211667,-0.554566 h 0.0381 l 1.257299,2.760131 q 0.0635,0.122766 0.160866,0.186266 0.09737,0.05927 0.198967,0.05927 z m -2.239432,-0.965199 h 0.846666 l -0.410633,-1.0414 z"
         style="font-weight:bold"
         id="path1344" />
      <path
         d="m 66.170955,54.444224 q 0.110067,0 0.186266,-0.0762 0.08043,-0.08043 0.08467,-0.1905 v -2.345265 q -0.0042,-0.110066 -0.08467,-0.186266 -0.0762,-0.08043 -0.186266,-0.08043 h -0.05503 v -0.04233 h 1.286932 l -0.0042,0.04233 h -0.0508 q -0.110067,0 -0.1905,0.08043 -0.08043,0.0762 -0.08043,0.186266 v 2.472265 h 0.554566 q 0.309033,0 0.516466,-0.1778 0.211666,-0.1778 0.313266,-0.503766 h 0.04233 l -0.194734,0.863599 h -2.192864 v -0.04233 z"
         style="font-weight:bold"
         id="path1346" />
      <path
         d="m 73.95287,55.261256 q -0.461432,0.232833 -0.935565,0.0762 -0.503767,-0.160866 -0.867833,-0.685799 -0.194733,-0.2794 -0.334433,-0.6477 l -0.135467,-0.359833 h -0.999065 l -0.224367,0.5334 q -0.02117,0.05503 -0.02117,0.0889 0,0.03387 0.0127,0.0762 0.01693,0.0381 0.0635,0.07197 0.0508,0.02963 0.110067,0.02963 h 0.03387 v 0.04233 h -0.905933 v -0.04233 h 0.0381 q 0.09737,0 0.1905,-0.05503 0.09737,-0.05927 0.160866,-0.173566 l 0.944033,-2.154765 q -0.1651,-0.372533 -0.351367,-0.512233 -0.156633,-0.118533 -0.300566,-0.118533 -0.1397,0 -0.262466,0.04233 l -0.0085,-0.04233 q 0.3048,-0.156633 0.584199,-0.156633 0.347134,0 0.6223,0.270933 0.270933,0.2667 0.478366,0.770466 l 0.613833,1.515532 q 0.347133,0.859366 0.711199,1.181099 0.148167,0.131233 0.3048,0.182033 0.156633,0.0508 0.262467,0.0508 0.110066,0 0.211666,-0.0254 z m -3.200397,-1.799165 h 0.863599 l -0.296333,-0.783166 q -0.02117,-0.05927 -0.05927,-0.160866 -0.0381,-0.105834 -0.0508,-0.148167 z"
         style="font-weight:bold"
         id="path1348" />
      <path
         d="m 74.323816,51.709493 h -0.182033 q -0.0085,0 -0.0127,0 v 2.468031 q 0.0042,0.156633 0.135467,0.232833 0.0635,0.03387 0.135466,0.03387 h 0.05503 v 0.04233 h -1.286932 v -0.04233 h 0.05503 q 0.1524,0 0.232834,-0.131234 0.03387,-0.05927 0.0381,-0.131233 v -2.349498 q -0.0042,-0.110066 -0.08467,-0.186266 -0.0762,-0.08043 -0.186267,-0.08043 h -0.05503 v -0.04233 h 1.452032 q 0.410633,0 0.694266,0.1778 0.143934,0.0889 0.2286,0.249766 0.08467,0.156634 0.08467,0.359834 0,0.198966 -0.07197,0.368299 -0.06773,0.169333 -0.232833,0.296333 -0.160867,0.127 -0.389466,0.1524 0.245533,0.08043 0.431799,0.372533 0.4572,0.732366 0.677333,0.872066 0.110067,0.06773 0.275166,0.07197 v 0.04233 h -0.414866 q -0.359833,0 -0.601133,-0.09737 -0.241299,-0.101599 -0.393699,-0.342899 -0.0762,-0.122767 -0.194734,-0.3683 -0.118533,-0.249766 -0.156633,-0.3556 -0.1143,-0.253999 -0.287866,-0.283633 v -0.04233 h 0.131233 q 0.1905,0 0.334433,-0.1143 0.148167,-0.1143 0.198967,-0.372533 0.01693,-0.0889 0.01693,-0.1397 0,-0.347133 -0.1397,-0.499533 -0.1397,-0.156633 -0.359833,-0.160866 -0.04233,0 -0.127,0 z"
         style="font-weight:bold"
         id="path1350" />
      <path
         d="m 78.07719,54.54159 q -0.817033,0 -1.282699,-0.410633 -0.465666,-0.410633 -0.465666,-1.126065 0,-0.715433 0.461433,-1.126066 0.461432,-0.414866 1.265765,-0.414866 0.613833,0 1.054099,0.228599 l 0.0085,0.728133 h -0.03387 q -0.2159,-0.778933 -0.986366,-0.778933 -0.499532,0 -0.791632,0.364067 -0.287867,0.359833 -0.287867,0.986366 0,0.626532 0.275167,0.994832 0.2794,0.3683 0.753532,0.381 0.491067,0 0.7493,-0.245533 0.262466,-0.254 0.364066,-0.872066 h 0.03387 l 0.04233,0.728132 q -0.3429,0.567267 -1.159932,0.563033 z"
         style="font-weight:bold"
         id="path1352" />
      <path
         d="m 81.796701,54.444224 q 0.110067,0 0.169334,-0.05503 0.09737,-0.09737 0.1016,-0.207433 v -1.079499 h -1.371599 v 1.075266 q 0,0.110067 0.08043,0.1905 0.08043,0.0762 0.1905,0.0762 h 0.0508 l 0.0042,0.04233 H 79.73507 v -0.04233 h 0.05503 q 0.110067,0 0.186267,-0.0762 0.08043,-0.08043 0.08467,-0.1905 V 51.82803 q -0.0042,-0.110067 -0.08467,-0.186267 -0.0762,-0.0762 -0.186267,-0.0762 h -0.05503 v -0.04233 h 1.286932 l -0.0042,0.04233 h -0.0508 q -0.110067,0 -0.1905,0.0762 -0.08043,0.0762 -0.08043,0.186267 v 1.092199 h 1.371599 V 51.82803 q -0.0042,-0.110067 -0.08467,-0.186267 -0.0762,-0.0762 -0.186267,-0.0762 h -0.05503 v -0.04233 H 83.0286 v 0.04233 h -0.05503 q -0.110066,0 -0.1905,0.08043 -0.08043,0.0762 -0.08043,0.186266 v 2.345265 q 0,0.110067 0.08043,0.1905 0.08043,0.0762 0.1905,0.0762 h 0.05503 v 0.04233 h -1.286932 v -0.04233 z"
         style="font-weight:bold"
         id="path1354" />
      <path
         d="m 83.564647,54.444224 q 0.110067,0 0.186266,-0.0762 0.08043,-0.08043 0.08467,-0.1905 v -2.349498 q -0.0042,-0.110067 -0.08467,-0.186267 -0.0762,-0.0762 -0.186266,-0.0762 h -0.05503 v -0.04233 h 1.286932 l -0.0042,0.04233 h -0.0508 q -0.110067,0 -0.1905,0.0762 -0.08043,0.0762 -0.08043,0.186267 v 2.349498 q 0,0.110067 0.08043,0.1905 0.08043,0.0762 0.1905,0.0762 h 0.0508 l 0.0042,0.04233 h -1.286932 v -0.04233 z"
         style="font-weight:bold"
         id="path1356" />
      <path
         d="m 89.015587,50.47336 q 0.105833,0 0.1778,0.0085 v 0.04233 q -0.262466,0.0127 -0.452966,0.127 -0.2159,0.131233 -0.309033,0.245533 -0.0889,0.110067 -0.143934,0.182034 -0.0508,0.06773 -0.101599,0.165099 -0.08043,0.148167 -0.148167,0.2921 l -1.134532,2.480731 q -0.194734,0.4191 -0.207434,0.554567 h -0.0381 l -1.282699,-2.764365 q -0.0635,-0.118533 -0.160867,-0.1778 -0.09737,-0.0635 -0.198966,-0.0635 h -0.03387 v -0.04233 h 1.346199 v 0.04233 h -0.03387 q -0.09313,0 -0.1397,0.05927 -0.04233,0.05503 -0.04233,0.105833 0,0.0508 0.01693,0.1016 l 0.719666,1.748365 0.8763,-2.044698 q 0.198966,-0.469899 0.465666,-0.706966 0.3937,-0.3556 0.825499,-0.3556 z"
         style="font-weight:bold"
         id="path1358" />
      <path
         d="m 88.501765,54.444224 q 0.110067,0 0.186267,-0.0762 0.08043,-0.08043 0.08467,-0.1905 v -2.357965 q -0.0127,-0.148166 -0.1397,-0.220133 -0.0635,-0.03387 -0.131234,-0.03387 h -0.05503 v -0.04233 h 1.621365 q 0.131234,0 0.287867,-0.0254 0.156633,-0.0254 0.220133,-0.0508 v 0.740833 h -0.04233 v -0.0508 q 0,-0.1905 -0.1143,-0.3048 -0.110067,-0.118533 -0.300567,-0.127 h -0.711199 v 1.231899 h 0.5588 q 0.156633,-0.0042 0.258233,-0.105833 0.1016,-0.105833 0.1016,-0.258233 v -0.0381 h 0.04233 v 0.977899 h -0.04233 v -0.03387 q 0,-0.211667 -0.169334,-0.313267 -0.08467,-0.04657 -0.186266,-0.0508 h -0.563033 v 1.189566 h 0.554566 q 0.309033,0 0.516466,-0.1778 0.211667,-0.1778 0.313267,-0.503766 h 0.04233 l -0.194733,0.863599 h -2.192865 v -0.04233 z"
         style="font-weight:bold"
         id="path1360" />
      <path
         d="m 91.281479,54.092857 q 0,-0.304799 0.131233,-0.520699 h 0.0381 q -0.0042,0.03387 -0.0042,0.06773 0,0.2921 0.207433,0.512233 0.211667,0.2159 0.575733,0.2159 0.283633,0 0.440266,-0.135467 0.160867,-0.135466 0.160867,-0.342899 0,-0.249767 -0.338666,-0.436033 l -0.7366,-0.486833 q -0.220133,-0.127 -0.3175,-0.3048 -0.09313,-0.182033 -0.09313,-0.3683 0,-0.397933 0.249767,-0.613833 0.253999,-0.215899 0.647699,-0.215899 0.232833,0 0.575733,0.04233 h 0.2667 l -0.05503,0.622299 h -0.04233 q 0,-0.220133 -0.1651,-0.351366 -0.160866,-0.135467 -0.431799,-0.135467 -0.3302,0 -0.478367,0.2032 -0.0762,0.09737 -0.0762,0.220133 0,0.2032 0.296334,0.376767 l 0.808566,0.524933 q 0.380999,0.220133 0.380999,0.647699 0,0.452966 -0.309033,0.694266 -0.3048,0.237067 -0.812799,0.237067 -0.287867,0 -0.5334,-0.06773 -0.2413,-0.07197 -0.355599,-0.190499 -0.02963,-0.08043 -0.02963,-0.194734 z"
         style="font-weight:bold"
         id="path1362" />
    </g>
    <g
       aria-label="FFXIV roleplaying portal to Crystal (NA)"
       id="text92731"
       style="font-weight:bold;font-size:1.49566px;line-height:1.25;font-family:'Roboto Condensed';-inkscape-font-specification:'Roboto Condensed,  Bold';letter-spacing:0.0412865px;fill:#ffffff;stroke-width:0.0934785"
       transform="translate(0,0.29239116)">
      <path
         d="m 59.345768,57.069496 v -1.211484 h 0.468141 v 0.121148 h -0.299132 v 0.403828 h 0.231828 v 0.119653 h -0.231828 v 0.566855 z"
         style="font-weight:normal;font-family:Oswald;-inkscape-font-specification:Oswald"
         id="path1263" />
      <path
         d="M 59.971858,57.069496 V 55.858012 H 60.44 v 0.121148 h -0.299132 v 0.403828 h 0.231827 v 0.119653 h -0.231827 v 0.566855 z"
         style="font-weight:normal;font-family:Oswald;-inkscape-font-specification:Oswald"
         id="path1265" />
      <path
         d="m 60.523166,57.069496 0.252767,-0.63416 -0.24828,-0.577324 h 0.157044 l 0.183966,0.427758 0.167514,-0.427758 h 0.157045 l -0.254263,0.590785 0.266228,0.620699 H 61.048143 L 60.850716,56.61332 60.68021,57.069496 Z"
         style="font-weight:normal;font-family:Oswald;-inkscape-font-specification:Oswald"
         id="path1267" />
      <path
         d="m 61.369118,57.069496 v -1.211484 h 0.166018 v 1.211484 z"
         style="font-weight:normal;font-family:Oswald;-inkscape-font-specification:Oswald"
         id="path1269" />
      <path
         d="m 61.983241,57.069496 -0.270714,-1.211484 h 0.15854 l 0.191444,0.892909 0.182471,-0.892909 h 0.154053 l -0.267723,1.211484 z"
         style="font-weight:normal;font-family:Oswald;-inkscape-font-specification:Oswald"
         id="path1271" />
      <path
         d="m 62.943765,57.069496 v -0.864491 h 0.160036 v 0.122644 q 0.04786,-0.07927 0.09572,-0.106192 0.04786,-0.02692 0.09572,-0.02692 0.006,0 0.01047,0 0.006,0 0.01496,0.0015 v 0.176488 q -0.01795,-0.0075 -0.04188,-0.01197 -0.02244,-0.006 -0.04637,-0.006 -0.03739,0 -0.0688,0.01795 -0.02991,0.01645 -0.05983,0.06581 v 0.631168 z"
         style="font-weight:normal;font-family:Oswald;-inkscape-font-specification:Oswald"
         id="path1273" />
      <path
         d="m 63.69848,57.081461 q -0.09572,0 -0.151061,-0.03889 -0.05534,-0.03889 -0.07927,-0.110679 -0.02243,-0.07179 -0.02243,-0.169009 v -0.251271 q 0,-0.09722 0.02243,-0.16901 0.02393,-0.07179 0.07927,-0.110678 0.05534,-0.03889 0.151061,-0.03889 0.09572,0 0.149566,0.03889 0.05534,0.03889 0.07778,0.110678 0.02393,0.07179 0.02393,0.16901 v 0.251271 q 0,0.09722 -0.02393,0.169009 -0.02244,0.07179 -0.07778,0.110679 -0.05384,0.03889 -0.149566,0.03889 z m 0,-0.118157 q 0.04637,0 0.06431,-0.02692 0.01944,-0.02692 0.02244,-0.0703 0.0045,-0.04487 0.0045,-0.09273 V 56.50264 q 0,-0.04936 -0.0045,-0.09273 -0.003,-0.04337 -0.02244,-0.0703 -0.01795,-0.02842 -0.06431,-0.02842 -0.04637,0 -0.06581,0.02842 -0.01944,0.02692 -0.02393,0.0703 -0.003,0.04337 -0.003,0.09273 v 0.270714 q 0,0.04786 0.003,0.09273 0.0045,0.04337 0.02393,0.0703 0.01944,0.02692 0.06581,0.02692 z"
         style="font-weight:normal;font-family:Oswald;-inkscape-font-specification:Oswald"
         id="path1275" />
      <path
         d="m 64.152568,57.069496 v -1.211484 h 0.160036 v 1.211484 z"
         style="font-weight:normal;font-family:Oswald;-inkscape-font-specification:Oswald"
         id="path1277" />
      <path
         d="m 64.76071,57.081461 q -0.101705,0 -0.157045,-0.03889 -0.05534,-0.04038 -0.07777,-0.116661 -0.02094,-0.07778 -0.02094,-0.189949 v -0.197427 q 0,-0.115166 0.02244,-0.191445 0.02244,-0.07628 0.07777,-0.115165 0.05684,-0.03889 0.155549,-0.03889 0.109183,0 0.160035,0.04487 0.05235,0.04487 0.0688,0.130123 0.01645,0.08376 0.01645,0.201914 v 0.0703 h -0.34101 v 0.173496 q 0,0.05235 0.009,0.08525 0.01047,0.0329 0.03141,0.04936 0.02244,0.01496 0.05683,0.01496 0.0359,0 0.05384,-0.01645 0.01944,-0.01795 0.02543,-0.04936 0.0075,-0.0329 0.0075,-0.07628 v -0.05235 h 0.155548 v 0.0329 q 0,0.130122 -0.05534,0.204905 -0.05534,0.07478 -0.188453,0.07478 z m -0.09572,-0.527968 h 0.183966 v -0.07777 q 0,-0.05384 -0.006,-0.08974 -0.006,-0.03739 -0.02543,-0.05534 -0.01795,-0.01944 -0.05833,-0.01944 -0.03889,0 -0.05983,0.01795 -0.01944,0.01795 -0.02692,0.06132 -0.0075,0.04188 -0.0075,0.116661 z"
         style="font-weight:normal;font-family:Oswald;-inkscape-font-specification:Oswald"
         id="path1279" />
      <path
         d="m 65.192363,57.353672 v -1.148667 h 0.160035 v 0.0688 q 0.02842,-0.0329 0.0688,-0.05683 0.04038,-0.02393 0.09572,-0.02393 0.06731,0 0.106192,0.0359 0.04038,0.0344 0.05983,0.08824 0.01944,0.05235 0.02543,0.107688 0.006,0.05384 0.006,0.09273 v 0.209392 q 0,0.09123 -0.01795,0.173497 -0.01795,0.08076 -0.06581,0.131618 -0.04636,0.04936 -0.131618,0.04936 -0.04637,0 -0.08226,-0.02243 -0.0359,-0.02393 -0.06431,-0.05384 v 0.348489 z m 0.275201,-0.397846 q 0.04188,0 0.05983,-0.02991 0.01795,-0.03141 0.02243,-0.08376 0.0045,-0.05235 0.0045,-0.115166 v -0.209392 q 0,-0.05384 -0.006,-0.09871 -0.006,-0.04637 -0.02543,-0.07329 -0.01944,-0.02692 -0.06132,-0.02692 -0.03141,0 -0.05983,0.01346 -0.02842,0.01346 -0.04936,0.03141 v 0.553394 q 0.02244,0.01645 0.05085,0.02842 0.02842,0.01047 0.06431,0.01047 z"
         style="font-weight:normal;font-family:Oswald;-inkscape-font-specification:Oswald"
         id="path1281" />
      <path
         d="m 65.915669,57.069496 v -1.211484 h 0.160036 v 1.211484 z"
         style="font-weight:normal;font-family:Oswald;-inkscape-font-specification:Oswald"
         id="path1283" />
      <path
         d="m 66.440054,57.081461 q -0.05085,0 -0.08974,-0.02842 -0.03889,-0.02991 -0.06132,-0.07478 -0.02243,-0.04637 -0.02243,-0.09722 0,-0.08077 0.02692,-0.136105 0.02692,-0.05534 0.07329,-0.09273 0.04786,-0.03889 0.109183,-0.0673 0.06282,-0.02842 0.131618,-0.05534 v -0.06132 q 0,-0.05235 -0.006,-0.08675 -0.006,-0.0344 -0.02543,-0.05085 -0.01795,-0.01795 -0.05534,-0.01795 -0.0329,0 -0.05384,0.01496 -0.01944,0.01496 -0.02842,0.04337 -0.009,0.02692 -0.009,0.06431 v 0.04337 l -0.15854,-0.006 q 0.003,-0.143584 0.06581,-0.210888 0.06282,-0.0688 0.194436,-0.0688 0.128627,0 0.182471,0.0703 0.05384,0.0703 0.05384,0.20341 v 0.394854 q 0,0.04038 0.0015,0.07778 0.003,0.03739 0.006,0.0703 0.0045,0.03141 0.0075,0.05983 h -0.146575 q -0.0045,-0.02393 -0.01197,-0.05983 -0.006,-0.03739 -0.009,-0.0673 -0.01496,0.05085 -0.05833,0.09572 -0.04188,0.04337 -0.116661,0.04337 z m 0.06282,-0.1376 q 0.02393,0 0.04487,-0.01346 0.02094,-0.01346 0.03739,-0.02991 0.01645,-0.01795 0.02244,-0.02842 v -0.245288 q -0.03739,0.02094 -0.0703,0.04188 -0.0329,0.02094 -0.05833,0.04487 -0.02393,0.02244 -0.03889,0.05235 -0.01346,0.02842 -0.01346,0.06581 0,0.05235 0.01944,0.08226 0.01944,0.02991 0.05683,0.02991 z"
         style="font-weight:normal;font-family:Oswald;-inkscape-font-specification:Oswald"
         id="path1285" />
      <path
         d="m 66.949483,57.286367 v -0.122644 q 0.05833,0 0.09273,-0.006 0.0344,-0.0045 0.04936,-0.01944 0.01496,-0.01346 0.01496,-0.03889 0,-0.01346 -0.01047,-0.05983 -0.01047,-0.04637 -0.02244,-0.09871 l -0.173496,-0.735864 h 0.161531 l 0.116661,0.646125 0.112175,-0.646125 h 0.161531 l -0.206401,0.912352 q -0.01346,0.06282 -0.04936,0.09871 -0.03589,0.03739 -0.09273,0.05384 -0.05534,0.01645 -0.13461,0.01645 z"
         style="font-weight:normal;font-family:Oswald;-inkscape-font-specification:Oswald"
         id="path1287" />
      <path
         d="m 67.600999,57.069496 v -0.864491 h 0.160036 v 0.864491 z m 0,-0.993118 v -0.167514 h 0.160036 v 0.167514 z"
         style="font-weight:normal;font-family:Oswald;-inkscape-font-specification:Oswald"
         id="path1289" />
      <path
         d="m 67.974322,57.069496 v -0.864491 h 0.160036 v 0.08525 q 0.04337,-0.04038 0.09572,-0.0688 0.05235,-0.02842 0.115166,-0.02842 0.05235,0 0.07927,0.02692 0.02842,0.02692 0.03889,0.06731 0.01197,0.04038 0.01197,0.08226 v 0.699969 h -0.160035 v -0.653603 q 0,-0.04637 -0.01346,-0.07179 -0.01346,-0.02543 -0.05534,-0.02543 -0.02692,0 -0.05684,0.01645 -0.02842,0.01496 -0.05534,0.03739 v 0.696977 z"
         style="font-weight:normal;font-family:Oswald;-inkscape-font-specification:Oswald"
         id="path1291" />
      <path
         d="m 68.896551,57.337219 q -0.07777,0 -0.140592,-0.01645 -0.06282,-0.01645 -0.09871,-0.05235 -0.03589,-0.0359 -0.03589,-0.09423 0,-0.04188 0.01795,-0.07329 0.01795,-0.03141 0.04637,-0.05384 0.02842,-0.02393 0.05983,-0.03889 -0.04188,-0.01196 -0.06282,-0.03739 -0.02094,-0.02692 -0.02094,-0.05534 0,-0.04786 0.02543,-0.08226 0.02543,-0.0344 0.0703,-0.07478 -0.04936,-0.03739 -0.07478,-0.09572 -0.02543,-0.05833 -0.02543,-0.161532 0,-0.101705 0.02692,-0.169009 0.02842,-0.0688 0.08226,-0.103201 0.05534,-0.0359 0.134609,-0.0359 0.0703,0 0.112174,0.02393 0.04337,0.02393 0.06581,0.07179 0.0075,-0.01197 0.04038,-0.04038 0.0329,-0.02991 0.07628,-0.04936 l 0.02393,-0.01047 0.04038,0.103201 q -0.01944,0.003 -0.05235,0.01496 -0.03141,0.01047 -0.05983,0.02243 -0.02692,0.01047 -0.0344,0.01795 0.01047,0.02543 0.01795,0.07329 0.009,0.04786 0.009,0.08525 0,0.08824 -0.02244,0.155549 -0.02244,0.0673 -0.07478,0.106192 -0.05085,0.03739 -0.142088,0.03739 -0.01944,0 -0.04188,-0.003 -0.02244,-0.003 -0.04038,-0.0075 -0.009,0.01346 -0.01944,0.03141 -0.009,0.01795 -0.009,0.0344 0,0.01645 0.01645,0.02692 0.01795,0.009 0.05534,0.01197 l 0.134609,0.01196 q 0.101705,0.009 0.151062,0.06132 0.04936,0.05235 0.04936,0.149566 0,0.0703 -0.0329,0.118157 -0.0329,0.04936 -0.100209,0.07329 -0.06581,0.02393 -0.167514,0.02393 z m 0.01197,-0.125635 q 0.08525,0 0.125636,-0.02094 0.04038,-0.01944 0.04038,-0.06431 0,-0.02692 -0.01047,-0.04487 -0.009,-0.01795 -0.0344,-0.02842 -0.02543,-0.01047 -0.07329,-0.01496 l -0.136105,-0.01196 q -0.01645,0.01645 -0.03141,0.0329 -0.01496,0.01645 -0.02393,0.0344 -0.009,0.01944 -0.009,0.04038 0,0.03889 0.0329,0.05833 0.0329,0.01944 0.119653,0.01944 z m -0.0075,-0.518994 q 0.0344,0 0.05384,-0.01197 0.02094,-0.01346 0.03141,-0.03739 0.01047,-0.02543 0.01346,-0.06132 0.0045,-0.0359 0.0045,-0.08077 0,-0.04487 -0.0045,-0.08076 -0.003,-0.03739 -0.01346,-0.06282 -0.009,-0.02692 -0.02991,-0.04038 -0.01944,-0.01346 -0.05384,-0.01346 -0.0329,0 -0.05534,0.01346 -0.02094,0.01346 -0.03141,0.03889 -0.01047,0.02393 -0.01496,0.06132 -0.0045,0.0359 -0.0045,0.08376 0,0.04038 0.003,0.07628 0.0045,0.0344 0.01496,0.05983 0.01197,0.02543 0.0329,0.04038 0.02094,0.01496 0.05384,0.01496 z"
         style="font-weight:normal;font-family:Oswald;-inkscape-font-specification:Oswald"
         id="path1293" />
      <path
         d="m 69.747892,57.353672 v -1.148667 h 0.160036 v 0.0688 q 0.02842,-0.0329 0.0688,-0.05683 0.04038,-0.02393 0.09572,-0.02393 0.0673,0 0.106191,0.0359 0.04038,0.0344 0.05983,0.08824 0.01944,0.05235 0.02543,0.107688 0.006,0.05384 0.006,0.09273 v 0.209392 q 0,0.09123 -0.01795,0.173497 -0.01795,0.08076 -0.06581,0.131618 -0.04637,0.04936 -0.131618,0.04936 -0.04637,0 -0.08226,-0.02243 -0.0359,-0.02393 -0.06431,-0.05384 v 0.348489 z m 0.275202,-0.397846 q 0.04188,0 0.05983,-0.02991 0.01795,-0.03141 0.02244,-0.08376 0.0045,-0.05235 0.0045,-0.115166 v -0.209392 q 0,-0.05384 -0.006,-0.09871 -0.006,-0.04637 -0.02543,-0.07329 -0.01944,-0.02692 -0.06132,-0.02692 -0.03141,0 -0.05983,0.01346 -0.02842,0.01346 -0.04936,0.03141 v 0.553394 q 0.02244,0.01645 0.05085,0.02842 0.02842,0.01047 0.06431,0.01047 z"
         style="font-weight:normal;font-family:Oswald;-inkscape-font-specification:Oswald"
         id="path1295" />
      <path
         d="m 70.694051,57.081461 q -0.09572,0 -0.151061,-0.03889 -0.05534,-0.03889 -0.07927,-0.110679 -0.02244,-0.07179 -0.02244,-0.169009 v -0.251271 q 0,-0.09722 0.02244,-0.16901 0.02393,-0.07179 0.07927,-0.110678 0.05534,-0.03889 0.151061,-0.03889 0.09572,0 0.149566,0.03889 0.05534,0.03889 0.07778,0.110678 0.02393,0.07179 0.02393,0.16901 v 0.251271 q 0,0.09722 -0.02393,0.169009 -0.02244,0.07179 -0.07778,0.110679 -0.05384,0.03889 -0.149566,0.03889 z m 0,-0.118157 q 0.04637,0 0.06431,-0.02692 0.01944,-0.02692 0.02244,-0.0703 0.0045,-0.04487 0.0045,-0.09273 V 56.50264 q 0,-0.04936 -0.0045,-0.09273 -0.003,-0.04337 -0.02244,-0.0703 -0.01795,-0.02842 -0.06431,-0.02842 -0.04637,0 -0.06581,0.02842 -0.01944,0.02692 -0.02393,0.0703 -0.003,0.04337 -0.003,0.09273 v 0.270714 q 0,0.04786 0.003,0.09273 0.0045,0.04337 0.02393,0.0703 0.01944,0.02692 0.06581,0.02692 z"
         style="font-weight:normal;font-family:Oswald;-inkscape-font-specification:Oswald"
         id="path1297" />
      <path
         d="m 71.137669,57.069496 v -0.864491 h 0.160036 v 0.122644 q 0.04786,-0.07927 0.09572,-0.106192 0.04786,-0.02692 0.09572,-0.02692 0.006,0 0.01047,0 0.006,0 0.01496,0.0015 v 0.176488 q -0.01795,-0.0075 -0.04188,-0.01197 -0.02244,-0.006 -0.04636,-0.006 -0.03739,0 -0.0688,0.01795 -0.02991,0.01645 -0.05983,0.06581 v 0.631168 z"
         style="font-weight:normal;font-family:Oswald;-inkscape-font-specification:Oswald"
         id="path1299" />
      <path
         d="m 71.884907,57.081461 q -0.06731,0 -0.109183,-0.02543 -0.04038,-0.02543 -0.05983,-0.07179 -0.01795,-0.04637 -0.01795,-0.109184 v -0.563863 h -0.09123 v -0.106192 h 0.09123 v -0.252767 h 0.160036 v 0.252767 h 0.139096 v 0.106192 H 71.85798 v 0.553394 q 0,0.05085 0.01645,0.07329 0.01645,0.02094 0.06282,0.02094 0.01197,0 0.02692,-0.0015 0.01645,-0.0015 0.03141,-0.003 v 0.118157 q -0.02991,0.0045 -0.05534,0.006 -0.02543,0.003 -0.05534,0.003 z"
         style="font-weight:normal;font-family:Oswald;-inkscape-font-specification:Oswald"
         id="path1301" />
      <path
         d="m 72.312074,57.081461 q -0.05085,0 -0.08974,-0.02842 -0.03889,-0.02991 -0.06132,-0.07478 -0.02244,-0.04637 -0.02244,-0.09722 0,-0.08077 0.02692,-0.136105 0.02692,-0.05534 0.07329,-0.09273 0.04786,-0.03889 0.109183,-0.0673 0.06282,-0.02842 0.131618,-0.05534 v -0.06132 q 0,-0.05235 -0.006,-0.08675 -0.006,-0.0344 -0.02543,-0.05085 -0.01795,-0.01795 -0.05534,-0.01795 -0.03291,0 -0.05384,0.01496 -0.01944,0.01496 -0.02842,0.04337 -0.009,0.02692 -0.009,0.06431 v 0.04337 l -0.15854,-0.006 q 0.003,-0.143584 0.06581,-0.210888 0.06282,-0.0688 0.194435,-0.0688 0.128627,0 0.182471,0.0703 0.05384,0.0703 0.05384,0.20341 v 0.394854 q 0,0.04038 0.0015,0.07778 0.003,0.03739 0.006,0.0703 0.0045,0.03141 0.0075,0.05983 h -0.146574 q -0.0045,-0.02393 -0.01197,-0.05983 -0.006,-0.03739 -0.009,-0.0673 -0.01496,0.05085 -0.05833,0.09572 -0.04188,0.04337 -0.116662,0.04337 z m 0.06282,-0.1376 q 0.02393,0 0.04487,-0.01346 0.02094,-0.01346 0.03739,-0.02991 0.01645,-0.01795 0.02244,-0.02842 v -0.245288 q -0.03739,0.02094 -0.0703,0.04188 -0.0329,0.02094 -0.05833,0.04487 -0.02393,0.02244 -0.03889,0.05235 -0.01346,0.02842 -0.01346,0.06581 0,0.05235 0.01944,0.08226 0.01944,0.02991 0.05684,0.02991 z"
         style="font-weight:normal;font-family:Oswald;-inkscape-font-specification:Oswald"
         id="path1303" />
      <path
         d="m 72.84992,57.069496 v -1.211484 h 0.160036 v 1.211484 z"
         style="font-weight:normal;font-family:Oswald;-inkscape-font-specification:Oswald"
         id="path1305" />
      <path
         d="m 73.832881,57.081461 q -0.06731,0 -0.109183,-0.02543 -0.04038,-0.02543 -0.05983,-0.07179 -0.01795,-0.04637 -0.01795,-0.109184 v -0.563863 h -0.09124 v -0.106192 h 0.09124 v -0.252767 h 0.160035 v 0.252767 h 0.139097 v 0.106192 h -0.139097 v 0.553394 q 0,0.05085 0.01645,0.07329 0.01645,0.02094 0.06282,0.02094 0.01197,0 0.02692,-0.0015 0.01645,-0.0015 0.03141,-0.003 v 0.118157 q -0.02991,0.0045 -0.05534,0.006 -0.02543,0.003 -0.05534,0.003 z"
         style="font-weight:normal;font-family:Oswald;-inkscape-font-specification:Oswald"
         id="path1307" />
      <path
         d="m 74.34231,57.081461 q -0.09572,0 -0.151062,-0.03889 -0.05534,-0.03889 -0.07927,-0.110679 -0.02243,-0.07179 -0.02243,-0.169009 v -0.251271 q 0,-0.09722 0.02243,-0.16901 0.02393,-0.07179 0.07927,-0.110678 0.05534,-0.03889 0.151062,-0.03889 0.09572,0 0.149566,0.03889 0.05534,0.03889 0.07777,0.110678 0.02393,0.07179 0.02393,0.16901 v 0.251271 q 0,0.09722 -0.02393,0.169009 -0.02244,0.07179 -0.07777,0.110679 -0.05384,0.03889 -0.149566,0.03889 z m 0,-0.118157 q 0.04637,0 0.06431,-0.02692 0.01944,-0.02692 0.02244,-0.0703 0.0045,-0.04487 0.0045,-0.09273 V 56.50264 q 0,-0.04936 -0.0045,-0.09273 -0.003,-0.04337 -0.02244,-0.0703 -0.01795,-0.02842 -0.06431,-0.02842 -0.04637,0 -0.06581,0.02842 -0.01944,0.02692 -0.02393,0.0703 -0.003,0.04337 -0.003,0.09273 v 0.270714 q 0,0.04786 0.003,0.09273 0.0045,0.04337 0.02393,0.0703 0.01944,0.02692 0.06581,0.02692 z"
         style="font-weight:normal;font-family:Oswald;-inkscape-font-specification:Oswald"
         id="path1309" />
      <path
         d="m 75.482313,57.082957 q -0.128626,0 -0.200418,-0.05384 -0.0703,-0.05384 -0.09871,-0.145079 -0.02692,-0.09123 -0.02692,-0.203409 V 56.25287 q 0,-0.122644 0.02692,-0.21388 0.02842,-0.09124 0.09871,-0.140592 0.07179,-0.05085 0.200418,-0.05085 0.113671,0 0.17948,0.04188 0.0673,0.04188 0.09572,0.119653 0.02991,0.07778 0.02991,0.186958 v 0.09572 H 75.627392 V 56.2065 q 0,-0.0673 -0.0075,-0.118157 -0.006,-0.05235 -0.0359,-0.08076 -0.02991,-0.02842 -0.100209,-0.02842 -0.07179,0 -0.104696,0.03141 -0.0329,0.02991 -0.04337,0.08675 -0.009,0.05534 -0.009,0.130123 v 0.480106 q 0,0.09124 0.01496,0.145079 0.01496,0.05235 0.04936,0.07478 0.0344,0.02244 0.09273,0.02244 0.0688,0 0.09871,-0.02991 0.02991,-0.03141 0.03739,-0.08525 0.0075,-0.05384 0.0075,-0.125636 v -0.08974 h 0.160036 v 0.08974 q 0,0.110679 -0.02692,0.195932 -0.02692,0.08376 -0.09273,0.131618 -0.06581,0.04637 -0.185462,0.04637 z"
         style="font-weight:normal;font-family:Oswald;-inkscape-font-specification:Oswald"
         id="path1311" />
      <path
         d="m 75.981272,57.069496 v -0.864491 h 0.160035 v 0.122644 q 0.04786,-0.07927 0.09572,-0.106192 0.04786,-0.02692 0.09572,-0.02692 0.006,0 0.01047,0 0.006,0 0.01496,0.0015 v 0.176488 q -0.01795,-0.0075 -0.04188,-0.01197 -0.02243,-0.006 -0.04636,-0.006 -0.03739,0 -0.0688,0.01795 -0.02991,0.01645 -0.05983,0.06581 v 0.631168 z"
         style="font-weight:normal;font-family:Oswald;-inkscape-font-specification:Oswald"
         id="path1313" />
      <path
         d="m 76.484715,57.286367 v -0.122644 q 0.05833,0 0.09273,-0.006 0.0344,-0.0045 0.04936,-0.01944 0.01496,-0.01346 0.01496,-0.03889 0,-0.01346 -0.01047,-0.05983 -0.01047,-0.04637 -0.02244,-0.09871 l -0.173496,-0.735864 h 0.161531 l 0.116662,0.646125 0.112174,-0.646125 h 0.161531 l -0.206401,0.912352 q -0.01346,0.06282 -0.04936,0.09871 -0.03589,0.03739 -0.09273,0.05384 -0.05534,0.01645 -0.13461,0.01645 z"
         style="font-weight:normal;font-family:Oswald;-inkscape-font-specification:Oswald"
         id="path1315" />
      <path
         d="m 77.32618,57.081461 q -0.106192,0 -0.170505,-0.06581 -0.06431,-0.0673 -0.07329,-0.176487 l 0.133113,-0.04038 q 0.01197,0.08226 0.04038,0.124139 0.02842,0.04038 0.08376,0.04038 0.04337,0 0.06581,-0.02393 0.02244,-0.02543 0.02244,-0.0673 0,-0.03739 -0.01645,-0.06731 -0.01645,-0.02991 -0.05384,-0.06132 l -0.14807,-0.127131 q -0.04487,-0.03889 -0.07628,-0.08675 -0.02991,-0.04786 -0.02991,-0.12414 0,-0.0688 0.02692,-0.115166 0.02842,-0.04786 0.07777,-0.07179 0.05085,-0.02543 0.118157,-0.02543 0.103201,0 0.157045,0.06731 0.05534,0.06581 0.06282,0.160036 l -0.107687,0.04038 q -0.006,-0.04487 -0.01795,-0.07778 -0.01197,-0.0344 -0.0329,-0.05235 -0.02094,-0.01944 -0.05534,-0.01944 -0.03889,0 -0.06282,0.02692 -0.02244,0.02543 -0.02244,0.06132 0,0.02244 0.009,0.04487 0.01047,0.02094 0.0344,0.04188 l 0.152558,0.140592 q 0.03141,0.02842 0.05833,0.06132 0.02842,0.0329 0.04637,0.07478 0.01795,0.04188 0.01795,0.09722 0,0.07329 -0.02991,0.122644 -0.02991,0.04936 -0.08376,0.07478 -0.05384,0.02393 -0.125636,0.02393 z"
         style="font-weight:normal;font-family:Oswald;-inkscape-font-specification:Oswald"
         id="path1317" />
      <path
         d="m 77.956758,57.081461 q -0.0673,0 -0.109184,-0.02543 -0.04038,-0.02543 -0.05983,-0.07179 -0.01795,-0.04637 -0.01795,-0.109184 v -0.563863 h -0.09123 v -0.106192 h 0.09123 v -0.252767 h 0.160036 v 0.252767 h 0.139096 v 0.106192 H 77.92983 v 0.553394 q 0,0.05085 0.01645,0.07329 0.01645,0.02094 0.06282,0.02094 0.01197,0 0.02692,-0.0015 0.01645,-0.0015 0.03141,-0.003 v 0.118157 q -0.02991,0.0045 -0.05534,0.006 -0.02543,0.003 -0.05534,0.003 z"
         style="font-weight:normal;font-family:Oswald;-inkscape-font-specification:Oswald"
         id="path1319" />
      <path
         d="m 78.383926,57.081461 q -0.05085,0 -0.08974,-0.02842 -0.03889,-0.02991 -0.06132,-0.07478 -0.02244,-0.04637 -0.02244,-0.09722 0,-0.08077 0.02692,-0.136105 0.02692,-0.05534 0.07329,-0.09273 0.04786,-0.03889 0.109183,-0.0673 0.06282,-0.02842 0.131618,-0.05534 v -0.06132 q 0,-0.05235 -0.006,-0.08675 -0.006,-0.0344 -0.02543,-0.05085 -0.01795,-0.01795 -0.05534,-0.01795 -0.0329,0 -0.05384,0.01496 -0.01944,0.01496 -0.02842,0.04337 -0.009,0.02692 -0.009,0.06431 v 0.04337 l -0.15854,-0.006 q 0.003,-0.143584 0.06581,-0.210888 0.06282,-0.0688 0.194436,-0.0688 0.128627,0 0.182471,0.0703 0.05384,0.0703 0.05384,0.20341 v 0.394854 q 0,0.04038 0.0015,0.07778 0.003,0.03739 0.006,0.0703 0.0045,0.03141 0.0075,0.05983 h -0.146575 q -0.0045,-0.02393 -0.01197,-0.05983 -0.006,-0.03739 -0.009,-0.0673 -0.01496,0.05085 -0.05833,0.09572 -0.04188,0.04337 -0.116661,0.04337 z m 0.06282,-0.1376 q 0.02393,0 0.04487,-0.01346 0.02094,-0.01346 0.03739,-0.02991 0.01645,-0.01795 0.02244,-0.02842 v -0.245288 q -0.03739,0.02094 -0.0703,0.04188 -0.0329,0.02094 -0.05833,0.04487 -0.02393,0.02244 -0.03889,0.05235 -0.01346,0.02842 -0.01346,0.06581 0,0.05235 0.01944,0.08226 0.01944,0.02991 0.05683,0.02991 z"
         style="font-weight:normal;font-family:Oswald;-inkscape-font-specification:Oswald"
         id="path1321" />
      <path
         d="m 78.921772,57.069496 v -1.211484 h 0.160036 v 1.211484 z"
         style="font-weight:normal;font-family:Oswald;-inkscape-font-specification:Oswald"
         id="path1323" />
      <path
         d="m 79.994472,57.359654 q -0.08525,-0.0015 -0.140592,-0.04487 -0.05384,-0.04188 -0.08525,-0.116661 -0.03141,-0.07478 -0.04637,-0.170505 -0.01346,-0.09572 -0.01645,-0.204906 -0.003,-0.109183 -0.003,-0.218366 0,-0.110679 0.003,-0.218366 0.003,-0.109184 0.01645,-0.204906 0.01496,-0.09722 0.04637,-0.172001 0.03141,-0.07478 0.08525,-0.118157 0.05534,-0.04337 0.140592,-0.04337 v 0.107687 q -0.05235,0.0015 -0.08076,0.05983 -0.02842,0.05683 -0.04038,0.151062 -0.01197,0.09423 -0.01496,0.209392 -0.0015,0.11367 -0.0015,0.228836 0,0.116661 0.0015,0.231827 0.003,0.11367 0.01496,0.207897 0.01197,0.09423 0.04038,0.151062 0.02842,0.05683 0.08076,0.05833 z"
         style="font-weight:normal;font-family:Oswald;-inkscape-font-specification:Oswald"
         id="path1325" />
      <path
         d="m 80.174856,57.069496 v -1.211484 h 0.115166 l 0.344002,0.804665 v -0.804665 h 0.140592 v 1.211484 h -0.107688 l -0.348489,-0.8271 v 0.8271 z"
         style="font-weight:normal;font-family:Oswald;-inkscape-font-specification:Oswald"
         id="path1327" />
      <path
         d="m 80.940041,57.069496 0.257253,-1.211484 h 0.163027 l 0.258749,1.211484 h -0.160035 l -0.05534,-0.305114 h -0.246784 l -0.05833,0.305114 z m 0.239305,-0.426263 h 0.201914 l -0.101705,-0.545916 z"
         style="font-weight:normal;font-family:Oswald;-inkscape-font-specification:Oswald"
         id="path1329" />
      <path
         d="m 81.73215,57.359654 v -0.107687 q 0.05384,-0.0015 0.08226,-0.05983 0.02842,-0.05683 0.04038,-0.151061 0.01197,-0.09423 0.01346,-0.209393 0.003,-0.115166 0.003,-0.230331 0,-0.116662 -0.003,-0.230332 -0.0015,-0.115166 -0.01346,-0.207897 -0.01197,-0.09423 -0.04038,-0.151061 -0.02842,-0.05684 -0.08226,-0.05833 V 55.84754 q 0.08675,0 0.140592,0.04337 0.05534,0.04188 0.08675,0.116662 0.03141,0.07478 0.04487,0.172 0.01496,0.09572 0.01795,0.20341 0.003,0.107688 0.003,0.218367 0,0.110678 -0.003,0.219862 -0.003,0.107687 -0.01795,0.204905 -0.01346,0.09722 -0.04487,0.172001 -0.03141,0.07478 -0.08675,0.116661 -0.05384,0.04337 -0.140592,0.04487 z"
         style="font-weight:normal;font-family:Oswald;-inkscape-font-specification:Oswald"
         id="path1331" />
    </g>
  </g>
  <text
     xml:space="preserve"
     style="font-weight:bold;font-size:1.4956px;line-height:1.25;font-family:'Roboto Condensed';-inkscape-font-specification:'Roboto Condensed,  Bold';letter-spacing:0.0412847px;fill:#ffeeaa;fill-opacity:1;stroke-width:0.0934745"
     x="41.970642"
     y="7.0283461"
     id="text92731-3"><tspan
       id="tspan92729"
       style="font-style:normal;font-variant:normal;font-weight:normal;font-stretch:normal;font-family:Oswald;-inkscape-font-specification:Oswald;fill:#ffeeaa;fill-opacity:1;stroke-width:0.0934745"
       x="41.970642"
       y="7.0283461">BETA</tspan></text>
</svg>
